G04*
G04 #@! TF.GenerationSoftware,Altium Limited,Altium Designer,25.8.1 (18)*
G04*
G04 Layer_Color=8388736*
%FSLAX25Y25*%
%MOIN*%
G70*
G04*
G04 #@! TF.SameCoordinates,A6EE73D6-A97E-425F-8DD4-44423C1B3C0A*
G04*
G04*
G04 #@! TF.FilePolarity,Negative*
G04*
G01*
G75*
%ADD19R,0.08477X0.03359*%
%ADD20R,0.02769X0.02769*%
%ADD21R,0.04540X0.04540*%
G04:AMPARAMS|DCode=22|XSize=37.92mil|YSize=34mil|CornerRadius=7.25mil|HoleSize=0mil|Usage=FLASHONLY|Rotation=90.000|XOffset=0mil|YOffset=0mil|HoleType=Round|Shape=RoundedRectangle|*
%AMROUNDEDRECTD22*
21,1,0.03792,0.01950,0,0,90.0*
21,1,0.02342,0.03400,0,0,90.0*
1,1,0.01450,0.00975,0.01171*
1,1,0.01450,0.00975,-0.01171*
1,1,0.01450,-0.00975,-0.01171*
1,1,0.01450,-0.00975,0.01171*
%
%ADD22ROUNDEDRECTD22*%
%ADD23R,0.04540X0.04540*%
%ADD24R,0.03950X0.04737*%
%ADD25C,0.07296*%
%ADD26C,0.06312*%
%ADD27R,0.07296X0.07296*%
%ADD28R,0.07296X0.07296*%
%ADD29R,0.06312X0.06312*%
%ADD30C,0.05800*%
%ADD31C,0.16548*%
D19*
X366535Y332677D02*
D03*
X403740Y347677D02*
D03*
X366535Y327677D02*
D03*
Y322677D02*
D03*
Y357677D02*
D03*
X403740Y332677D02*
D03*
Y322677D02*
D03*
Y327677D02*
D03*
Y357677D02*
D03*
Y337677D02*
D03*
Y342677D02*
D03*
Y352677D02*
D03*
X366535D02*
D03*
Y347677D02*
D03*
Y342677D02*
D03*
Y337677D02*
D03*
D20*
X428740Y314173D02*
D03*
Y307874D02*
D03*
X422441D02*
D03*
Y320472D02*
D03*
X428740Y311024D02*
D03*
X425591Y320472D02*
D03*
Y307874D02*
D03*
X422441Y311024D02*
D03*
Y317323D02*
D03*
Y314173D02*
D03*
X428740Y320472D02*
D03*
Y317323D02*
D03*
D21*
X425098Y299606D02*
D03*
X430020D02*
D03*
D22*
X424803Y294094D02*
D03*
X430315D02*
D03*
D23*
X363386Y315551D02*
D03*
Y310630D02*
D03*
D24*
X422638Y330315D02*
D03*
X428543D02*
D03*
D25*
X398661Y373228D02*
D03*
X450787Y309842D02*
D03*
X335827Y320000D02*
D03*
X388661Y256299D02*
D03*
X408661Y373228D02*
D03*
X450787Y319843D02*
D03*
X388661Y373228D02*
D03*
X335827Y310000D02*
D03*
X398661Y256299D02*
D03*
X335827Y330000D02*
D03*
X450787Y299843D02*
D03*
X408661Y256299D02*
D03*
X378661Y373228D02*
D03*
X335827Y300000D02*
D03*
X450787Y329842D02*
D03*
X378661Y256299D02*
D03*
X368661D02*
D03*
X335827Y340000D02*
D03*
X450787Y289843D02*
D03*
X418661Y373228D02*
D03*
D26*
X375984Y288189D02*
D03*
Y278346D02*
D03*
Y298031D02*
D03*
D27*
X450787Y339843D02*
D03*
X335827Y290000D02*
D03*
D28*
X368661Y373228D02*
D03*
X418661Y256299D02*
D03*
D29*
X375984Y307874D02*
D03*
D30*
X377559Y323622D02*
D03*
X416511Y296710D02*
D03*
X350000Y309055D02*
D03*
X377559Y356693D02*
D03*
X419291Y286221D02*
D03*
X437402Y311417D02*
D03*
X440945Y327559D02*
D03*
X437402Y318898D02*
D03*
X416929Y342520D02*
D03*
X401575Y298819D02*
D03*
X412992Y324016D02*
D03*
X392126Y282677D02*
D03*
D31*
X437008Y354331D02*
D03*
X350394D02*
D03*
Y275590D02*
D03*
X435827Y272441D02*
D03*
M02*
