G04*
G04 #@! TF.GenerationSoftware,Altium Limited,Altium Designer,25.8.1 (18)*
G04*
G04 Layer_Physical_Order=1*
G04 Layer_Color=255*
%FSLAX25Y25*%
%MOIN*%
G70*
G04*
G04 #@! TF.SameCoordinates,8B26A7FC-FD43-4694-A22A-0022FF1C5016*
G04*
G04*
G04 #@! TF.FilePolarity,Positive*
G04*
G01*
G75*
%ADD13R,0.07677X0.02559*%
%ADD14R,0.01968X0.01968*%
%ADD15R,0.03740X0.03740*%
G04:AMPARAMS|DCode=16|XSize=29.92mil|YSize=26mil|CornerRadius=3.25mil|HoleSize=0mil|Usage=FLASHONLY|Rotation=90.000|XOffset=0mil|YOffset=0mil|HoleType=Round|Shape=RoundedRectangle|*
%AMROUNDEDRECTD16*
21,1,0.02992,0.01950,0,0,90.0*
21,1,0.02342,0.02600,0,0,90.0*
1,1,0.00650,0.00975,0.01171*
1,1,0.00650,0.00975,-0.01171*
1,1,0.00650,-0.00975,-0.01171*
1,1,0.00650,-0.00975,0.01171*
%
%ADD16ROUNDEDRECTD16*%
%ADD17R,0.03740X0.03740*%
%ADD18R,0.03150X0.03937*%
%ADD32C,0.01968*%
%ADD33C,0.01500*%
%ADD34C,0.06496*%
%ADD35C,0.05512*%
%ADD36R,0.06496X0.06496*%
%ADD37R,0.06496X0.06496*%
%ADD38R,0.05512X0.05512*%
%ADD39C,0.05000*%
%ADD40C,0.15748*%
G36*
X400726Y386284D02*
X405375Y385672D01*
X409975Y384757D01*
X414505Y383543D01*
X418946Y382036D01*
X423279Y380241D01*
X427485Y378167D01*
X431547Y375822D01*
X435446Y373216D01*
X439167Y370361D01*
X442693Y367269D01*
X446009Y363953D01*
X449102Y360427D01*
X451957Y356706D01*
X454562Y352807D01*
X456907Y348745D01*
X458981Y344539D01*
X460776Y340206D01*
X462284Y335765D01*
X463497Y331235D01*
X464412Y326635D01*
X465025Y321985D01*
X465331Y317306D01*
Y312616D01*
X465025Y307936D01*
X464412Y303286D01*
X463497Y298686D01*
X462284Y294156D01*
X460776Y289715D01*
X458981Y285382D01*
X456907Y281176D01*
X454562Y277115D01*
X451957Y273215D01*
X449102Y269495D01*
X446009Y265968D01*
X442693Y262652D01*
X439167Y259560D01*
X435446Y256705D01*
X431547Y254099D01*
X427485Y251754D01*
X423279Y249680D01*
X418946Y247885D01*
X414505Y246378D01*
X409975Y245164D01*
X405375Y244249D01*
X400726Y243637D01*
X396046Y243330D01*
X391356D01*
X386676Y243637D01*
X382026Y244249D01*
X377427Y245164D01*
X372896Y246378D01*
X368456Y247885D01*
X364123Y249680D01*
X359916Y251754D01*
X355855Y254099D01*
X351955Y256705D01*
X348235Y259560D01*
X344708Y262652D01*
X341392Y265968D01*
X338300Y269495D01*
X335445Y273215D01*
X332839Y277115D01*
X330494Y281176D01*
X328420Y285382D01*
X326625Y289715D01*
X325118Y294156D01*
X323904Y298686D01*
X322989Y303286D01*
X322377Y307936D01*
X322070Y312616D01*
Y317306D01*
X322377Y321985D01*
X322989Y326635D01*
X323904Y331235D01*
X325118Y335765D01*
X326625Y340206D01*
X328420Y344539D01*
X330494Y348745D01*
X332839Y352807D01*
X335445Y356706D01*
X338300Y360427D01*
X341392Y363953D01*
X344709Y367269D01*
X348235Y370361D01*
X351955Y373216D01*
X355855Y375822D01*
X359916Y378167D01*
X364123Y380241D01*
X368455Y382036D01*
X372896Y383543D01*
X377427Y384757D01*
X382026Y385672D01*
X386676Y386284D01*
X391356Y386591D01*
X396046D01*
X400726Y386284D01*
D02*
G37*
%LPC*%
G36*
X379661Y377358D02*
Y374228D01*
X382791D01*
X382620Y374868D01*
X382061Y375837D01*
X381270Y376628D01*
X380301Y377187D01*
X379661Y377358D01*
D02*
G37*
G36*
X377661Y377358D02*
X377022Y377187D01*
X376053Y376628D01*
X375262Y375837D01*
X374703Y374868D01*
X374532Y374228D01*
X377661D01*
Y377358D01*
D02*
G37*
G36*
X419193Y377264D02*
X418130D01*
X417104Y376989D01*
X416184Y376458D01*
X415432Y375706D01*
X414901Y374786D01*
X414626Y373760D01*
Y372697D01*
X414901Y371671D01*
X415432Y370750D01*
X416184Y369999D01*
X417104Y369468D01*
X418130Y369193D01*
X419193D01*
X420219Y369468D01*
X421139Y369999D01*
X421891Y370750D01*
X422422Y371671D01*
X422697Y372697D01*
Y373760D01*
X422422Y374786D01*
X421891Y375706D01*
X421139Y376458D01*
X420219Y376989D01*
X419193Y377264D01*
D02*
G37*
G36*
X409193D02*
X408130D01*
X407104Y376989D01*
X406184Y376458D01*
X405432Y375706D01*
X404901Y374786D01*
X404626Y373760D01*
Y372697D01*
X404901Y371671D01*
X405432Y370750D01*
X406184Y369999D01*
X407104Y369468D01*
X408130Y369193D01*
X409193D01*
X410219Y369468D01*
X411139Y369999D01*
X411891Y370750D01*
X412422Y371671D01*
X412697Y372697D01*
Y373760D01*
X412422Y374786D01*
X411891Y375706D01*
X411139Y376458D01*
X410219Y376989D01*
X409193Y377264D01*
D02*
G37*
G36*
X399193D02*
X398130D01*
X397104Y376989D01*
X396184Y376458D01*
X395432Y375706D01*
X394901Y374786D01*
X394664Y373902D01*
X394615Y373828D01*
X394496Y373228D01*
Y355295D01*
X371744Y332543D01*
X371364Y332659D01*
X371352Y332718D01*
X387171Y348537D01*
X387511Y349046D01*
X387631Y349646D01*
Y369039D01*
X387908Y369252D01*
X388130Y369193D01*
X389193D01*
X390219Y369468D01*
X391139Y369999D01*
X391891Y370750D01*
X392422Y371671D01*
X392697Y372697D01*
Y373760D01*
X392422Y374786D01*
X391891Y375706D01*
X391139Y376458D01*
X390219Y376989D01*
X389193Y377264D01*
X388130D01*
X387104Y376989D01*
X386184Y376458D01*
X385432Y375706D01*
X384901Y374786D01*
X384664Y373902D01*
X384615Y373828D01*
X384495Y373228D01*
Y350295D01*
X371485Y337284D01*
X371161Y337418D01*
Y339744D01*
X361910D01*
X361839Y340065D01*
Y340289D01*
X361910Y340610D01*
X362189Y340610D01*
X371161D01*
Y344744D01*
X362189D01*
X361910Y344744D01*
X361839Y345065D01*
Y345289D01*
X361910Y345610D01*
X371161D01*
Y349744D01*
X361910D01*
Y349245D01*
X361597D01*
X360997Y349125D01*
X360488Y348786D01*
X359163Y347460D01*
X358823Y346952D01*
X358704Y346352D01*
Y336290D01*
X355467Y333054D01*
X338480D01*
X338305Y333229D01*
X337384Y333760D01*
X336358Y334035D01*
X335296D01*
X334269Y333760D01*
X333349Y333229D01*
X332598Y332478D01*
X332066Y331558D01*
X331791Y330531D01*
Y329469D01*
X332066Y328442D01*
X332598Y327522D01*
X333349Y326771D01*
X334269Y326240D01*
X335296Y325965D01*
X336358D01*
X337384Y326240D01*
X338305Y326771D01*
X339056Y327522D01*
X339587Y328442D01*
X339862Y329469D01*
Y329919D01*
X355591D01*
X355725Y329595D01*
X353222Y327093D01*
X352883Y326584D01*
X352763Y325984D01*
Y311436D01*
X352413Y311291D01*
X352018Y311686D01*
X351269Y312119D01*
X350433Y312343D01*
X349567D01*
X348731Y312119D01*
X347982Y311686D01*
X347369Y311074D01*
X346937Y310324D01*
X346713Y309488D01*
Y308622D01*
X346937Y307786D01*
X347369Y307037D01*
X347982Y306424D01*
X348194Y306302D01*
Y302717D01*
X339512Y294035D01*
X331791D01*
Y285965D01*
X339862D01*
Y290241D01*
X340079D01*
X340770Y290378D01*
X341356Y290770D01*
X351277Y300691D01*
X351669Y301277D01*
X351806Y301969D01*
Y306302D01*
X352018Y306424D01*
X352413Y306819D01*
X352763Y306674D01*
Y300787D01*
X352883Y300187D01*
X353222Y299679D01*
X372867Y280034D01*
X372682Y279714D01*
X372441Y278813D01*
Y277880D01*
X372682Y276979D01*
X373149Y276171D01*
X373809Y275511D01*
X374617Y275045D01*
X375518Y274803D01*
X376451D01*
X377129Y274985D01*
X381962Y270151D01*
X382471Y269812D01*
X383071Y269692D01*
X395659D01*
X397015Y268336D01*
Y260008D01*
X396184Y259528D01*
X395432Y258777D01*
X394901Y257857D01*
X394626Y256831D01*
Y255768D01*
X394901Y254742D01*
X395432Y253821D01*
X396184Y253070D01*
X397104Y252539D01*
X398130Y252264D01*
X399193D01*
X400219Y252539D01*
X401139Y253070D01*
X401891Y253821D01*
X402422Y254742D01*
X402697Y255768D01*
Y256831D01*
X402422Y257857D01*
X401891Y258777D01*
X401139Y259528D01*
X400219Y260060D01*
X400150Y260078D01*
Y268986D01*
X400031Y269586D01*
X399691Y270094D01*
X397417Y272368D01*
X396908Y272708D01*
X396308Y272827D01*
X383720D01*
X379346Y277202D01*
X379528Y277880D01*
Y278813D01*
X379286Y279714D01*
X378820Y280522D01*
X378160Y281182D01*
X377352Y281648D01*
X376451Y281890D01*
X375518D01*
X375461Y281874D01*
X355898Y301437D01*
Y325335D01*
X361560Y330996D01*
X361910Y330851D01*
Y330610D01*
X369354D01*
X369487Y330287D01*
X368945Y329744D01*
X361910D01*
Y327827D01*
X357159Y323077D01*
X356820Y322568D01*
X356700Y321969D01*
Y305906D01*
X356820Y305306D01*
X357159Y304797D01*
X372623Y289334D01*
X372441Y288655D01*
Y287722D01*
X372682Y286821D01*
X373149Y286013D01*
X373809Y285354D01*
X374617Y284887D01*
X375518Y284646D01*
X376451D01*
X377352Y284887D01*
X378160Y285354D01*
X378820Y286013D01*
X379286Y286821D01*
X379528Y287722D01*
Y288655D01*
X379286Y289557D01*
X378820Y290365D01*
X378160Y291024D01*
X377352Y291491D01*
X376451Y291732D01*
X375518D01*
X374839Y291550D01*
X359835Y306555D01*
Y321319D01*
X361397Y322881D01*
X361699Y322688D01*
X361579Y322087D01*
Y318209D01*
X360728D01*
Y313500D01*
X360516D01*
Y311630D01*
X366256D01*
Y313500D01*
X366505Y313745D01*
X367559D01*
X372441Y308863D01*
Y304331D01*
X379528D01*
Y311417D01*
X374995D01*
X369584Y316828D01*
X368998Y317220D01*
X368307Y317357D01*
X366043D01*
Y318209D01*
X365192D01*
Y320610D01*
X371161D01*
Y324744D01*
X363717D01*
X363583Y325067D01*
X364126Y325610D01*
X371161D01*
Y327527D01*
X397171Y353537D01*
X397511Y354046D01*
X397631Y354646D01*
Y369039D01*
X397908Y369252D01*
X398130Y369193D01*
X399193D01*
X400219Y369468D01*
X401139Y369999D01*
X401891Y370750D01*
X402422Y371671D01*
X402697Y372697D01*
Y373760D01*
X402422Y374786D01*
X401891Y375706D01*
X401139Y376458D01*
X400219Y376989D01*
X399193Y377264D01*
D02*
G37*
G36*
X372697D02*
X364626D01*
Y369193D01*
X372697D01*
Y377264D01*
D02*
G37*
G36*
X382791Y372228D02*
X379661D01*
Y369098D01*
X380301Y369270D01*
X381270Y369829D01*
X382061Y370620D01*
X382620Y371589D01*
X382791Y372228D01*
D02*
G37*
G36*
X377661D02*
X374532D01*
X374703Y371589D01*
X375262Y370620D01*
X376053Y369829D01*
X377022Y369270D01*
X377661Y369098D01*
Y372228D01*
D02*
G37*
G36*
X377992Y359980D02*
X377126D01*
X376290Y359756D01*
X375540Y359324D01*
X374970Y358753D01*
X371161D01*
Y359744D01*
X361910D01*
Y355610D01*
X371161D01*
Y355617D01*
X374444D01*
X374496Y355424D01*
X374928Y354674D01*
X375540Y354062D01*
X376290Y353629D01*
X377126Y353405D01*
X377992D01*
X378828Y353629D01*
X379578Y354062D01*
X380190Y354674D01*
X380622Y355424D01*
X380847Y356260D01*
Y357126D01*
X380622Y357962D01*
X380190Y358711D01*
X379578Y359324D01*
X378828Y359756D01*
X377992Y359980D01*
D02*
G37*
G36*
X408579Y359957D02*
X404740D01*
Y358677D01*
X408579D01*
Y359957D01*
D02*
G37*
G36*
X402740D02*
X398902D01*
Y358677D01*
X402740D01*
Y359957D01*
D02*
G37*
G36*
X408579Y356677D02*
X404740D01*
Y355398D01*
X408579D01*
Y356677D01*
D02*
G37*
G36*
X402740D02*
X398902D01*
Y355398D01*
X402740D01*
Y356677D01*
D02*
G37*
G36*
X408366Y354744D02*
X399114D01*
Y350610D01*
X408366D01*
Y354744D01*
D02*
G37*
G36*
X371161D02*
X361910D01*
Y350610D01*
X371161D01*
Y354744D01*
D02*
G37*
G36*
X336358Y344035D02*
X335296D01*
X334269Y343760D01*
X333349Y343229D01*
X332598Y342478D01*
X332066Y341558D01*
X331791Y340531D01*
Y339469D01*
X332066Y338442D01*
X332598Y337522D01*
X333349Y336771D01*
X334269Y336240D01*
X335296Y335965D01*
X336358D01*
X337384Y336240D01*
X338305Y336771D01*
X339056Y337522D01*
X339587Y338442D01*
X339862Y339469D01*
Y340531D01*
X339587Y341558D01*
X339056Y342478D01*
X338305Y343229D01*
X337384Y343760D01*
X336358Y344035D01*
D02*
G37*
G36*
X454823Y343878D02*
X446752D01*
Y335807D01*
X454823D01*
Y343878D01*
D02*
G37*
G36*
X408579Y334957D02*
X404740D01*
Y333677D01*
X408579D01*
Y334957D01*
D02*
G37*
G36*
X402740D02*
X398902D01*
Y333677D01*
X402740D01*
Y334957D01*
D02*
G37*
G36*
X431118Y333283D02*
X429543D01*
Y331315D01*
X431118D01*
Y333283D01*
D02*
G37*
G36*
X427543D02*
X425969D01*
Y331315D01*
X427543D01*
Y333283D01*
D02*
G37*
G36*
X451787Y333973D02*
Y330842D01*
X454917D01*
X454746Y331482D01*
X454187Y332451D01*
X453396Y333242D01*
X452427Y333801D01*
X451787Y333973D01*
D02*
G37*
G36*
X449787D02*
X449148Y333801D01*
X448179Y333242D01*
X447388Y332451D01*
X446829Y331482D01*
X446658Y330842D01*
X449787D01*
Y333973D01*
D02*
G37*
G36*
X408579Y331677D02*
X404740D01*
Y330398D01*
X408579D01*
Y331677D01*
D02*
G37*
G36*
X402740D02*
X398902D01*
Y330398D01*
X402740D01*
Y331677D01*
D02*
G37*
G36*
X408579Y329957D02*
X404740D01*
Y328677D01*
X408579D01*
Y329957D01*
D02*
G37*
G36*
X402740D02*
X398902D01*
Y328677D01*
X402740D01*
Y329957D01*
D02*
G37*
G36*
X431118Y329315D02*
X429543D01*
Y327346D01*
X431118D01*
Y329315D01*
D02*
G37*
G36*
X427543D02*
X425969D01*
Y327346D01*
X427543D01*
Y329315D01*
D02*
G37*
G36*
X454917Y328842D02*
X451787D01*
Y325713D01*
X452427Y325884D01*
X453396Y326443D01*
X454187Y327234D01*
X454746Y328203D01*
X454917Y328842D01*
D02*
G37*
G36*
X449787D02*
X446658D01*
X446829Y328203D01*
X447388Y327234D01*
X448179Y326443D01*
X449148Y325884D01*
X449787Y325713D01*
Y328842D01*
D02*
G37*
G36*
X408579Y326677D02*
X404740D01*
Y325398D01*
X408579D01*
Y326677D01*
D02*
G37*
G36*
X402740D02*
X398902D01*
Y325398D01*
X402740D01*
Y326677D01*
D02*
G37*
G36*
X408579Y324957D02*
X404740D01*
Y323677D01*
X408579D01*
Y324957D01*
D02*
G37*
G36*
X402740D02*
X398902D01*
Y323677D01*
X402740D01*
Y324957D01*
D02*
G37*
G36*
X408579Y321677D02*
X404740D01*
Y320398D01*
X408579D01*
Y321677D01*
D02*
G37*
G36*
X402740D02*
X398902D01*
Y320398D01*
X402740D01*
Y321677D01*
D02*
G37*
G36*
X408366Y349744D02*
X399114D01*
Y345610D01*
X408366D01*
Y346110D01*
X420178D01*
X437792Y328495D01*
X437657Y327992D01*
Y327126D01*
X437882Y326290D01*
X438314Y325540D01*
X438709Y325146D01*
X438564Y324796D01*
X435722D01*
X435122Y324676D01*
X434614Y324337D01*
X432043Y321766D01*
X431703Y321258D01*
X431584Y320658D01*
Y317150D01*
X430835Y316401D01*
X430512Y316535D01*
Y318701D01*
Y322244D01*
X427575D01*
Y322457D01*
X426591D01*
Y320472D01*
X424591D01*
Y322457D01*
X424107D01*
Y327559D01*
X425000D01*
Y333071D01*
X422099D01*
X416384Y338786D01*
X415875Y339125D01*
X415276Y339245D01*
X408366D01*
Y339744D01*
X400922D01*
X400788Y340068D01*
X401331Y340610D01*
X408366D01*
Y344744D01*
X399114D01*
Y342827D01*
X385506Y329219D01*
X385166Y328710D01*
X385047Y328110D01*
Y302127D01*
X385166Y301527D01*
X385506Y301019D01*
X390559Y295966D01*
Y285568D01*
X390107Y285308D01*
X389495Y284696D01*
X389063Y283946D01*
X388839Y283110D01*
Y282244D01*
X389063Y281408D01*
X389495Y280659D01*
X390107Y280047D01*
X390857Y279614D01*
X391693Y279390D01*
X392559D01*
X393395Y279614D01*
X394145Y280047D01*
X394757Y280659D01*
X395189Y281408D01*
X395413Y282244D01*
Y283110D01*
X395189Y283946D01*
X394757Y284696D01*
X394145Y285308D01*
X393693Y285568D01*
Y296615D01*
X393574Y297215D01*
X393234Y297724D01*
X388182Y302776D01*
Y327461D01*
X398791Y338070D01*
X399114Y337936D01*
Y335610D01*
X408366D01*
Y336110D01*
X414626D01*
X420276Y330460D01*
Y327559D01*
X420972D01*
Y322244D01*
X420669D01*
Y319307D01*
X420457D01*
Y318323D01*
X422441D01*
Y316323D01*
X420457D01*
Y315339D01*
Y315173D01*
X422441D01*
Y313173D01*
X420457D01*
Y312189D01*
Y312024D01*
X422441D01*
Y310024D01*
X420457D01*
Y309039D01*
X420669D01*
Y308049D01*
X420635Y307874D01*
Y302264D01*
X420772Y301572D01*
X421164Y300987D01*
X422441Y299709D01*
Y297869D01*
X419603D01*
X419574Y297979D01*
X419141Y298728D01*
X418529Y299341D01*
X417780Y299773D01*
X416944Y299997D01*
X416078D01*
X415242Y299773D01*
X414492Y299341D01*
X413880Y298728D01*
X413447Y297979D01*
X413223Y297143D01*
Y296277D01*
X413287Y296041D01*
X408959Y291713D01*
X408567Y291127D01*
X408430Y290435D01*
Y264724D01*
X408567Y264033D01*
X408959Y263447D01*
X414626Y257780D01*
Y252264D01*
X422697D01*
Y260335D01*
X417181D01*
X412043Y265473D01*
Y289687D01*
X415841Y293486D01*
X416078Y293423D01*
X416944D01*
X417780Y293647D01*
X418529Y294079D01*
X418707Y294257D01*
X422086D01*
X422694Y293649D01*
Y292923D01*
X422780Y292489D01*
X423026Y292122D01*
X423394Y291876D01*
X423828Y291789D01*
X425778D01*
X426212Y291876D01*
X426580Y292122D01*
X426826Y292489D01*
X426912Y292923D01*
Y295266D01*
X426826Y295700D01*
X426757Y295803D01*
Y296949D01*
X427150D01*
Y296736D01*
X428526D01*
X428632Y296386D01*
X428385Y296221D01*
X428092Y295782D01*
X427989Y295266D01*
Y295094D01*
X430315D01*
X432641D01*
Y295266D01*
X432538Y295782D01*
X432245Y296221D01*
X431998Y296386D01*
X432104Y296736D01*
X432890D01*
Y298606D01*
X430020D01*
Y299606D01*
X429020D01*
Y302476D01*
X428439D01*
X428305Y302800D01*
X430018Y304513D01*
X430409Y305099D01*
X430547Y305790D01*
Y307874D01*
X430512Y308049D01*
Y309653D01*
X434624D01*
X434771Y309399D01*
X435383Y308787D01*
X435834Y308526D01*
Y295925D01*
X432991Y293082D01*
X432960Y293094D01*
X430315D01*
X427989D01*
Y292923D01*
X428092Y292406D01*
X428385Y291968D01*
X428823Y291675D01*
X429340Y291572D01*
X430987D01*
X431132Y291223D01*
X429272Y289363D01*
X421583D01*
X420983Y289244D01*
X420820Y289134D01*
X420560Y289284D01*
X419724Y289508D01*
X418859D01*
X418022Y289284D01*
X417273Y288851D01*
X416661Y288239D01*
X416228Y287489D01*
X416004Y286653D01*
Y285788D01*
X416228Y284952D01*
X416661Y284202D01*
X417273Y283590D01*
X418022Y283157D01*
X418859Y282933D01*
X419724D01*
X420560Y283157D01*
X421310Y283590D01*
X421922Y284202D01*
X422355Y284952D01*
X422579Y285788D01*
Y286228D01*
X429921D01*
X430521Y286347D01*
X431030Y286687D01*
X438510Y294167D01*
X438850Y294676D01*
X438969Y295276D01*
Y308526D01*
X439420Y308787D01*
X440032Y309399D01*
X440465Y310148D01*
X440689Y310984D01*
Y311850D01*
X440465Y312686D01*
X440032Y313436D01*
X439420Y314048D01*
X438670Y314481D01*
X437834Y314705D01*
X436969D01*
X436133Y314481D01*
X435383Y314048D01*
X434771Y313436D01*
X434397Y312788D01*
X432109D01*
X432006Y313138D01*
X434260Y315392D01*
X434600Y315900D01*
X434708Y316447D01*
X434859Y316533D01*
X435069Y316581D01*
X435383Y316267D01*
X436133Y315834D01*
X436969Y315610D01*
X437834D01*
X438337Y315745D01*
X441346Y312737D01*
Y304479D01*
X441465Y303879D01*
X441805Y303370D01*
X443645Y301530D01*
X444154Y301190D01*
X444754Y301071D01*
X446592D01*
X446852Y300749D01*
X446752Y300374D01*
Y299311D01*
X447027Y298285D01*
X447558Y297365D01*
X448310Y296613D01*
X449230Y296082D01*
X450256Y295807D01*
X451319D01*
X452345Y296082D01*
X453265Y296613D01*
X454017Y297365D01*
X454548Y298285D01*
X454823Y299311D01*
Y300374D01*
X454548Y301400D01*
X454017Y302320D01*
X453265Y303072D01*
X452345Y303603D01*
X451319Y303878D01*
X450256D01*
X449230Y303603D01*
X448886Y303404D01*
X448543Y303747D01*
X448034Y304087D01*
X447435Y304206D01*
X445403D01*
X444481Y305128D01*
Y313386D01*
X444362Y313986D01*
X444022Y314494D01*
X440554Y317962D01*
X440689Y318465D01*
Y318909D01*
X441039Y319054D01*
X447665Y312427D01*
X447558Y312320D01*
X447027Y311400D01*
X446752Y310374D01*
Y309311D01*
X447027Y308285D01*
X447558Y307365D01*
X448310Y306613D01*
X449230Y306082D01*
X450256Y305807D01*
X451319D01*
X452345Y306082D01*
X453265Y306613D01*
X454017Y307365D01*
X454548Y308285D01*
X454823Y309311D01*
Y310374D01*
X454548Y311400D01*
X454017Y312320D01*
X453265Y313072D01*
X452345Y313603D01*
X451319Y313878D01*
X450648D01*
X448328Y316199D01*
X448542Y316479D01*
X449230Y316082D01*
X450256Y315807D01*
X451319D01*
X452345Y316082D01*
X453265Y316613D01*
X454017Y317365D01*
X454548Y318285D01*
X454823Y319311D01*
Y320374D01*
X454548Y321400D01*
X454017Y322320D01*
X453265Y323072D01*
X452345Y323603D01*
X451319Y323878D01*
X450256D01*
X449230Y323603D01*
X448310Y323072D01*
X447558Y322320D01*
X447027Y321400D01*
X446752Y320374D01*
Y319311D01*
X447027Y318285D01*
X447424Y317598D01*
X447144Y317383D01*
X440605Y323922D01*
X440750Y324272D01*
X441378D01*
X442214Y324496D01*
X442963Y324928D01*
X443575Y325540D01*
X444008Y326290D01*
X444232Y327126D01*
Y327992D01*
X444008Y328828D01*
X443575Y329578D01*
X442963Y330190D01*
X442214Y330622D01*
X441378Y330847D01*
X440512D01*
X440009Y330712D01*
X421935Y348786D01*
X421427Y349125D01*
X420827Y349245D01*
X408366D01*
Y349744D01*
D02*
G37*
G36*
X336358Y324035D02*
X335296D01*
X334269Y323760D01*
X333349Y323229D01*
X332598Y322478D01*
X332066Y321558D01*
X331791Y320531D01*
Y319469D01*
X332066Y318442D01*
X332598Y317522D01*
X333349Y316771D01*
X334269Y316240D01*
X335296Y315965D01*
X336358D01*
X337384Y316240D01*
X338305Y316771D01*
X339056Y317522D01*
X339587Y318442D01*
X339862Y319469D01*
Y320531D01*
X339587Y321558D01*
X339056Y322478D01*
X338305Y323229D01*
X337384Y323760D01*
X336358Y324035D01*
D02*
G37*
G36*
X366256Y309630D02*
X364386D01*
Y307760D01*
X366256D01*
Y309630D01*
D02*
G37*
G36*
X362386D02*
X360516D01*
Y307760D01*
X362386D01*
Y309630D01*
D02*
G37*
G36*
X336358Y314035D02*
X335296D01*
X334269Y313760D01*
X333349Y313229D01*
X332598Y312478D01*
X332066Y311558D01*
X331791Y310531D01*
Y309469D01*
X332066Y308442D01*
X332598Y307522D01*
X333349Y306771D01*
X334269Y306240D01*
X335296Y305965D01*
X336358D01*
X337384Y306240D01*
X338305Y306771D01*
X339056Y307522D01*
X339587Y308442D01*
X339862Y309469D01*
Y310531D01*
X339587Y311558D01*
X339056Y312478D01*
X338305Y313229D01*
X337384Y313760D01*
X336358Y314035D01*
D02*
G37*
G36*
X336827Y304130D02*
Y301000D01*
X339957D01*
X339785Y301640D01*
X339226Y302608D01*
X338435Y303399D01*
X337466Y303959D01*
X336827Y304130D01*
D02*
G37*
G36*
X334827Y304130D02*
X334187Y303959D01*
X333218Y303399D01*
X332428Y302608D01*
X331868Y301640D01*
X331697Y301000D01*
X334827D01*
Y304130D01*
D02*
G37*
G36*
X432890Y302476D02*
X431020D01*
Y300606D01*
X432890D01*
Y302476D01*
D02*
G37*
G36*
X376984Y301652D02*
Y299031D01*
X379605D01*
X379484Y299481D01*
X378990Y300338D01*
X378290Y301037D01*
X377434Y301531D01*
X376984Y301652D01*
D02*
G37*
G36*
X374984Y301652D02*
X374535Y301531D01*
X373678Y301037D01*
X372979Y300338D01*
X372484Y299481D01*
X372364Y299031D01*
X374984D01*
Y301652D01*
D02*
G37*
G36*
X334827Y299000D02*
X331697D01*
X331868Y298360D01*
X332428Y297392D01*
X333218Y296601D01*
X334187Y296041D01*
X334827Y295870D01*
Y299000D01*
D02*
G37*
G36*
X339957D02*
X336827D01*
Y295870D01*
X337466Y296041D01*
X338435Y296601D01*
X339226Y297392D01*
X339785Y298360D01*
X339957Y299000D01*
D02*
G37*
G36*
X374984Y297031D02*
X372364D01*
X372484Y296582D01*
X372979Y295725D01*
X373678Y295026D01*
X374535Y294532D01*
X374984Y294411D01*
Y297031D01*
D02*
G37*
G36*
X379605D02*
X376984D01*
Y294411D01*
X377434Y294532D01*
X378290Y295026D01*
X378990Y295725D01*
X379484Y296582D01*
X379605Y297031D01*
D02*
G37*
G36*
X451319Y293878D02*
X450256D01*
X449230Y293603D01*
X448310Y293072D01*
X447558Y292320D01*
X447027Y291400D01*
X446752Y290374D01*
Y289311D01*
X447027Y288285D01*
X447558Y287365D01*
X448310Y286613D01*
X449230Y286082D01*
X450256Y285807D01*
X451319D01*
X452345Y286082D01*
X453265Y286613D01*
X454017Y287365D01*
X454548Y288285D01*
X454823Y289311D01*
Y290374D01*
X454548Y291400D01*
X454017Y292320D01*
X453265Y293072D01*
X452345Y293603D01*
X451319Y293878D01*
D02*
G37*
G36*
X409661Y260429D02*
Y257299D01*
X412791D01*
X412620Y257939D01*
X412061Y258908D01*
X411270Y259699D01*
X410301Y260258D01*
X409661Y260429D01*
D02*
G37*
G36*
X407661D02*
X407022Y260258D01*
X406053Y259699D01*
X405262Y258908D01*
X404703Y257939D01*
X404531Y257299D01*
X407661D01*
Y260429D01*
D02*
G37*
G36*
X389193Y260335D02*
X388130D01*
X387104Y260060D01*
X386184Y259528D01*
X385432Y258777D01*
X384901Y257857D01*
X384626Y256831D01*
Y255768D01*
X384901Y254742D01*
X385432Y253821D01*
X386184Y253070D01*
X387104Y252539D01*
X388130Y252264D01*
X389193D01*
X390219Y252539D01*
X391139Y253070D01*
X391891Y253821D01*
X392422Y254742D01*
X392697Y255768D01*
Y256831D01*
X392422Y257857D01*
X391891Y258777D01*
X391139Y259528D01*
X390219Y260060D01*
X389193Y260335D01*
D02*
G37*
G36*
X379193D02*
X378130D01*
X377104Y260060D01*
X376184Y259528D01*
X375432Y258777D01*
X374901Y257857D01*
X374626Y256831D01*
Y255768D01*
X374901Y254742D01*
X375432Y253821D01*
X376184Y253070D01*
X377104Y252539D01*
X378130Y252264D01*
X379193D01*
X380219Y252539D01*
X381139Y253070D01*
X381891Y253821D01*
X382422Y254742D01*
X382697Y255768D01*
Y256831D01*
X382422Y257857D01*
X381891Y258777D01*
X381139Y259528D01*
X380219Y260060D01*
X379193Y260335D01*
D02*
G37*
G36*
X369193D02*
X368130D01*
X367104Y260060D01*
X366184Y259528D01*
X365432Y258777D01*
X364901Y257857D01*
X364626Y256831D01*
Y255768D01*
X364901Y254742D01*
X365432Y253821D01*
X366184Y253070D01*
X367104Y252539D01*
X368130Y252264D01*
X369193D01*
X370219Y252539D01*
X371139Y253070D01*
X371891Y253821D01*
X372422Y254742D01*
X372697Y255768D01*
Y256831D01*
X372422Y257857D01*
X371891Y258777D01*
X371139Y259528D01*
X370219Y260060D01*
X369193Y260335D01*
D02*
G37*
G36*
X412791Y255299D02*
X409661D01*
Y252169D01*
X410301Y252341D01*
X411270Y252900D01*
X412061Y253691D01*
X412620Y254660D01*
X412791Y255299D01*
D02*
G37*
G36*
X407661D02*
X404531D01*
X404703Y254660D01*
X405262Y253691D01*
X406053Y252900D01*
X407022Y252341D01*
X407661Y252169D01*
Y255299D01*
D02*
G37*
%LPD*%
D13*
X366535Y332677D02*
D03*
X403740Y347677D02*
D03*
X366535Y327677D02*
D03*
Y322677D02*
D03*
Y357677D02*
D03*
X403740Y332677D02*
D03*
Y322677D02*
D03*
Y327677D02*
D03*
Y357677D02*
D03*
Y337677D02*
D03*
Y342677D02*
D03*
Y352677D02*
D03*
X366535D02*
D03*
Y347677D02*
D03*
Y342677D02*
D03*
Y337677D02*
D03*
D14*
X428740Y314173D02*
D03*
Y307874D02*
D03*
X422441D02*
D03*
Y320472D02*
D03*
X428740Y311024D02*
D03*
X425591Y320472D02*
D03*
Y307874D02*
D03*
X422441Y311024D02*
D03*
Y317323D02*
D03*
Y314173D02*
D03*
X428740Y320472D02*
D03*
Y317323D02*
D03*
D15*
X425098Y299606D02*
D03*
X430020D02*
D03*
D16*
X424803Y294094D02*
D03*
X430315D02*
D03*
D17*
X363386Y315551D02*
D03*
Y310630D02*
D03*
D18*
X422638Y330315D02*
D03*
X428543D02*
D03*
D32*
X425197Y299705D02*
Y302246D01*
X428740Y305790D02*
Y307874D01*
X425197Y302246D02*
X428740Y305790D01*
X424951Y294242D02*
Y299459D01*
X424057Y294841D02*
X424803Y294094D01*
X422835Y296063D02*
X424057Y294841D01*
X335827Y292047D02*
X340079D01*
X410236Y264724D02*
Y290435D01*
X416511Y296710D01*
X410236Y264724D02*
X418661Y256299D01*
X422441Y302264D02*
Y307874D01*
Y302264D02*
X425098Y299606D01*
X416673Y296063D02*
X422835D01*
X363386Y315551D02*
X368307D01*
X363386D02*
Y322087D01*
X368307Y315551D02*
X375984Y307874D01*
X350000Y301969D02*
Y309055D01*
X340079Y292047D02*
X350000Y301969D01*
D33*
X425098Y299606D02*
X425197Y299705D01*
X425591Y317323D02*
Y320472D01*
X422441Y317323D02*
X425591D01*
Y314173D02*
Y317323D01*
X425591Y314173D02*
X425591Y314173D01*
X422441Y314173D02*
X425591D01*
Y311024D02*
X425591Y311024D01*
X422441Y311024D02*
X425591D01*
X425591Y311024D02*
Y314173D01*
Y307874D02*
Y311024D01*
X435722Y323228D02*
X439081D01*
X433152Y320658D02*
X435722Y323228D01*
X439081D02*
X449831Y312478D01*
Y310799D02*
Y312478D01*
X430824Y314173D02*
X433152Y316500D01*
X396063Y354646D02*
Y373228D01*
X433152Y316500D02*
Y320658D01*
X428740Y314173D02*
X430824D01*
X449831Y310799D02*
X450787Y309842D01*
X363976Y327677D02*
X366535D01*
X369094D02*
X396063Y354646D01*
X366535Y327677D02*
X369094D01*
X358268Y321969D02*
X363976Y327677D01*
X358268Y305906D02*
Y321969D01*
Y305906D02*
X375984Y288189D01*
X424951Y299459D02*
X425098Y299606D01*
X424057Y294841D02*
X424253D01*
X424803Y294094D02*
Y294291D01*
Y294094D02*
X424951Y294242D01*
X424253Y294841D02*
X424803Y294291D01*
X363976Y322677D02*
X366535D01*
X363386Y322087D02*
X363976Y322677D01*
X377067Y357185D02*
X377559Y356693D01*
X367028Y357185D02*
X377067D01*
X366535Y357677D02*
X367028Y357185D01*
X422539Y330217D02*
X422638Y330315D01*
X422539Y320571D02*
Y330217D01*
X422441Y320472D02*
X422539Y320571D01*
X422638Y330315D02*
Y330709D01*
X421813Y331534D02*
X422638Y330709D01*
X421419Y331534D02*
X421813D01*
X415276Y337677D02*
X421419Y331534D01*
X403740Y337677D02*
X415276D01*
X429921Y287795D02*
X437402Y295276D01*
X421583Y287795D02*
X429921D01*
X420008Y286221D02*
X421583Y287795D01*
X419291Y286221D02*
X420008D01*
X437205Y311221D02*
X437402Y311417D01*
X428937Y311221D02*
X437205D01*
X428740Y311024D02*
X428937Y311221D01*
X437402Y295276D02*
Y311417D01*
X398583Y256378D02*
Y268986D01*
Y256378D02*
X398661Y256299D01*
X386063Y349646D02*
Y373228D01*
X369094Y332677D02*
X386063Y349646D01*
X366535Y332677D02*
X369094D01*
X361024D02*
X366535D01*
X354331Y325984D02*
X361024Y332677D01*
X354331Y300787D02*
Y325984D01*
X375984Y278346D02*
X383071Y271260D01*
X396308D01*
X398583Y268986D01*
X354331Y300787D02*
X375984Y279134D01*
Y278346D02*
Y279134D01*
X356117Y331486D02*
X360271Y335641D01*
Y346352D01*
X335827Y332047D02*
X336388Y331486D01*
X356117D01*
X360271Y346352D02*
X361597Y347677D01*
X366535D01*
X442913Y304479D02*
X444754Y302639D01*
X442913Y304479D02*
Y313386D01*
X450231Y299843D02*
X450787D01*
X444754Y302639D02*
X447435D01*
X450231Y299843D01*
X420827Y347677D02*
X440945Y327559D01*
X403740Y347677D02*
X420827D01*
X437402Y318898D02*
X442913Y313386D01*
X386614Y328110D02*
X401181Y342677D01*
X386614Y302127D02*
X392126Y296615D01*
X386614Y302127D02*
Y328110D01*
X392126Y282677D02*
Y296615D01*
X401181Y342677D02*
X403740D01*
D34*
X398661Y373228D02*
D03*
X450787Y309842D02*
D03*
X335827Y320000D02*
D03*
X388661Y256299D02*
D03*
X408661Y373228D02*
D03*
X450787Y319843D02*
D03*
X388661Y373228D02*
D03*
X335827Y310000D02*
D03*
X398661Y256299D02*
D03*
X335827Y330000D02*
D03*
X450787Y299843D02*
D03*
X408661Y256299D02*
D03*
X378661Y373228D02*
D03*
X335827Y300000D02*
D03*
X450787Y329842D02*
D03*
X378661Y256299D02*
D03*
X368661D02*
D03*
X335827Y340000D02*
D03*
X450787Y289843D02*
D03*
X418661Y373228D02*
D03*
D35*
X375984Y288189D02*
D03*
Y278346D02*
D03*
Y298031D02*
D03*
D36*
X450787Y339843D02*
D03*
X335827Y290000D02*
D03*
D37*
X368661Y373228D02*
D03*
X418661Y256299D02*
D03*
D38*
X375984Y307874D02*
D03*
D39*
X377559Y323622D02*
D03*
X416511Y296710D02*
D03*
X350000Y309055D02*
D03*
X377559Y356693D02*
D03*
X419291Y286221D02*
D03*
X437402Y311417D02*
D03*
X440945Y327559D02*
D03*
X437402Y318898D02*
D03*
X416929Y342520D02*
D03*
X401575Y298819D02*
D03*
X412992Y324016D02*
D03*
X392126Y282677D02*
D03*
D40*
X437008Y354331D02*
D03*
X350394D02*
D03*
Y275590D02*
D03*
X435827Y272441D02*
D03*
M02*
