G04*
G04 #@! TF.GenerationSoftware,Altium Limited,Altium Designer,25.8.1 (18)*
G04*
G04 Layer_Color=255*
%FSLAX25Y25*%
%MOIN*%
G70*
G04*
G04 #@! TF.SameCoordinates,8B26A7FC-FD43-4694-A22A-0022FF1C5016*
G04*
G04*
G04 #@! TF.FilePolarity,Positive*
G04*
G01*
G75*
%ADD13R,0.07677X0.02559*%
%ADD14R,0.01968X0.01968*%
%ADD15R,0.03740X0.03740*%
G04:AMPARAMS|DCode=16|XSize=29.92mil|YSize=26mil|CornerRadius=3.25mil|HoleSize=0mil|Usage=FLASHONLY|Rotation=90.000|XOffset=0mil|YOffset=0mil|HoleType=Round|Shape=RoundedRectangle|*
%AMROUNDEDRECTD16*
21,1,0.02992,0.01950,0,0,90.0*
21,1,0.02342,0.02600,0,0,90.0*
1,1,0.00650,0.00975,0.01171*
1,1,0.00650,0.00975,-0.01171*
1,1,0.00650,-0.00975,-0.01171*
1,1,0.00650,-0.00975,0.01171*
%
%ADD16ROUNDEDRECTD16*%
%ADD17R,0.03740X0.03740*%
%ADD18R,0.03150X0.03937*%
%ADD34C,0.06496*%
%ADD35C,0.05512*%
%ADD36R,0.06496X0.06496*%
%ADD37R,0.06496X0.06496*%
%ADD38R,0.05512X0.05512*%
D13*
X366535Y332677D02*
D03*
X403740Y347677D02*
D03*
X366535Y327677D02*
D03*
Y322677D02*
D03*
Y357677D02*
D03*
X403740Y332677D02*
D03*
Y322677D02*
D03*
Y327677D02*
D03*
Y357677D02*
D03*
Y337677D02*
D03*
Y342677D02*
D03*
Y352677D02*
D03*
X366535D02*
D03*
Y347677D02*
D03*
Y342677D02*
D03*
Y337677D02*
D03*
D14*
X428740Y314173D02*
D03*
Y307874D02*
D03*
X422441D02*
D03*
Y320472D02*
D03*
X428740Y311024D02*
D03*
X425591Y320472D02*
D03*
Y307874D02*
D03*
X422441Y311024D02*
D03*
Y317323D02*
D03*
Y314173D02*
D03*
X428740Y320472D02*
D03*
Y317323D02*
D03*
D15*
X425098Y299606D02*
D03*
X430020D02*
D03*
D16*
X424803Y294094D02*
D03*
X430315D02*
D03*
D17*
X363386Y315551D02*
D03*
Y310630D02*
D03*
D18*
X422638Y330315D02*
D03*
X428543D02*
D03*
D34*
X398661Y373228D02*
D03*
X450787Y309842D02*
D03*
X335827Y320000D02*
D03*
X388661Y256299D02*
D03*
X408661Y373228D02*
D03*
X450787Y319843D02*
D03*
X388661Y373228D02*
D03*
X335827Y310000D02*
D03*
X398661Y256299D02*
D03*
X335827Y330000D02*
D03*
X450787Y299843D02*
D03*
X408661Y256299D02*
D03*
X378661Y373228D02*
D03*
X335827Y300000D02*
D03*
X450787Y329842D02*
D03*
X378661Y256299D02*
D03*
X368661D02*
D03*
X335827Y340000D02*
D03*
X450787Y289843D02*
D03*
X418661Y373228D02*
D03*
D35*
X375984Y288189D02*
D03*
Y278346D02*
D03*
Y298031D02*
D03*
D36*
X450787Y339843D02*
D03*
X335827Y290000D02*
D03*
D37*
X368661Y373228D02*
D03*
X418661Y256299D02*
D03*
D38*
X375984Y307874D02*
D03*
M02*
