G04*
G04 #@! TF.GenerationSoftware,Altium Limited,Altium Designer,25.8.1 (18)*
G04*
G04 Layer_Color=65535*
%FSLAX25Y25*%
%MOIN*%
G70*
G04*
G04 #@! TF.SameCoordinates,A6EE73D6-A97E-425F-8DD4-44423C1B3C0A*
G04*
G04*
G04 #@! TF.FilePolarity,Positive*
G04*
G01*
G75*
%ADD10C,0.00787*%
%ADD11C,0.00394*%
%ADD12C,0.01000*%
D10*
X419291Y308268D02*
G03*
X419291Y307480I0J-394D01*
G01*
D02*
G03*
X419291Y308268I0J394D01*
G01*
X371752Y319902D02*
X398524D01*
X371752D02*
Y360453D01*
X398524D01*
Y319902D02*
Y360453D01*
X399902Y320020D02*
X407579D01*
X363661Y251299D02*
X418661D01*
X363661D02*
Y261299D01*
X423661D01*
Y256299D02*
Y261299D01*
X330827Y290000D02*
Y345000D01*
X340827D01*
Y285000D02*
Y345000D01*
X335827Y285000D02*
X340827D01*
X455787Y284842D02*
Y339843D01*
X445787Y284842D02*
X455787D01*
X445787D02*
Y344843D01*
X450787D01*
X368661Y378228D02*
X423661D01*
Y368228D02*
Y378228D01*
X363661Y368228D02*
X423661D01*
X363661D02*
Y373228D01*
X427559Y292913D02*
Y295276D01*
D11*
X420866Y304724D02*
Y323622D01*
X430315D01*
Y304724D02*
Y323622D01*
X420866Y304724D02*
X430315D01*
D12*
X390370Y247457D02*
X391703Y248790D01*
X393036Y247457D01*
X394369D02*
X395702Y248790D01*
X397035Y247457D01*
X392339Y382102D02*
X393671Y383435D01*
X395004Y382102D01*
X459268Y313205D02*
Y317203D01*
X461267D01*
X461934Y316537D01*
Y315204D01*
X461267Y314538D01*
X459268D01*
X460601D02*
X461934Y313205D01*
X325410Y316416D02*
Y312417D01*
X328075D01*
X374622Y272170D02*
X375955Y273503D01*
X377288Y272170D01*
X378621Y274169D02*
X379954D01*
X379287D01*
Y270170D01*
X378621D01*
X379954D01*
X384619D02*
X381953D01*
X384619Y272836D01*
Y273503D01*
X383952Y274169D01*
X382620D01*
X381953Y273503D01*
X388617D02*
X387951Y274169D01*
X386618D01*
X385952Y273503D01*
Y270837D01*
X386618Y270170D01*
X387951D01*
X388617Y270837D01*
X389950Y269504D02*
X392616D01*
X396615Y273503D02*
X395949Y274169D01*
X394616D01*
X393949Y273503D01*
Y272836D01*
X394616Y272170D01*
X395949D01*
X396615Y271503D01*
Y270837D01*
X395949Y270170D01*
X394616D01*
X393949Y270837D01*
X400614Y273503D02*
X399947Y274169D01*
X398614D01*
X397948Y273503D01*
Y270837D01*
X398614Y270170D01*
X399947D01*
X400614Y270837D01*
X401947Y274169D02*
Y270170D01*
X404612D01*
X381709Y290311D02*
X383042D01*
X382375D01*
Y286312D01*
X381709D01*
X383042D01*
X387707D02*
X385041D01*
X387707Y288978D01*
Y289644D01*
X387040Y290311D01*
X385707D01*
X385041Y289644D01*
X391705D02*
X391039Y290311D01*
X389706D01*
X389040Y289644D01*
Y286979D01*
X389706Y286312D01*
X391039D01*
X391705Y286979D01*
X393038Y285646D02*
X395704D01*
X399703Y289644D02*
X399036Y290311D01*
X397704D01*
X397037Y289644D01*
Y288978D01*
X397704Y288312D01*
X399036D01*
X399703Y287645D01*
Y286979D01*
X399036Y286312D01*
X397704D01*
X397037Y286979D01*
X401036Y290311D02*
Y286312D01*
X403035D01*
X403702Y286979D01*
Y289644D01*
X403035Y290311D01*
X401036D01*
X405034Y286312D02*
Y288978D01*
X406367Y290311D01*
X407700Y288978D01*
Y286312D01*
Y288312D01*
X405034D01*
X383981Y298820D02*
X383314Y299487D01*
X381981D01*
X381315Y298820D01*
Y296155D01*
X381981Y295488D01*
X383314D01*
X383981Y296155D01*
Y297487D01*
X382648D01*
X385314Y295488D02*
Y299487D01*
X387980Y295488D01*
Y299487D01*
X389312D02*
Y295488D01*
X391312D01*
X391978Y296155D01*
Y298820D01*
X391312Y299487D01*
X389312D01*
X380921Y309329D02*
Y306664D01*
X382254Y305331D01*
X383587Y306664D01*
Y309329D01*
X387586Y308663D02*
X386919Y309329D01*
X385586D01*
X384920Y308663D01*
Y305997D01*
X385586Y305331D01*
X386919D01*
X387586Y305997D01*
X391584Y308663D02*
X390918Y309329D01*
X389585D01*
X388919Y308663D01*
Y305997D01*
X389585Y305331D01*
X390918D01*
X391584Y305997D01*
X392917Y308663D02*
X393584Y309329D01*
X394917D01*
X395583Y308663D01*
Y307997D01*
X394917Y307330D01*
X394250D01*
X394917D01*
X395583Y306664D01*
Y305997D01*
X394917Y305331D01*
X393584D01*
X392917Y305997D01*
X396916Y308663D02*
X397583Y309329D01*
X398916D01*
X399582Y308663D01*
Y307997D01*
X398916Y307330D01*
X398249D01*
X398916D01*
X399582Y306664D01*
Y305997D01*
X398916Y305331D01*
X397583D01*
X396916Y305997D01*
X359570Y267354D02*
X358237D01*
X358903D01*
Y264021D01*
X358237Y263355D01*
X357570D01*
X356904Y264021D01*
X363568Y267354D02*
X360903D01*
Y265354D01*
X362236Y266021D01*
X362902D01*
X363568Y265354D01*
Y264021D01*
X362902Y263355D01*
X361569D01*
X360903Y264021D01*
X414446Y362174D02*
X415779D01*
X415112D01*
Y365506D01*
X415779Y366173D01*
X416445D01*
X417112Y365506D01*
X413113Y362174D02*
X410447D01*
Y362840D01*
X413113Y365506D01*
Y366173D01*
X348062Y316729D02*
Y318062D01*
Y317396D01*
X344730D01*
X344064Y318062D01*
Y318729D01*
X344730Y319395D01*
X347396Y315396D02*
X348062Y314730D01*
Y313397D01*
X347396Y312731D01*
X346729D01*
X346063Y313397D01*
Y314064D01*
Y313397D01*
X345396Y312731D01*
X344730D01*
X344064Y313397D01*
Y314730D01*
X344730Y315396D01*
X438158Y338976D02*
Y337644D01*
Y338310D01*
X441490D01*
X442157Y337644D01*
Y336977D01*
X441490Y336311D01*
X442157Y340309D02*
Y341642D01*
Y340976D01*
X438158D01*
X438825Y340309D01*
X420290Y340914D02*
Y344913D01*
X422289D01*
X422956Y344246D01*
Y342913D01*
X422289Y342247D01*
X420290D01*
X421623D02*
X422956Y340914D01*
X426954D02*
X424289D01*
X426954Y343580D01*
Y344246D01*
X426288Y344913D01*
X424955D01*
X424289Y344246D01*
X419805Y339007D02*
X421138D01*
X420471D01*
Y335009D01*
X419805D01*
X421138D01*
X425803Y338341D02*
X425136Y339007D01*
X423804D01*
X423137Y338341D01*
Y335675D01*
X423804Y335009D01*
X425136D01*
X425803Y335675D01*
X427136Y338341D02*
X427802Y339007D01*
X429135D01*
X429802Y338341D01*
Y337674D01*
X429135Y337008D01*
X428469D01*
X429135D01*
X429802Y336341D01*
Y335675D01*
X429135Y335009D01*
X427802D01*
X427136Y335675D01*
X414992Y356967D02*
Y355634D01*
Y356300D01*
X410993D01*
Y356967D01*
Y355634D01*
X414325Y350969D02*
X414992Y351635D01*
Y352968D01*
X414325Y353635D01*
X411659D01*
X410993Y352968D01*
Y351635D01*
X411659Y350969D01*
X410993Y346970D02*
Y349636D01*
X413659Y346970D01*
X414325D01*
X414992Y347637D01*
Y348970D01*
X414325Y349636D01*
X437947Y301060D02*
X438614Y301727D01*
Y303060D01*
X437947Y303726D01*
X435281D01*
X434615Y303060D01*
Y301727D01*
X435281Y301060D01*
X434615Y297728D02*
X438614D01*
X436614Y299727D01*
Y297061D01*
X429800Y287250D02*
X430467Y286583D01*
X431800D01*
X432466Y287250D01*
Y289916D01*
X431800Y290582D01*
X430467D01*
X429800Y289916D01*
X425802Y286583D02*
X428467D01*
Y288583D01*
X427135Y287916D01*
X426468D01*
X425802Y288583D01*
Y289916D01*
X426468Y290582D01*
X427801D01*
X428467Y289916D01*
X355754Y312719D02*
X355087Y312053D01*
Y310720D01*
X355754Y310054D01*
X358419D01*
X359086Y310720D01*
Y312053D01*
X358419Y312719D01*
X359086Y316718D02*
Y314052D01*
X356420Y316718D01*
X355754D01*
X355087Y316052D01*
Y314719D01*
X355754Y314052D01*
M02*
