G04*
G04 #@! TF.GenerationSoftware,Altium Limited,Altium Designer,25.8.1 (18)*
G04*
G04 Layer_Color=255*
%FSLAX25Y25*%
%MOIN*%
G70*
G04*
G04 #@! TF.SameCoordinates,E2154C79-DA77-42C2-A4CA-17832CE20963*
G04*
G04*
G04 #@! TF.FilePolarity,Positive*
G04*
G01*
G75*
%ADD13R,0.03740X0.03740*%
%ADD14R,0.03937X0.03150*%
%ADD15R,0.01968X0.01968*%
%ADD23R,0.06496X0.06496*%
%ADD24C,0.06496*%
D13*
X118673Y147846D02*
D03*
Y142925D02*
D03*
X145500Y120461D02*
D03*
Y115539D02*
D03*
D14*
X149606Y139961D02*
D03*
Y145866D02*
D03*
X114567Y117520D02*
D03*
Y123425D02*
D03*
D15*
X127374Y145535D02*
D03*
X130524D02*
D03*
X133673D02*
D03*
X136823D02*
D03*
X139972D02*
D03*
Y142386D02*
D03*
Y139236D02*
D03*
X136823D02*
D03*
X133673D02*
D03*
X130524D02*
D03*
X127374D02*
D03*
Y142386D02*
D03*
X133650Y124150D02*
D03*
X124201Y117850D02*
D03*
X130500Y124150D02*
D03*
X136799Y121000D02*
D03*
Y124150D02*
D03*
X127350D02*
D03*
X124201D02*
D03*
Y121000D02*
D03*
X127350Y117850D02*
D03*
X130500D02*
D03*
X133650D02*
D03*
X136799D02*
D03*
D23*
X107673Y157386D02*
D03*
X156500Y106000D02*
D03*
D24*
X117673Y157386D02*
D03*
X127673D02*
D03*
X137673D02*
D03*
X147673D02*
D03*
X157673D02*
D03*
X106500Y106000D02*
D03*
X116500D02*
D03*
X126500D02*
D03*
X136500D02*
D03*
X146500D02*
D03*
M02*
