G04*
G04 #@! TF.GenerationSoftware,Altium Limited,Altium Designer,25.8.1 (18)*
G04*
G04 Layer_Color=2752767*
%FSLAX25Y25*%
%MOIN*%
G70*
G04*
G04 #@! TF.SameCoordinates,2A85CF93-FDF8-457D-93DF-B0FC480E17F4*
G04*
G04*
G04 #@! TF.FilePolarity,Positive*
G04*
G01*
G75*
%ADD27C,0.00500*%
%ADD28C,0.00667*%
D27*
X105673Y155386D02*
Y159386D01*
X109673D01*
Y155386D01*
X105673D01*
X115673D02*
Y159386D01*
X119673D01*
Y155386D01*
X115673D01*
X125673D02*
Y159386D01*
X129673D01*
Y155386D01*
X125673D01*
X135673D02*
Y159386D01*
X139673D01*
Y155386D01*
X135673D01*
X145673D02*
Y159386D01*
X149673D01*
Y155386D01*
X145673D01*
X155673D02*
Y159386D01*
X159673D01*
Y155386D01*
X155673D01*
X104500Y104000D02*
Y108000D01*
X108500D01*
Y104000D01*
X104500D01*
X114500D02*
Y108000D01*
X118500D01*
Y104000D01*
X114500D01*
X124500D02*
Y108000D01*
X128500D01*
Y104000D01*
X124500D01*
X134500D02*
Y108000D01*
X138500D01*
Y104000D01*
X134500D01*
X144500D02*
Y108000D01*
X148500D01*
Y104000D01*
X144500D01*
X154500D02*
Y108000D01*
X158500D01*
Y104000D01*
X154500D01*
D28*
X162236Y135827D02*
G03*
X162236Y135827I-2000J0D01*
G01*
X116173Y137402D02*
G03*
X116173Y137402I-2000J0D01*
G01*
X152000Y125984D02*
G03*
X152000Y125984I-2000J0D01*
G01*
X105937Y127559D02*
G03*
X105937Y127559I-2000J0D01*
G01*
M02*
