G04*
G04 #@! TF.GenerationSoftware,Altium Limited,Altium Designer,25.8.1 (18)*
G04*
G04 Layer_Color=65535*
%FSLAX25Y25*%
%MOIN*%
G70*
G04*
G04 #@! TF.SameCoordinates,E2154C79-DA77-42C2-A4CA-17832CE20963*
G04*
G04*
G04 #@! TF.FilePolarity,Positive*
G04*
G01*
G75*
%ADD10C,0.00787*%
%ADD11C,0.01000*%
%ADD12C,0.00394*%
D10*
X127768Y148685D02*
G03*
X126980Y148685I-394J0D01*
G01*
D02*
G03*
X127768Y148685I394J0D01*
G01*
X137193Y114701D02*
G03*
X136406Y114701I-394J0D01*
G01*
D02*
G03*
X137193Y114701I394J0D01*
G01*
X107673Y162386D02*
X162673D01*
Y152386D02*
Y162386D01*
X102673Y152386D02*
X162673D01*
X102673D02*
Y157386D01*
X161500Y106000D02*
Y111000D01*
X101500D02*
X161500D01*
X101500Y101000D02*
Y111000D01*
Y101000D02*
X156500D01*
D11*
X100000Y131890D02*
X164567D01*
X153119Y145064D02*
X157117D01*
Y143065D01*
X156451Y142399D01*
X155118D01*
X154452Y143065D01*
Y145064D01*
Y143732D02*
X153119Y142399D01*
Y139067D02*
X157117D01*
X155118Y141066D01*
Y138400D01*
X159722Y146819D02*
X161055D01*
X160388D01*
Y150152D01*
X161055Y150818D01*
X161721D01*
X162387Y150152D01*
X155723Y146819D02*
X157056Y147486D01*
X158389Y148819D01*
Y150152D01*
X157722Y150818D01*
X156389D01*
X155723Y150152D01*
Y149485D01*
X156389Y148819D01*
X158389D01*
X104300Y138309D02*
Y139642D01*
Y138975D01*
X108299D01*
Y138309D01*
Y139642D01*
X104966Y144307D02*
X104300Y143640D01*
Y142307D01*
X104966Y141641D01*
X107632D01*
X108299Y142307D01*
Y143640D01*
X107632Y144307D01*
X104300Y148305D02*
Y145640D01*
X106299D01*
X105633Y146973D01*
Y147639D01*
X106299Y148305D01*
X107632D01*
X108299Y147639D01*
Y146306D01*
X107632Y145640D01*
X111266Y145790D02*
X110599Y145124D01*
Y143791D01*
X111266Y143124D01*
X113931D01*
X114598Y143791D01*
Y145124D01*
X113931Y145790D01*
X110599Y149789D02*
X111266Y148456D01*
X112598Y147123D01*
X113931D01*
X114598Y147790D01*
Y149123D01*
X113931Y149789D01*
X113265D01*
X112598Y149123D01*
Y147123D01*
X109480Y117928D02*
X105481D01*
Y119927D01*
X106147Y120593D01*
X107480D01*
X108147Y119927D01*
Y117928D01*
Y119261D02*
X109480Y120593D01*
X105481Y124592D02*
Y121926D01*
X107480D01*
X106814Y123259D01*
Y123926D01*
X107480Y124592D01*
X108813D01*
X109480Y123926D01*
Y122593D01*
X108813Y121926D01*
X104058Y116566D02*
X102725D01*
X103392D01*
Y113234D01*
X102725Y112568D01*
X102059D01*
X101392Y113234D01*
X105391Y115900D02*
X106057Y116566D01*
X107390D01*
X108057Y115900D01*
Y115233D01*
X107390Y114567D01*
X108057Y113900D01*
Y113234D01*
X107390Y112568D01*
X106057D01*
X105391Y113234D01*
Y113900D01*
X106057Y114567D01*
X105391Y115233D01*
Y115900D01*
X106057Y114567D02*
X107390D01*
X161842Y126258D02*
Y124925D01*
Y125592D01*
X157843D01*
Y126258D01*
Y124925D01*
X161175Y120260D02*
X161842Y120927D01*
Y122259D01*
X161175Y122926D01*
X158510D01*
X157843Y122259D01*
Y120927D01*
X158510Y120260D01*
X161842Y116261D02*
X161175Y117594D01*
X159843Y118927D01*
X158510D01*
X157843Y118261D01*
Y116928D01*
X158510Y116261D01*
X159176D01*
X159843Y116928D01*
Y118927D01*
X153301Y118777D02*
X153968Y119443D01*
Y120776D01*
X153301Y121442D01*
X150636D01*
X149969Y120776D01*
Y119443D01*
X150636Y118777D01*
X153968Y117444D02*
Y114778D01*
X153301D01*
X150636Y117444D01*
X149969D01*
D12*
X124224Y147110D02*
X143122D01*
Y137661D02*
Y147110D01*
X124224Y137661D02*
X143122D01*
X124224D02*
Y147110D01*
X139949Y116276D02*
Y125724D01*
X121051D02*
X139949D01*
X121051Y116276D02*
Y125724D01*
Y116276D02*
X139949D01*
M02*
