G04*
G04 #@! TF.GenerationSoftware,Altium Limited,Altium Designer,25.8.1 (18)*
G04*
G04 Layer_Color=16711935*
%FSLAX25Y25*%
%MOIN*%
G70*
G04*
G04 #@! TF.SameCoordinates,E2154C79-DA77-42C2-A4CA-17832CE20963*
G04*
G04*
G04 #@! TF.FilePolarity,Positive*
G04*
G01*
G75*
%ADD10C,0.00787*%
%ADD12C,0.00394*%
D10*
X124224Y137661D02*
X143122D01*
Y147110D01*
X124224D02*
X143122D01*
X124224Y137661D02*
Y147110D01*
X139949Y116276D02*
Y125724D01*
X121051Y116276D02*
X139949D01*
X121051D02*
Y125724D01*
X139949D01*
D12*
X120445Y142039D02*
Y148732D01*
X116902Y142039D02*
Y148732D01*
X120445D01*
X116902Y142039D02*
X120445D01*
X147835Y139567D02*
X151378D01*
X147835Y146260D02*
X151378D01*
X147835Y139567D02*
Y146260D01*
X151378Y139567D02*
Y146260D01*
X102673Y162386D02*
X162673D01*
Y152386D02*
Y162386D01*
X102673Y152386D02*
X162673D01*
X102673D02*
Y162386D01*
X161500Y101000D02*
Y111000D01*
X101500D02*
X161500D01*
X101500Y101000D02*
Y111000D01*
Y101000D02*
X161500D01*
X112795Y117126D02*
Y123819D01*
X116339Y117126D02*
Y123819D01*
X112795Y117126D02*
X116339D01*
X112795Y123819D02*
X116339D01*
X143728Y121346D02*
X147272D01*
X143728Y114654D02*
X147272D01*
Y121346D01*
X143728Y114654D02*
Y121346D01*
M02*
