G04*
G04 #@! TF.GenerationSoftware,Altium Limited,Altium Designer,25.8.1 (18)*
G04*
G04 Layer_Color=8421504*
%FSLAX25Y25*%
%MOIN*%
G70*
G04*
G04 #@! TF.SameCoordinates,4631C722-686F-4E2B-9103-F4525CE58AF5*
G04*
G04*
G04 #@! TF.FilePolarity,Positive*
G04*
G01*
G75*
%ADD13R,0.07677X0.02559*%
%ADD14R,0.01968X0.01968*%
%ADD15R,0.03740X0.03740*%
G04:AMPARAMS|DCode=16|XSize=29.92mil|YSize=26mil|CornerRadius=3.25mil|HoleSize=0mil|Usage=FLASHONLY|Rotation=90.000|XOffset=0mil|YOffset=0mil|HoleType=Round|Shape=RoundedRectangle|*
%AMROUNDEDRECTD16*
21,1,0.02992,0.01950,0,0,90.0*
21,1,0.02342,0.02600,0,0,90.0*
1,1,0.00650,0.00975,0.01171*
1,1,0.00650,0.00975,-0.01171*
1,1,0.00650,-0.00975,-0.01171*
1,1,0.00650,-0.00975,0.01171*
%
%ADD16ROUNDEDRECTD16*%
%ADD17R,0.03740X0.03740*%
%ADD18R,0.03150X0.03937*%
D13*
X366535Y332677D02*
D03*
X403740Y347677D02*
D03*
X366535Y327677D02*
D03*
Y322677D02*
D03*
Y357677D02*
D03*
X403740Y332677D02*
D03*
Y322677D02*
D03*
Y327677D02*
D03*
Y357677D02*
D03*
Y337677D02*
D03*
Y342677D02*
D03*
Y352677D02*
D03*
X366535D02*
D03*
Y347677D02*
D03*
Y342677D02*
D03*
Y337677D02*
D03*
D14*
X428740Y314173D02*
D03*
Y307874D02*
D03*
X422441D02*
D03*
Y320472D02*
D03*
X428740Y311024D02*
D03*
X425591Y320472D02*
D03*
Y307874D02*
D03*
X422441Y311024D02*
D03*
Y317323D02*
D03*
Y314173D02*
D03*
X428740Y320472D02*
D03*
Y317323D02*
D03*
D15*
X425098Y299606D02*
D03*
X430020D02*
D03*
D16*
X424803Y294094D02*
D03*
X430315D02*
D03*
D17*
X363386Y315551D02*
D03*
Y310630D02*
D03*
D18*
X422638Y330315D02*
D03*
X428543D02*
D03*
M02*
