M48
;Layer_Color=9474304
;FILE_FORMAT=2:4
INCH
;TYPE=PLATED
T01F00S00C0.0280
T02F00S00C0.0354
T03F00S00C0.0433
T04F00S00C0.0866
%
T01
X035000Y030906
X040157Y029882
X041651Y029671
X041929Y028622
X039213Y028268
X043740Y031142
Y031890
X044094Y032756
X041299Y032402
X041693Y034252
X037756Y035669
Y032362
T02
X037598Y027835
Y028819
Y029803
Y030787
T03
X036866Y025630
X037866
X038866
X039866
X040866
X041866
X045079Y028984
Y029984
Y030984
X033583Y031000
Y030000
Y029000
Y032000
Y033000
Y034000
X036866Y037323
X037866
X038866
X039866
X040866
X041866
X045079Y033984
Y032984
Y031984
T04
X035039Y027559
X043583Y027244
X043701Y035433
X035039
M30
