G04*
G04 #@! TF.GenerationSoftware,Altium Limited,Altium Designer,25.8.1 (18)*
G04*
G04 Layer_Color=16711935*
%FSLAX25Y25*%
%MOIN*%
G70*
G04*
G04 #@! TF.SameCoordinates,4631C722-686F-4E2B-9103-F4525CE58AF5*
G04*
G04*
G04 #@! TF.FilePolarity,Negative*
G04*
G01*
G75*
%ADD25C,0.07296*%
%ADD26C,0.06312*%
%ADD27R,0.07296X0.07296*%
%ADD28R,0.07296X0.07296*%
%ADD29R,0.06312X0.06312*%
%ADD30C,0.05800*%
%ADD31C,0.16548*%
D25*
X398661Y373228D02*
D03*
X450787Y309842D02*
D03*
X335827Y320000D02*
D03*
X388661Y256299D02*
D03*
X408661Y373228D02*
D03*
X450787Y319843D02*
D03*
X388661Y373228D02*
D03*
X335827Y310000D02*
D03*
X398661Y256299D02*
D03*
X335827Y330000D02*
D03*
X450787Y299843D02*
D03*
X408661Y256299D02*
D03*
X378661Y373228D02*
D03*
X335827Y300000D02*
D03*
X450787Y329842D02*
D03*
X378661Y256299D02*
D03*
X368661D02*
D03*
X335827Y340000D02*
D03*
X450787Y289843D02*
D03*
X418661Y373228D02*
D03*
D26*
X375984Y288189D02*
D03*
Y278346D02*
D03*
Y298031D02*
D03*
D27*
X450787Y339843D02*
D03*
X335827Y290000D02*
D03*
D28*
X368661Y373228D02*
D03*
X418661Y256299D02*
D03*
D29*
X375984Y307874D02*
D03*
D30*
X377559Y323622D02*
D03*
X416511Y296710D02*
D03*
X350000Y309055D02*
D03*
X377559Y356693D02*
D03*
X419291Y286221D02*
D03*
X437402Y311417D02*
D03*
X440945Y327559D02*
D03*
X437402Y318898D02*
D03*
X416929Y342520D02*
D03*
X401575Y298819D02*
D03*
X412992Y324016D02*
D03*
X392126Y282677D02*
D03*
D31*
X437008Y354331D02*
D03*
X350394D02*
D03*
Y275590D02*
D03*
X435827Y272441D02*
D03*
M02*
