G04*
G04 #@! TF.GenerationSoftware,Altium Limited,Altium Designer,25.8.1 (18)*
G04*
G04 Layer_Color=255*
%FSLAX25Y25*%
%MOIN*%
G70*
G04*
G04 #@! TF.SameCoordinates,A6EE73D6-A97E-425F-8DD4-44423C1B3C0A*
G04*
G04*
G04 #@! TF.FilePolarity,Positive*
G04*
G01*
G75*
%ADD34C,0.06496*%
%ADD35C,0.05512*%
%ADD36R,0.06496X0.06496*%
%ADD37R,0.06496X0.06496*%
%ADD38R,0.05512X0.05512*%
D34*
X398661Y373228D02*
D03*
X450787Y309842D02*
D03*
X335827Y320000D02*
D03*
X388661Y256299D02*
D03*
X408661Y373228D02*
D03*
X450787Y319843D02*
D03*
X388661Y373228D02*
D03*
X335827Y310000D02*
D03*
X398661Y256299D02*
D03*
X335827Y330000D02*
D03*
X450787Y299843D02*
D03*
X408661Y256299D02*
D03*
X378661Y373228D02*
D03*
X335827Y300000D02*
D03*
X450787Y329842D02*
D03*
X378661Y256299D02*
D03*
X368661D02*
D03*
X335827Y340000D02*
D03*
X450787Y289843D02*
D03*
X418661Y373228D02*
D03*
D35*
X375984Y288189D02*
D03*
Y278346D02*
D03*
Y298031D02*
D03*
D36*
X450787Y339843D02*
D03*
X335827Y290000D02*
D03*
D37*
X368661Y373228D02*
D03*
X418661Y256299D02*
D03*
D38*
X375984Y307874D02*
D03*
M02*
