G04*
G04 #@! TF.GenerationSoftware,Altium Limited,Altium Designer,25.8.1 (18)*
G04*
G04 Layer_Physical_Order=2*
G04 Layer_Color=16711680*
%FSLAX25Y25*%
%MOIN*%
G70*
G04*
G04 #@! TF.SameCoordinates,4631C722-686F-4E2B-9103-F4525CE58AF5*
G04*
G04*
G04 #@! TF.FilePolarity,Positive*
G04*
G01*
G75*
%ADD32C,0.01968*%
%ADD33C,0.01500*%
%ADD34C,0.06496*%
%ADD35C,0.05512*%
%ADD36R,0.06496X0.06496*%
%ADD37R,0.06496X0.06496*%
%ADD38R,0.05512X0.05512*%
%ADD39C,0.05000*%
%ADD40C,0.15748*%
G36*
X400726Y386284D02*
X405375Y385672D01*
X409975Y384757D01*
X414505Y383543D01*
X418946Y382036D01*
X423279Y380241D01*
X427485Y378167D01*
X431547Y375822D01*
X435446Y373216D01*
X439167Y370361D01*
X442693Y367269D01*
X446009Y363953D01*
X449102Y360427D01*
X451957Y356706D01*
X454562Y352807D01*
X456907Y348745D01*
X458981Y344539D01*
X460776Y340206D01*
X462284Y335765D01*
X463497Y331235D01*
X464412Y326635D01*
X465025Y321985D01*
X465331Y317306D01*
Y312616D01*
X465025Y307936D01*
X464412Y303286D01*
X463497Y298686D01*
X462284Y294156D01*
X460776Y289715D01*
X458981Y285382D01*
X456907Y281176D01*
X454562Y277115D01*
X451957Y273215D01*
X449102Y269495D01*
X446009Y265968D01*
X442693Y262652D01*
X439167Y259560D01*
X435446Y256705D01*
X431547Y254099D01*
X427485Y251754D01*
X423279Y249680D01*
X418946Y247885D01*
X414505Y246378D01*
X409975Y245164D01*
X405375Y244249D01*
X400726Y243637D01*
X396046Y243330D01*
X391356D01*
X386676Y243637D01*
X382026Y244249D01*
X377427Y245164D01*
X372896Y246378D01*
X368456Y247885D01*
X364123Y249680D01*
X359916Y251754D01*
X355855Y254099D01*
X351955Y256705D01*
X348235Y259560D01*
X344708Y262652D01*
X341392Y265968D01*
X338300Y269495D01*
X335445Y273215D01*
X332839Y277115D01*
X330494Y281176D01*
X328420Y285382D01*
X326625Y289715D01*
X325118Y294156D01*
X323904Y298686D01*
X322989Y303286D01*
X322377Y307936D01*
X322070Y312616D01*
Y317306D01*
X322377Y321985D01*
X322989Y326635D01*
X323904Y331235D01*
X325118Y335765D01*
X326625Y340206D01*
X328420Y344539D01*
X330494Y348745D01*
X332839Y352807D01*
X335445Y356706D01*
X338300Y360427D01*
X341392Y363953D01*
X344709Y367269D01*
X348235Y370361D01*
X351955Y373216D01*
X355855Y375822D01*
X359916Y378167D01*
X364123Y380241D01*
X368455Y382036D01*
X372896Y383543D01*
X377427Y384757D01*
X382026Y385672D01*
X386676Y386284D01*
X391356Y386591D01*
X396046D01*
X400726Y386284D01*
D02*
G37*
%LPC*%
G36*
X379661Y377358D02*
Y374228D01*
X382791D01*
X382620Y374868D01*
X382061Y375837D01*
X381270Y376628D01*
X380301Y377187D01*
X379661Y377358D01*
D02*
G37*
G36*
X377661Y377358D02*
X377022Y377187D01*
X376053Y376628D01*
X375262Y375837D01*
X374703Y374868D01*
X374532Y374228D01*
X377661D01*
Y377358D01*
D02*
G37*
G36*
X409193Y377264D02*
X408130D01*
X407104Y376989D01*
X406184Y376458D01*
X405432Y375706D01*
X404901Y374786D01*
X404717Y374099D01*
X402949Y372331D01*
X402646Y372506D01*
X402697Y372697D01*
Y373760D01*
X402422Y374786D01*
X401891Y375706D01*
X401139Y376458D01*
X400219Y376989D01*
X399193Y377264D01*
X398130D01*
X397104Y376989D01*
X396184Y376458D01*
X395432Y375706D01*
X394901Y374786D01*
X394626Y373760D01*
Y372697D01*
X394901Y371671D01*
X395432Y370750D01*
X396184Y369999D01*
X397104Y369468D01*
X398130Y369193D01*
X399193D01*
X399384Y369244D01*
X399559Y368941D01*
X388878Y358260D01*
X380450D01*
X380190Y358711D01*
X379578Y359324D01*
X378828Y359756D01*
X377992Y359980D01*
X377126D01*
X376290Y359756D01*
X375540Y359324D01*
X374928Y358711D01*
X374496Y357962D01*
X374272Y357126D01*
Y356260D01*
X374496Y355424D01*
X374928Y354674D01*
X375540Y354062D01*
X376290Y353629D01*
X377126Y353405D01*
X377992D01*
X378828Y353629D01*
X379578Y354062D01*
X380190Y354674D01*
X380450Y355125D01*
X389528D01*
X390127Y355245D01*
X390636Y355585D01*
X405617Y370566D01*
X406184Y369999D01*
X407104Y369468D01*
X408130Y369193D01*
X409193D01*
X410219Y369468D01*
X411139Y369999D01*
X411891Y370750D01*
X412422Y371671D01*
X412697Y372697D01*
Y373760D01*
X412422Y374786D01*
X411891Y375706D01*
X411139Y376458D01*
X410219Y376989D01*
X409193Y377264D01*
D02*
G37*
G36*
X419193D02*
X418130D01*
X417104Y376989D01*
X416184Y376458D01*
X415432Y375706D01*
X414901Y374786D01*
X414626Y373760D01*
Y372697D01*
X414901Y371671D01*
X415432Y370750D01*
X416184Y369999D01*
X417104Y369468D01*
X418130Y369193D01*
X419193D01*
X420219Y369468D01*
X421139Y369999D01*
X421891Y370750D01*
X422422Y371671D01*
X422697Y372697D01*
Y373760D01*
X422422Y374786D01*
X421891Y375706D01*
X421139Y376458D01*
X420219Y376989D01*
X419193Y377264D01*
D02*
G37*
G36*
X389193D02*
X388130D01*
X387104Y376989D01*
X386184Y376458D01*
X385432Y375706D01*
X384901Y374786D01*
X384626Y373760D01*
Y372697D01*
X384901Y371671D01*
X385432Y370750D01*
X386184Y369999D01*
X387104Y369468D01*
X388130Y369193D01*
X389193D01*
X390219Y369468D01*
X391139Y369999D01*
X391891Y370750D01*
X392422Y371671D01*
X392697Y372697D01*
Y373760D01*
X392422Y374786D01*
X391891Y375706D01*
X391139Y376458D01*
X390219Y376989D01*
X389193Y377264D01*
D02*
G37*
G36*
X382791Y372228D02*
X379661D01*
Y369098D01*
X380301Y369270D01*
X381270Y369829D01*
X382061Y370620D01*
X382620Y371589D01*
X382791Y372228D01*
D02*
G37*
G36*
X377661D02*
X374532D01*
X374703Y371589D01*
X375262Y370620D01*
X376053Y369829D01*
X377022Y369270D01*
X377661Y369098D01*
Y372228D01*
D02*
G37*
G36*
X336358Y344035D02*
X335296D01*
X334269Y343760D01*
X333349Y343229D01*
X332598Y342478D01*
X332066Y341558D01*
X331791Y340531D01*
Y339469D01*
X332066Y338442D01*
X332598Y337522D01*
X333349Y336771D01*
X334269Y336240D01*
X335296Y335965D01*
X336358D01*
X337384Y336240D01*
X338305Y336771D01*
X339056Y337522D01*
X339587Y338442D01*
X339862Y339469D01*
Y340531D01*
X339587Y341558D01*
X339056Y342478D01*
X338305Y343229D01*
X337384Y343760D01*
X336358Y344035D01*
D02*
G37*
G36*
X372697Y377264D02*
X364626D01*
Y369193D01*
X366855D01*
Y343967D01*
X366993Y343275D01*
X367384Y342689D01*
X382446Y327628D01*
Y316890D01*
X376973Y311417D01*
X372441D01*
Y309680D01*
X353236D01*
X353063Y310324D01*
X352631Y311074D01*
X352018Y311686D01*
X351269Y312119D01*
X350433Y312343D01*
X349567D01*
X348731Y312119D01*
X347982Y311686D01*
X347369Y311074D01*
X346937Y310324D01*
X346713Y309488D01*
Y309044D01*
X346363Y308899D01*
X344079Y311183D01*
Y315363D01*
X343959Y315963D01*
X343620Y316471D01*
X339862Y320229D01*
Y320531D01*
X339587Y321558D01*
X339056Y322478D01*
X338305Y323229D01*
X337384Y323760D01*
X336358Y324035D01*
X335296D01*
X334269Y323760D01*
X333349Y323229D01*
X332598Y322478D01*
X332066Y321558D01*
X331791Y320531D01*
Y319469D01*
X332066Y318442D01*
X332598Y317522D01*
X333349Y316771D01*
X334269Y316240D01*
X335296Y315965D01*
X336358D01*
X337384Y316240D01*
X338305Y316771D01*
X338596Y317062D01*
X340944Y314714D01*
Y310534D01*
X341063Y309934D01*
X341403Y309425D01*
X363747Y287081D01*
X364256Y286741D01*
X364856Y286621D01*
X372798D01*
X373149Y286013D01*
X373809Y285354D01*
X374617Y284887D01*
X375518Y284646D01*
X376451D01*
X377352Y284887D01*
X378160Y285354D01*
X378820Y286013D01*
X379171Y286621D01*
X391975D01*
X392282Y286315D01*
X392137Y285965D01*
X391693D01*
X390857Y285740D01*
X390107Y285308D01*
X389495Y284696D01*
X389063Y283946D01*
X388839Y283110D01*
Y282244D01*
X389063Y281408D01*
X389495Y280659D01*
X390107Y280047D01*
X390559Y279786D01*
Y274035D01*
X378279Y261756D01*
X377939Y261247D01*
X377820Y260647D01*
Y260251D01*
X377104Y260060D01*
X376184Y259528D01*
X375432Y258777D01*
X374901Y257857D01*
X374626Y256831D01*
Y255768D01*
X374901Y254742D01*
X375432Y253821D01*
X376184Y253070D01*
X377104Y252539D01*
X378130Y252264D01*
X379193D01*
X380219Y252539D01*
X381139Y253070D01*
X381891Y253821D01*
X382422Y254742D01*
X382697Y255768D01*
Y256831D01*
X382422Y257857D01*
X381891Y258777D01*
X381139Y259528D01*
X380955Y259635D01*
Y259998D01*
X393234Y272277D01*
X393574Y272786D01*
X393693Y273386D01*
Y279786D01*
X394145Y280047D01*
X394459Y280361D01*
X394809Y280216D01*
Y264663D01*
X390208Y260063D01*
X389193Y260335D01*
X388130D01*
X387104Y260060D01*
X386184Y259528D01*
X385432Y258777D01*
X384901Y257857D01*
X384626Y256831D01*
Y255768D01*
X384901Y254742D01*
X385432Y253821D01*
X386184Y253070D01*
X387104Y252539D01*
X388130Y252264D01*
X389193D01*
X390219Y252539D01*
X391139Y253070D01*
X391891Y253821D01*
X392422Y254742D01*
X392697Y255768D01*
Y256831D01*
X392425Y257846D01*
X397484Y262905D01*
X397824Y263414D01*
X397943Y264014D01*
Y280137D01*
X408082D01*
X408682Y280256D01*
X409191Y280596D01*
X415786Y287191D01*
X416099Y287010D01*
X416004Y286653D01*
Y285788D01*
X416228Y284952D01*
X416661Y284202D01*
X417236Y283626D01*
X414246Y280636D01*
X413906Y280127D01*
X413787Y279528D01*
Y273641D01*
X400208Y260063D01*
X399193Y260335D01*
X398130D01*
X397104Y260060D01*
X396184Y259528D01*
X395432Y258777D01*
X394901Y257857D01*
X394626Y256831D01*
Y255768D01*
X394901Y254742D01*
X395432Y253821D01*
X396184Y253070D01*
X397104Y252539D01*
X398130Y252264D01*
X399193D01*
X400219Y252539D01*
X401139Y253070D01*
X401891Y253821D01*
X402422Y254742D01*
X402697Y255768D01*
Y256831D01*
X402425Y257846D01*
X416463Y271884D01*
X416803Y272392D01*
X416922Y272992D01*
Y278878D01*
X420157Y282114D01*
X420497Y282622D01*
X420609Y283185D01*
X421310Y283590D01*
X421922Y284202D01*
X422355Y284952D01*
X422579Y285788D01*
Y286653D01*
X422355Y287489D01*
X421922Y288239D01*
X421310Y288851D01*
X420560Y289284D01*
X419724Y289508D01*
X418859D01*
X418502Y289412D01*
X418321Y289726D01*
X420334Y291740D01*
X427953D01*
X428553Y291859D01*
X429061Y292199D01*
X433563Y296700D01*
X435039D01*
X435639Y296819D01*
X436148Y297159D01*
X441870Y302881D01*
X445394D01*
X445994Y303001D01*
X446502Y303340D01*
X449241Y306079D01*
X450256Y305807D01*
X451319D01*
X452345Y306082D01*
X453265Y306613D01*
X454017Y307365D01*
X454548Y308285D01*
X454823Y309311D01*
Y310374D01*
X454548Y311400D01*
X454017Y312320D01*
X453265Y313072D01*
X452345Y313603D01*
X451319Y313878D01*
X450256D01*
X449230Y313603D01*
X448310Y313072D01*
X447558Y312320D01*
X447027Y311400D01*
X446752Y310374D01*
Y309311D01*
X447024Y308296D01*
X444744Y306016D01*
X441221D01*
X440621Y305897D01*
X440112Y305557D01*
X434390Y299835D01*
X432913D01*
X432313Y299716D01*
X431805Y299376D01*
X427304Y294875D01*
X419685D01*
X419606Y294859D01*
X419402Y295143D01*
X419574Y295441D01*
X419798Y296277D01*
Y297143D01*
X419574Y297979D01*
X419141Y298728D01*
X418529Y299341D01*
X418317Y299463D01*
Y308991D01*
X437308Y327981D01*
X437657Y327836D01*
Y327126D01*
X437882Y326290D01*
X438314Y325540D01*
X438926Y324928D01*
X439377Y324668D01*
Y323090D01*
X438337Y322050D01*
X437834Y322185D01*
X436969D01*
X436133Y321961D01*
X435383Y321528D01*
X434771Y320916D01*
X434338Y320166D01*
X434114Y319330D01*
Y318465D01*
X434338Y317629D01*
X434771Y316879D01*
X435383Y316267D01*
X436133Y315834D01*
X436969Y315610D01*
X437834D01*
X438670Y315834D01*
X439420Y316267D01*
X440032Y316879D01*
X440465Y317629D01*
X440689Y318465D01*
Y319330D01*
X440554Y319833D01*
X442053Y321333D01*
X442393Y321841D01*
X442512Y322441D01*
Y324668D01*
X442963Y324928D01*
X443575Y325540D01*
X444008Y326290D01*
X444232Y327126D01*
Y327992D01*
X444008Y328828D01*
X443575Y329578D01*
X442963Y330190D01*
X442214Y330622D01*
X441378Y330847D01*
X440668D01*
X440523Y331196D01*
X446429Y337102D01*
X446752Y336968D01*
Y335807D01*
X454823D01*
Y343878D01*
X446752D01*
Y342535D01*
X415233Y311016D01*
X414842Y310430D01*
X414704Y309739D01*
Y300906D01*
X414381Y300772D01*
X406002Y309151D01*
X405416Y309543D01*
X404724Y309680D01*
X380802D01*
X380669Y310004D01*
X385529Y314864D01*
X385921Y315451D01*
X386058Y316142D01*
Y328376D01*
X385921Y329067D01*
X385529Y329653D01*
X370468Y344715D01*
Y369193D01*
X372697D01*
Y377264D01*
D02*
G37*
G36*
X451787Y333973D02*
Y330842D01*
X454917D01*
X454746Y331482D01*
X454187Y332451D01*
X453396Y333242D01*
X452427Y333801D01*
X451787Y333973D01*
D02*
G37*
G36*
X449787D02*
X449148Y333801D01*
X448179Y333242D01*
X447388Y332451D01*
X446829Y331482D01*
X446658Y330842D01*
X449787D01*
Y333973D01*
D02*
G37*
G36*
X336358Y334035D02*
X335296D01*
X334269Y333760D01*
X333349Y333229D01*
X332598Y332478D01*
X332066Y331558D01*
X331791Y330531D01*
Y329469D01*
X332066Y328442D01*
X332598Y327522D01*
X333349Y326771D01*
X334269Y326240D01*
X335296Y325965D01*
X336358D01*
X337384Y326240D01*
X338305Y326771D01*
X339056Y327522D01*
X339587Y328442D01*
X339862Y329469D01*
Y330531D01*
X339587Y331558D01*
X339056Y332478D01*
X338305Y333229D01*
X337384Y333760D01*
X336358Y334035D01*
D02*
G37*
G36*
X454917Y328842D02*
X451787D01*
Y325713D01*
X452427Y325884D01*
X453396Y326443D01*
X454187Y327234D01*
X454746Y328203D01*
X454917Y328842D01*
D02*
G37*
G36*
X449787D02*
X446658D01*
X446829Y328203D01*
X447388Y327234D01*
X448179Y326443D01*
X449148Y325884D01*
X449787Y325713D01*
Y328842D01*
D02*
G37*
G36*
X451319Y323878D02*
X450256D01*
X449230Y323603D01*
X448310Y323072D01*
X447558Y322320D01*
X447027Y321400D01*
X446940Y321076D01*
X445492D01*
X444892Y320956D01*
X444384Y320616D01*
X438337Y314570D01*
X437834Y314705D01*
X436969D01*
X436133Y314481D01*
X435383Y314048D01*
X434771Y313436D01*
X434338Y312686D01*
X434114Y311850D01*
Y310984D01*
X434338Y310148D01*
X434771Y309399D01*
X435383Y308787D01*
X436133Y308354D01*
X436969Y308130D01*
X437834D01*
X438670Y308354D01*
X439420Y308787D01*
X440032Y309399D01*
X440465Y310148D01*
X440689Y310984D01*
Y311850D01*
X440554Y312353D01*
X446142Y317940D01*
X447226D01*
X447558Y317365D01*
X448310Y316613D01*
X449230Y316082D01*
X450256Y315807D01*
X451319D01*
X452345Y316082D01*
X453265Y316613D01*
X454017Y317365D01*
X454548Y318285D01*
X454823Y319311D01*
Y320374D01*
X454548Y321400D01*
X454017Y322320D01*
X453265Y323072D01*
X452345Y323603D01*
X451319Y323878D01*
D02*
G37*
G36*
X336827Y304130D02*
Y301000D01*
X339957D01*
X339785Y301640D01*
X339226Y302608D01*
X338435Y303399D01*
X337466Y303959D01*
X336827Y304130D01*
D02*
G37*
G36*
X334827Y304130D02*
X334187Y303959D01*
X333218Y303399D01*
X332428Y302608D01*
X331868Y301640D01*
X331697Y301000D01*
X334827D01*
Y304130D01*
D02*
G37*
G36*
Y299000D02*
X331697D01*
X331868Y298360D01*
X332428Y297392D01*
X333218Y296601D01*
X334187Y296041D01*
X334827Y295870D01*
Y299000D01*
D02*
G37*
G36*
X339957D02*
X336827D01*
Y295870D01*
X337466Y296041D01*
X338435Y296601D01*
X339226Y297392D01*
X339785Y298360D01*
X339957Y299000D01*
D02*
G37*
G36*
X451319Y303878D02*
X450256D01*
X449230Y303603D01*
X448310Y303072D01*
X447558Y302320D01*
X447027Y301400D01*
X446752Y300374D01*
Y299311D01*
X447027Y298285D01*
X447558Y297365D01*
X448310Y296613D01*
X449230Y296082D01*
X450256Y295807D01*
X451319D01*
X452345Y296082D01*
X453265Y296613D01*
X454017Y297365D01*
X454548Y298285D01*
X454823Y299311D01*
Y300374D01*
X454548Y301400D01*
X454017Y302320D01*
X453265Y303072D01*
X452345Y303603D01*
X451319Y303878D01*
D02*
G37*
G36*
X339862Y294035D02*
X331791D01*
Y285965D01*
X339862D01*
Y294035D01*
D02*
G37*
G36*
X451319Y293878D02*
X450256D01*
X449230Y293603D01*
X448310Y293072D01*
X447558Y292320D01*
X447027Y291400D01*
X446752Y290374D01*
Y289311D01*
X447027Y288285D01*
X447558Y287365D01*
X448310Y286613D01*
X449230Y286082D01*
X450256Y285807D01*
X451319D01*
X452345Y286082D01*
X453265Y286613D01*
X454017Y287365D01*
X454548Y288285D01*
X454823Y289311D01*
Y290374D01*
X454548Y291400D01*
X454017Y292320D01*
X453265Y293072D01*
X452345Y293603D01*
X451319Y293878D01*
D02*
G37*
G36*
X336358Y314035D02*
X335296D01*
X334269Y313760D01*
X333349Y313229D01*
X332598Y312478D01*
X332066Y311558D01*
X331791Y310531D01*
Y309469D01*
X332066Y308442D01*
X332598Y307522D01*
X333349Y306771D01*
X334269Y306240D01*
X335296Y305965D01*
X336358D01*
X337384Y306240D01*
X338305Y306771D01*
X338596Y307062D01*
X368419Y277238D01*
X368928Y276898D01*
X369528Y276779D01*
X372798D01*
X373149Y276171D01*
X373809Y275511D01*
X374617Y275045D01*
X375518Y274803D01*
X376451D01*
X377352Y275045D01*
X378160Y275511D01*
X378820Y276171D01*
X379286Y276979D01*
X379528Y277880D01*
Y278813D01*
X379286Y279714D01*
X378820Y280522D01*
X378160Y281182D01*
X377352Y281648D01*
X376451Y281890D01*
X375518D01*
X374617Y281648D01*
X373809Y281182D01*
X373149Y280522D01*
X372798Y279914D01*
X370177D01*
X339862Y310229D01*
Y310531D01*
X339587Y311558D01*
X339056Y312478D01*
X338305Y313229D01*
X337384Y313760D01*
X336358Y314035D01*
D02*
G37*
G36*
X409661Y260429D02*
Y257299D01*
X412791D01*
X412620Y257939D01*
X412061Y258908D01*
X411270Y259699D01*
X410301Y260258D01*
X409661Y260429D01*
D02*
G37*
G36*
X407661D02*
X407022Y260258D01*
X406053Y259699D01*
X405262Y258908D01*
X404703Y257939D01*
X404531Y257299D01*
X407661D01*
Y260429D01*
D02*
G37*
G36*
X422697Y260335D02*
X414626D01*
Y252264D01*
X422697D01*
Y260335D01*
D02*
G37*
G36*
X369193D02*
X368130D01*
X367104Y260060D01*
X366184Y259528D01*
X365432Y258777D01*
X364901Y257857D01*
X364626Y256831D01*
Y255768D01*
X364901Y254742D01*
X365432Y253821D01*
X366184Y253070D01*
X367104Y252539D01*
X368130Y252264D01*
X369193D01*
X370219Y252539D01*
X371139Y253070D01*
X371891Y253821D01*
X372422Y254742D01*
X372697Y255768D01*
Y256831D01*
X372422Y257857D01*
X371891Y258777D01*
X371139Y259528D01*
X370219Y260060D01*
X369193Y260335D01*
D02*
G37*
G36*
X412791Y255299D02*
X409661D01*
Y252169D01*
X410301Y252341D01*
X411270Y252900D01*
X412061Y253691D01*
X412620Y254660D01*
X412791Y255299D01*
D02*
G37*
G36*
X407661D02*
X404531D01*
X404703Y254660D01*
X405262Y253691D01*
X406053Y252900D01*
X407022Y252341D01*
X407661Y252169D01*
Y255299D01*
D02*
G37*
%LPD*%
G36*
X352128Y306068D02*
X372441D01*
Y304331D01*
X379528D01*
Y306068D01*
X403976D01*
X413223Y296820D01*
Y296277D01*
X413447Y295441D01*
X413880Y294691D01*
X414492Y294079D01*
X415242Y293647D01*
X416078Y293423D01*
X416944D01*
X417142Y293476D01*
X417323Y293162D01*
X407433Y283272D01*
X397943D01*
Y284438D01*
X397824Y285037D01*
X397484Y285546D01*
X393733Y289297D01*
X393224Y289637D01*
X392625Y289756D01*
X379171D01*
X378820Y290365D01*
X378160Y291024D01*
X377352Y291491D01*
X376451Y291732D01*
X375518D01*
X374617Y291491D01*
X373809Y291024D01*
X373149Y290365D01*
X372798Y289756D01*
X365505D01*
X349844Y305418D01*
X349989Y305768D01*
X350433D01*
X351269Y305992D01*
X351587Y306175D01*
X352128Y306068D01*
D02*
G37*
%LPC*%
G36*
X376984Y301652D02*
Y299031D01*
X379605D01*
X379484Y299481D01*
X378990Y300338D01*
X378290Y301037D01*
X377434Y301531D01*
X376984Y301652D01*
D02*
G37*
G36*
X374984Y301652D02*
X374535Y301531D01*
X373678Y301037D01*
X372979Y300338D01*
X372484Y299481D01*
X372364Y299031D01*
X374984D01*
Y301652D01*
D02*
G37*
G36*
Y297031D02*
X372364D01*
X372484Y296582D01*
X372979Y295725D01*
X373678Y295026D01*
X374535Y294532D01*
X374984Y294411D01*
Y297031D01*
D02*
G37*
G36*
X379605D02*
X376984D01*
Y294411D01*
X377434Y294532D01*
X378290Y295026D01*
X378990Y295725D01*
X379484Y296582D01*
X379605Y297031D01*
D02*
G37*
%LPD*%
D32*
X384252Y316142D02*
Y328376D01*
X375984Y307874D02*
X384252Y316142D01*
X368661Y343967D02*
X384252Y328376D01*
X416511Y296710D02*
Y309739D01*
X448032Y341260D01*
X368661Y343967D02*
Y373228D01*
X352128Y307874D02*
X375984D01*
X404724D01*
X415889Y296710D01*
D33*
X388661Y256299D02*
X396376Y264014D01*
Y281704D01*
X392625Y288189D02*
X396376Y284438D01*
X375984Y288189D02*
X392625D01*
X396376Y281704D02*
Y284438D01*
Y281704D02*
X408082D01*
X445394Y304449D02*
X450787Y309842D01*
X441221Y304449D02*
X445394D01*
X432913Y298268D02*
X435039D01*
X441221Y304449D01*
X427953Y293307D02*
X432913Y298268D01*
X419685Y293307D02*
X427953D01*
X408082Y281704D02*
X419685Y293307D01*
X342511Y310534D02*
X364856Y288189D01*
X335827Y322047D02*
X342511Y315363D01*
Y310534D02*
Y315363D01*
X364856Y288189D02*
X375984D01*
X350947Y309055D02*
X352128Y307874D01*
X350000Y309055D02*
X350947D01*
X415889Y296710D02*
X416511D01*
X389528Y356693D02*
X406063Y373228D01*
X377559Y356693D02*
X389528D01*
X415354Y272992D02*
Y279528D01*
X419049Y285978D02*
X419291Y286221D01*
X419049Y283222D02*
Y285978D01*
X398661Y256299D02*
X415354Y272992D01*
Y279528D02*
X419049Y283222D01*
X450453Y319508D02*
X450787Y319843D01*
X437402Y311417D02*
X445492Y319508D01*
X450453D01*
X437402Y311417D02*
X437795D01*
X335827Y312047D02*
X369528Y278346D01*
X375984D01*
X440945Y322441D02*
Y327559D01*
X437402Y318898D02*
X440945Y322441D01*
X392126Y273386D02*
Y282677D01*
X379387Y260647D02*
X392126Y273386D01*
X378661Y256299D02*
X379387Y257025D01*
Y260647D01*
D34*
X398661Y373228D02*
D03*
X450787Y309842D02*
D03*
X335827Y320000D02*
D03*
X388661Y256299D02*
D03*
X408661Y373228D02*
D03*
X450787Y319843D02*
D03*
X388661Y373228D02*
D03*
X335827Y310000D02*
D03*
X398661Y256299D02*
D03*
X335827Y330000D02*
D03*
X450787Y299843D02*
D03*
X408661Y256299D02*
D03*
X378661Y373228D02*
D03*
X335827Y300000D02*
D03*
X450787Y329842D02*
D03*
X378661Y256299D02*
D03*
X368661D02*
D03*
X335827Y340000D02*
D03*
X450787Y289843D02*
D03*
X418661Y373228D02*
D03*
D35*
X375984Y288189D02*
D03*
Y278346D02*
D03*
Y298031D02*
D03*
D36*
X450787Y339843D02*
D03*
X335827Y290000D02*
D03*
D37*
X368661Y373228D02*
D03*
X418661Y256299D02*
D03*
D38*
X375984Y307874D02*
D03*
D39*
X377559Y323622D02*
D03*
X416511Y296710D02*
D03*
X350000Y309055D02*
D03*
X377559Y356693D02*
D03*
X419291Y286221D02*
D03*
X437402Y311417D02*
D03*
X440945Y327559D02*
D03*
X437402Y318898D02*
D03*
X416929Y342520D02*
D03*
X401575Y298819D02*
D03*
X412992Y324016D02*
D03*
X392126Y282677D02*
D03*
D40*
X437008Y354331D02*
D03*
X350394D02*
D03*
Y275590D02*
D03*
X435827Y272441D02*
D03*
M02*
