M48
;Layer_Color=9474304
;FILE_FORMAT=2:4
INCH
;TYPE=PLATED
T01F00S00C0.0280
T02F00S00C0.0354
T03F00S00C0.1260
%
T01
X016289Y018842
X016250Y020850
X015650Y020300
X016400Y022900
X015768Y023968
X016150Y026250
X017650Y025800
X018800Y025100
X018900Y024400
X018950Y022450
X017950Y022400
X020785Y023001
T02
X014158Y020605
Y021589
Y022574
Y023558
Y024542
Y025526
Y026511
Y027495
T03
X022750Y018307
Y029750
X012000
Y018307
M30
