G04*
G04 #@! TF.GenerationSoftware,Altium Limited,Altium Designer,25.8.1 (18)*
G04*
G04 Layer_Color=8388736*
%FSLAX25Y25*%
%MOIN*%
G70*
G04*
G04 #@! TF.SameCoordinates,2A85CF93-FDF8-457D-93DF-B0FC480E17F4*
G04*
G04*
G04 #@! TF.FilePolarity,Negative*
G04*
G01*
G75*
%ADD16R,0.04540X0.04540*%
%ADD17R,0.04737X0.03950*%
%ADD18R,0.02769X0.02769*%
%ADD19R,0.07296X0.07296*%
%ADD20C,0.07296*%
%ADD21C,0.05800*%
D16*
X118673Y147846D02*
D03*
Y142925D02*
D03*
X145500Y120461D02*
D03*
Y115539D02*
D03*
D17*
X149606Y139961D02*
D03*
Y145866D02*
D03*
X114567Y117520D02*
D03*
Y123425D02*
D03*
D18*
X127374Y145535D02*
D03*
X130524D02*
D03*
X133673D02*
D03*
X136823D02*
D03*
X139972D02*
D03*
Y142386D02*
D03*
Y139236D02*
D03*
X136823D02*
D03*
X133673D02*
D03*
X130524D02*
D03*
X127374D02*
D03*
Y142386D02*
D03*
X133650Y124150D02*
D03*
X124201Y117850D02*
D03*
X130500Y124150D02*
D03*
X136799Y121000D02*
D03*
Y124150D02*
D03*
X127350D02*
D03*
X124201D02*
D03*
Y121000D02*
D03*
X127350Y117850D02*
D03*
X130500D02*
D03*
X133650D02*
D03*
X136799D02*
D03*
D19*
X107673Y157386D02*
D03*
X156500Y106000D02*
D03*
D20*
X117673Y157386D02*
D03*
X127673D02*
D03*
X137673D02*
D03*
X147673D02*
D03*
X157673D02*
D03*
X106500Y106000D02*
D03*
X116500D02*
D03*
X126500D02*
D03*
X136500D02*
D03*
X146500D02*
D03*
D21*
X160236Y135827D02*
D03*
X114173Y137402D02*
D03*
X150000Y125984D02*
D03*
X103937Y127559D02*
D03*
M02*
