G04*
G04 #@! TF.GenerationSoftware,Altium Limited,Altium Designer,25.8.1 (18)*
G04*
G04 Layer_Physical_Order=1*
G04 Layer_Color=255*
%FSLAX25Y25*%
%MOIN*%
G70*
G04*
G04 #@! TF.SameCoordinates,2A85CF93-FDF8-457D-93DF-B0FC480E17F4*
G04*
G04*
G04 #@! TF.FilePolarity,Positive*
G04*
G01*
G75*
%ADD11C,0.01000*%
%ADD13R,0.03740X0.03740*%
%ADD14R,0.03937X0.03150*%
%ADD15R,0.01968X0.01968*%
%ADD22C,0.02000*%
%ADD23R,0.06496X0.06496*%
%ADD24C,0.06496*%
%ADD25C,0.05000*%
G36*
X164102Y138132D02*
X163105Y137858D01*
X163037Y137976D01*
X162385Y138628D01*
X161587Y139088D01*
X160697Y139327D01*
X159775D01*
X158885Y139088D01*
X158087Y138628D01*
X157436Y137976D01*
X156975Y137178D01*
X156736Y136288D01*
Y135388D01*
X135203D01*
Y137252D01*
X141957D01*
Y140402D01*
Y141886D01*
X139972D01*
Y142886D01*
X141957D01*
Y144006D01*
X144004D01*
X144589Y144123D01*
X144910Y144337D01*
X146158D01*
X146638Y143337D01*
Y142535D01*
X146638Y142291D01*
Y140461D01*
X149606D01*
X152575D01*
Y142291D01*
X152575Y142535D01*
Y143291D01*
X152575Y143535D01*
Y148441D01*
X151203D01*
Y153899D01*
X151086Y154484D01*
X150963Y154668D01*
X151073Y154778D01*
X151632Y155746D01*
X151921Y156827D01*
Y157945D01*
X151632Y159026D01*
X151073Y159994D01*
X150282Y160785D01*
X149313Y161344D01*
X148365Y161598D01*
X148496Y162598D01*
X156850D01*
X156982Y161598D01*
X156034Y161344D01*
X155065Y160785D01*
X154274Y159994D01*
X153715Y159026D01*
X153425Y157945D01*
Y156827D01*
X153715Y155746D01*
X154274Y154778D01*
X155065Y153987D01*
X156034Y153427D01*
X157114Y153138D01*
X158232D01*
X159313Y153427D01*
X160282Y153987D01*
X161073Y154778D01*
X161632Y155746D01*
X161921Y156827D01*
Y157945D01*
X161632Y159026D01*
X161073Y159994D01*
X160282Y160785D01*
X159313Y161344D01*
X158365Y161598D01*
X158496Y162598D01*
X163779D01*
X164102Y138132D01*
D02*
G37*
G36*
X146982Y161598D02*
X146034Y161344D01*
X145065Y160785D01*
X144274Y159994D01*
X143715Y159026D01*
X143425Y157945D01*
Y156827D01*
X143715Y155746D01*
X144274Y154778D01*
X145065Y153987D01*
X146034Y153427D01*
X147114Y153138D01*
X148144D01*
Y148441D01*
X146638D01*
Y147396D01*
X143673D01*
X143088Y147279D01*
X142957Y147191D01*
X141957Y147515D01*
Y147520D01*
X137323D01*
Y145535D01*
X136323D01*
Y147520D01*
X134173D01*
Y145535D01*
X133173D01*
Y147520D01*
X131024D01*
Y145535D01*
X130024D01*
Y147520D01*
X127650D01*
X127374Y147575D01*
X127098Y147520D01*
X125390D01*
Y147520D01*
X124890Y147451D01*
X124109Y147295D01*
X123448Y146853D01*
X122543Y145949D01*
X121543Y146363D01*
Y147346D01*
X118673D01*
X115803D01*
Y146554D01*
X114803Y146140D01*
X109712Y151231D01*
Y153138D01*
X111921D01*
Y161634D01*
X111921D01*
X112007Y162598D01*
X116850D01*
X116982Y161598D01*
X116033Y161344D01*
X115065Y160785D01*
X114274Y159994D01*
X113715Y159026D01*
X113425Y157945D01*
Y157886D01*
X117673D01*
X121921D01*
Y157945D01*
X121632Y159026D01*
X121072Y159994D01*
X120282Y160785D01*
X119313Y161344D01*
X118365Y161598D01*
X118496Y162598D01*
X126850D01*
X126982Y161598D01*
X126033Y161344D01*
X125065Y160785D01*
X124274Y159994D01*
X123715Y159026D01*
X123425Y157945D01*
Y156827D01*
X123715Y155746D01*
X124274Y154778D01*
X125065Y153987D01*
X126033Y153427D01*
X127114Y153138D01*
X128233D01*
X129313Y153427D01*
X130282Y153987D01*
X131072Y154778D01*
X131632Y155746D01*
X131921Y156827D01*
Y157945D01*
X131632Y159026D01*
X131072Y159994D01*
X130282Y160785D01*
X129313Y161344D01*
X128365Y161598D01*
X128496Y162598D01*
X136850D01*
X136982Y161598D01*
X136033Y161344D01*
X135065Y160785D01*
X134274Y159994D01*
X133715Y159026D01*
X133425Y157945D01*
Y156827D01*
X133715Y155746D01*
X134274Y154778D01*
X135065Y153987D01*
X136033Y153427D01*
X137114Y153138D01*
X138233D01*
X139313Y153427D01*
X140282Y153987D01*
X141072Y154778D01*
X141632Y155746D01*
X141921Y156827D01*
Y157945D01*
X141632Y159026D01*
X141072Y159994D01*
X140282Y160785D01*
X139313Y161344D01*
X138365Y161598D01*
X138496Y162598D01*
X146850D01*
X146982Y161598D01*
D02*
G37*
G36*
X132144Y136461D02*
Y134750D01*
X132260Y134165D01*
X132323Y134071D01*
X131823Y133071D01*
X115398D01*
X115270Y134035D01*
X115428Y134114D01*
X115524Y134140D01*
X115820Y134311D01*
X116110Y134456D01*
X116174Y134414D01*
X116759Y134297D01*
X128054D01*
X128640Y134414D01*
X129136Y134745D01*
X131121Y136730D01*
X131144Y136765D01*
X132144Y136461D01*
D02*
G37*
G36*
X103425Y161634D02*
X103425D01*
Y153138D01*
X105634D01*
Y150386D01*
X105789Y149606D01*
X106231Y148944D01*
X113231Y141944D01*
X113231Y141944D01*
X113377Y141847D01*
X113337Y141060D01*
X113198Y140764D01*
X112822Y140663D01*
X112024Y140202D01*
X111372Y139551D01*
X110912Y138752D01*
X110673Y137862D01*
Y136941D01*
X110912Y136051D01*
X111372Y135252D01*
X112024Y134601D01*
X112822Y134140D01*
X113081Y134071D01*
X112949Y133071D01*
X100787D01*
Y161811D01*
X101575Y162598D01*
X103340D01*
X103425Y161634D01*
D02*
G37*
G36*
X148903Y129351D02*
X148745Y129271D01*
X148649Y129246D01*
X148354Y129075D01*
X148063Y128929D01*
X148000Y128972D01*
X147414Y129088D01*
X136119D01*
X135534Y128972D01*
X135037Y128640D01*
X133052Y126655D01*
X133029Y126621D01*
X132029Y126924D01*
Y128636D01*
X131913Y129221D01*
X131850Y129315D01*
X132350Y130315D01*
X148776D01*
X148903Y129351D01*
D02*
G37*
G36*
X128971Y126134D02*
X122216D01*
Y122165D01*
Y121500D01*
X124201D01*
Y120500D01*
X122216D01*
Y119380D01*
X120169D01*
X119584Y119263D01*
X119263Y119049D01*
X118015D01*
X117535Y120049D01*
Y120850D01*
X117535Y121095D01*
Y122925D01*
X111598D01*
Y121095D01*
X111598Y120850D01*
Y120095D01*
X111598Y119850D01*
Y114945D01*
X112971D01*
Y109487D01*
X113087Y108902D01*
X113210Y108718D01*
X113101Y108608D01*
X112541Y107640D01*
X112252Y106559D01*
Y105441D01*
X112541Y104360D01*
X113101Y103392D01*
X113892Y102601D01*
X114860Y102041D01*
X115808Y101787D01*
X115677Y100787D01*
X107323D01*
X107192Y101787D01*
X108140Y102041D01*
X109108Y102601D01*
X109899Y103392D01*
X110459Y104360D01*
X110748Y105441D01*
Y106559D01*
X110459Y107640D01*
X109899Y108608D01*
X109108Y109399D01*
X108140Y109959D01*
X107059Y110248D01*
X105941D01*
X104860Y109959D01*
X103892Y109399D01*
X103101Y108608D01*
X102541Y107640D01*
X102252Y106559D01*
Y105441D01*
X102541Y104360D01*
X103101Y103392D01*
X103892Y102601D01*
X104860Y102041D01*
X105808Y101787D01*
X105677Y100787D01*
X100394D01*
X100072Y125254D01*
X101068Y125528D01*
X101136Y125410D01*
X101788Y124758D01*
X102586Y124298D01*
X103476Y124059D01*
X104398D01*
X105288Y124298D01*
X106086Y124758D01*
X106738Y125410D01*
X107199Y126208D01*
X107437Y127098D01*
Y127998D01*
X128971D01*
Y126134D01*
D02*
G37*
G36*
X134150Y115866D02*
X136523D01*
X136799Y115811D01*
X137075Y115866D01*
X138784D01*
Y115935D01*
X139284D01*
X140064Y116091D01*
X140725Y116533D01*
X141630Y117437D01*
X142630Y117023D01*
Y116039D01*
X148370D01*
Y116832D01*
X149370Y117246D01*
X154461Y112155D01*
Y110248D01*
X152252D01*
Y101752D01*
X152252D01*
X152166Y100787D01*
X147323D01*
X147192Y101787D01*
X148140Y102041D01*
X149108Y102601D01*
X149899Y103392D01*
X150459Y104360D01*
X150748Y105441D01*
Y105500D01*
X142252D01*
Y105441D01*
X142542Y104360D01*
X143101Y103392D01*
X143892Y102601D01*
X144860Y102041D01*
X145808Y101787D01*
X145677Y100787D01*
X137323D01*
X137191Y101787D01*
X138140Y102041D01*
X139108Y102601D01*
X139899Y103392D01*
X140459Y104360D01*
X140748Y105441D01*
Y106559D01*
X140459Y107640D01*
X139899Y108608D01*
X139108Y109399D01*
X138140Y109959D01*
X137059Y110248D01*
X135941D01*
X134860Y109959D01*
X133892Y109399D01*
X133101Y108608D01*
X132542Y107640D01*
X132252Y106559D01*
Y105441D01*
X132542Y104360D01*
X133101Y103392D01*
X133892Y102601D01*
X134860Y102041D01*
X135809Y101787D01*
X135677Y100787D01*
X127323D01*
X127191Y101787D01*
X128140Y102041D01*
X129108Y102601D01*
X129899Y103392D01*
X130458Y104360D01*
X130748Y105441D01*
Y106559D01*
X130458Y107640D01*
X129899Y108608D01*
X129108Y109399D01*
X128140Y109959D01*
X127059Y110248D01*
X125941D01*
X124860Y109959D01*
X123892Y109399D01*
X123101Y108608D01*
X122541Y107640D01*
X122252Y106559D01*
Y105441D01*
X122541Y104360D01*
X123101Y103392D01*
X123892Y102601D01*
X124860Y102041D01*
X125809Y101787D01*
X125677Y100787D01*
X117323D01*
X117192Y101787D01*
X118140Y102041D01*
X119108Y102601D01*
X119899Y103392D01*
X120458Y104360D01*
X120748Y105441D01*
Y106559D01*
X120458Y107640D01*
X119899Y108608D01*
X119108Y109399D01*
X118140Y109959D01*
X117059Y110248D01*
X116029D01*
Y114945D01*
X117535D01*
Y115990D01*
X120500D01*
X121085Y116107D01*
X121216Y116194D01*
X122216Y115871D01*
Y115866D01*
X126850D01*
Y117850D01*
X127850D01*
Y115866D01*
X130000D01*
Y117850D01*
X131000D01*
Y115866D01*
X133150D01*
Y117850D01*
X134150D01*
Y115866D01*
D02*
G37*
G36*
X163386Y101575D02*
X162598Y100787D01*
X160834D01*
X160748Y101752D01*
X160748D01*
Y110248D01*
X158539D01*
Y113000D01*
X158384Y113780D01*
X157942Y114442D01*
X157942Y114442D01*
X150942Y121442D01*
X150797Y121539D01*
X150976Y122622D01*
X151351Y122723D01*
X152149Y123184D01*
X152801Y123835D01*
X153261Y124633D01*
X153500Y125523D01*
Y126445D01*
X153261Y127335D01*
X152801Y128133D01*
X152149Y128785D01*
X151351Y129246D01*
X151093Y129315D01*
X151224Y130315D01*
X163386D01*
Y101575D01*
D02*
G37*
%LPC*%
G36*
X152575Y139461D02*
X150106D01*
Y137386D01*
X152575D01*
Y139461D01*
D02*
G37*
G36*
X149106D02*
X146638D01*
Y137386D01*
X149106D01*
Y139461D01*
D02*
G37*
G36*
X121921Y156886D02*
X118173D01*
Y153138D01*
X118233D01*
X119313Y153427D01*
X120282Y153987D01*
X121072Y154778D01*
X121632Y155746D01*
X121921Y156827D01*
Y156886D01*
D02*
G37*
G36*
X117173D02*
X113425D01*
Y156827D01*
X113715Y155746D01*
X114274Y154778D01*
X115065Y153987D01*
X116033Y153427D01*
X117114Y153138D01*
X117173D01*
Y156886D01*
D02*
G37*
G36*
X121543Y150716D02*
X119173D01*
Y148346D01*
X121543D01*
Y150716D01*
D02*
G37*
G36*
X118173D02*
X115803D01*
Y148346D01*
X118173D01*
Y150716D01*
D02*
G37*
G36*
X117535Y126000D02*
X115067D01*
Y123925D01*
X117535D01*
Y126000D01*
D02*
G37*
G36*
X114067D02*
X111598D01*
Y123925D01*
X114067D01*
Y126000D01*
D02*
G37*
G36*
X148370Y115039D02*
X146000D01*
Y112669D01*
X148370D01*
Y115039D01*
D02*
G37*
G36*
X145000D02*
X142630D01*
Y112669D01*
X145000D01*
Y115039D01*
D02*
G37*
G36*
X147059Y110248D02*
X147000D01*
Y106500D01*
X150748D01*
Y106559D01*
X150459Y107640D01*
X149899Y108608D01*
X149108Y109399D01*
X148140Y109959D01*
X147059Y110248D01*
D02*
G37*
G36*
X146000D02*
X145941D01*
X144860Y109959D01*
X143892Y109399D01*
X143101Y108608D01*
X142542Y107640D01*
X142252Y106559D01*
Y106500D01*
X146000D01*
Y110248D01*
D02*
G37*
%LPD*%
D11*
X130524Y142386D02*
X133673D01*
X136823D02*
X139972D01*
X133673D02*
X136823D01*
X127374D02*
X130524D01*
X136823D02*
Y145535D01*
X136823Y145535D01*
X133673Y142386D02*
Y145535D01*
X130524Y142386D02*
Y145535D01*
X133673Y134750D02*
X134565Y133858D01*
X157650D02*
X159619Y135827D01*
X160236D01*
X134565Y133858D02*
X157650D01*
X133673Y134750D02*
Y139236D01*
X143673Y145866D02*
X149606D01*
X149673Y145933D01*
Y153899D01*
X143673Y145866D02*
X144004Y145535D01*
X139972D02*
X144004D01*
X147673Y155899D02*
Y157386D01*
Y155899D02*
X149673Y153899D01*
X128054Y135827D02*
X130039Y137812D01*
X115184Y137402D02*
X116759Y135827D01*
X114173Y137402D02*
X115184D01*
X116759Y135827D02*
X128054D01*
X130039Y137812D02*
Y138752D01*
X130524Y139236D01*
X133650Y124150D02*
X134134Y124634D01*
Y125574D01*
X136119Y127559D02*
X147414D01*
X148989Y125984D02*
X150000D01*
X147414Y127559D02*
X148989Y125984D01*
X134134Y125574D02*
X136119Y127559D01*
X114500Y109487D02*
X116500Y107487D01*
Y106000D02*
Y107487D01*
X120169Y117850D02*
X124201D01*
X120169D02*
X120500Y117520D01*
X114500Y109487D02*
Y117453D01*
X114567Y117520D01*
X120500D01*
X130500Y124150D02*
Y128636D01*
X106523Y129528D02*
X129609D01*
X103937Y127559D02*
X104554D01*
X106523Y129528D01*
X129609D02*
X130500Y128636D01*
X133650Y117850D02*
Y121000D01*
X130500Y117850D02*
Y121000D01*
X127350Y117850D02*
X127350Y117850D01*
Y121000D01*
X133650D02*
X136799D01*
X127350D02*
X130500D01*
X124201D02*
X127350D01*
X130500D02*
X133650D01*
D13*
X118673Y147846D02*
D03*
Y142925D02*
D03*
X145500Y120461D02*
D03*
Y115539D02*
D03*
D14*
X149606Y139961D02*
D03*
Y145866D02*
D03*
X114567Y117520D02*
D03*
Y123425D02*
D03*
D15*
X127374Y145535D02*
D03*
X130524D02*
D03*
X133673D02*
D03*
X136823D02*
D03*
X139972D02*
D03*
Y142386D02*
D03*
Y139236D02*
D03*
X136823D02*
D03*
X133673D02*
D03*
X130524D02*
D03*
X127374D02*
D03*
Y142386D02*
D03*
X133650Y124150D02*
D03*
X124201Y117850D02*
D03*
X130500Y124150D02*
D03*
X136799Y121000D02*
D03*
Y124150D02*
D03*
X127350D02*
D03*
X124201D02*
D03*
Y121000D02*
D03*
X127350Y117850D02*
D03*
X130500D02*
D03*
X133650D02*
D03*
X136799D02*
D03*
D22*
X141811Y124150D02*
X145500Y120461D01*
X141770D02*
X145500D01*
X139284Y117974D02*
X141770Y120461D01*
X145961Y120000D02*
X149500D01*
X145500Y120461D02*
X145961Y120000D01*
X149500D02*
X156500Y113000D01*
X136799Y124150D02*
X141811D01*
X122362Y139236D02*
X127374D01*
X118673Y142925D02*
X122404D01*
X118673D02*
X122362Y139236D01*
X114673Y143386D02*
X118213D01*
X118673Y142925D01*
X124890Y145411D02*
X127250D01*
X122404Y142925D02*
X124890Y145411D01*
X127250D02*
X127374Y145535D01*
X107673Y150386D02*
X114673Y143386D01*
X107673Y150386D02*
Y157386D01*
X156500Y106000D02*
Y113000D01*
X136799Y117850D02*
X136923Y117974D01*
X139284D01*
D23*
X107673Y157386D02*
D03*
X156500Y106000D02*
D03*
D24*
X117673Y157386D02*
D03*
X127673D02*
D03*
X137673D02*
D03*
X147673D02*
D03*
X157673D02*
D03*
X106500Y106000D02*
D03*
X116500D02*
D03*
X126500D02*
D03*
X136500D02*
D03*
X146500D02*
D03*
D25*
X160236Y135827D02*
D03*
X114173Y137402D02*
D03*
X150000Y125984D02*
D03*
X103937Y127559D02*
D03*
M02*
