G04*
G04 #@! TF.GenerationSoftware,Altium Limited,Altium Designer,25.8.1 (18)*
G04*
G04 Layer_Color=32768*
%FSLAX25Y25*%
%MOIN*%
G70*
G04*
G04 #@! TF.SameCoordinates,25F45E09-9C10-4E27-91D0-FF4D7BA81395*
G04*
G04*
G04 #@! TF.FilePolarity,Positive*
G04*
G01*
G75*
%ADD12C,0.00394*%
%ADD26C,0.00197*%
D12*
X116902Y145386D02*
X120445D01*
X118673Y143614D02*
Y147158D01*
X149606Y141142D02*
Y144685D01*
X147835Y142913D02*
X151378D01*
X122256Y151047D02*
X145091D01*
Y135693D02*
Y151047D01*
X122256Y135693D02*
X145091D01*
X122256D02*
Y151047D01*
X141917Y112339D02*
Y127693D01*
X119083D02*
X141917D01*
X119083Y112339D02*
Y127693D01*
Y112339D02*
X141917D01*
X112795Y120472D02*
X116339D01*
X114567Y118701D02*
Y122244D01*
X145500Y116228D02*
Y119772D01*
X143728Y118000D02*
X147272D01*
D26*
X121626Y140071D02*
Y150701D01*
X115720Y140071D02*
Y150701D01*
X121626D01*
X115720Y140071D02*
X121626D01*
X145669Y136417D02*
X153543D01*
X145669Y149409D02*
X153543D01*
X145669Y136417D02*
Y149409D01*
X153543Y136417D02*
Y149409D01*
X101689Y163370D02*
X163657D01*
Y151402D02*
Y163370D01*
X101689Y151402D02*
X163657D01*
X101689D02*
Y163370D01*
X162484Y100016D02*
Y111984D01*
X100516D02*
X162484D01*
X100516Y100016D02*
Y111984D01*
Y100016D02*
X162484D01*
X110630Y113976D02*
Y126969D01*
X118504Y113976D02*
Y126969D01*
X110630Y113976D02*
X118504D01*
X110630Y126969D02*
X118504D01*
X142547Y123315D02*
X148453D01*
X142547Y112685D02*
X148453D01*
Y123315D01*
X142547Y112685D02*
Y123315D01*
M02*
