G04*
G04 #@! TF.GenerationSoftware,Altium Limited,Altium Designer,25.8.1 (18)*
G04*
G04 Layer_Color=8388736*
%FSLAX25Y25*%
%MOIN*%
G70*
G04*
G04 #@! TF.SameCoordinates,43C0CF26-5D00-403A-8535-6070E817F6AF*
G04*
G04*
G04 #@! TF.FilePolarity,Positive*
G04*
G01*
G75*
%ADD11C,0.00787*%
%ADD12C,0.00394*%
G36*
X130519Y240000D02*
X128735Y239403D01*
X128732Y239401D01*
X128724Y239399D01*
X128712Y239395D01*
X128695Y239390D01*
X128673Y239383D01*
X128650Y239375D01*
X128624Y239366D01*
X128595Y239357D01*
X128535Y239337D01*
X128473Y239317D01*
X128442Y239308D01*
X128413Y239299D01*
X128388Y239290D01*
X128362Y239282D01*
X128364D01*
X128369Y239281D01*
X128377Y239277D01*
X128388Y239273D01*
X128402Y239270D01*
X128420Y239264D01*
X128440Y239257D01*
X128464Y239250D01*
X128491Y239241D01*
X128521Y239230D01*
X128553Y239219D01*
X128590Y239208D01*
X128630Y239193D01*
X128672Y239180D01*
X128717Y239164D01*
X128766Y239148D01*
X130519Y238544D01*
Y238094D01*
X128000D01*
Y238416D01*
X130107D01*
X128000Y239150D01*
Y239452D01*
X130144Y240178D01*
X128000D01*
Y240500D01*
X130519D01*
Y240000D01*
D02*
G37*
G36*
Y236865D02*
Y236509D01*
X128000Y235479D01*
Y235857D01*
X128762Y236148D01*
Y237206D01*
X128000Y237481D01*
Y237832D01*
X130519Y236865D01*
D02*
G37*
G36*
Y234823D02*
X128000D01*
Y235156D01*
X130519D01*
Y234823D01*
D02*
G37*
G36*
Y233897D02*
X128541Y232576D01*
X130519D01*
Y232255D01*
X128000D01*
Y232599D01*
X129976Y233919D01*
X128000D01*
Y234239D01*
X130519D01*
Y233897D01*
D02*
G37*
G36*
X129896Y231580D02*
X129900Y231573D01*
X129907Y231558D01*
X129916Y231540D01*
X129927Y231518D01*
X129942Y231491D01*
X129958Y231462D01*
X129976Y231431D01*
X129998Y231396D01*
X130020Y231360D01*
X130071Y231284D01*
X130128Y231205D01*
X130189Y231131D01*
X130191Y231129D01*
X130197Y231122D01*
X130206Y231113D01*
X130219Y231100D01*
X130235Y231083D01*
X130253Y231065D01*
X130275Y231045D01*
X130297Y231023D01*
X130322Y231001D01*
X130350Y230978D01*
X130406Y230932D01*
X130466Y230890D01*
X130497Y230872D01*
X130528Y230856D01*
Y230656D01*
X128000D01*
Y230965D01*
X129969D01*
X129967Y230967D01*
X129964Y230971D01*
X129958Y230976D01*
X129951Y230985D01*
X129942Y230996D01*
X129929Y231011D01*
X129916Y231027D01*
X129902Y231043D01*
X129887Y231065D01*
X129869Y231087D01*
X129853Y231111D01*
X129833Y231136D01*
X129815Y231165D01*
X129795Y231194D01*
X129754Y231260D01*
X129753Y231262D01*
X129749Y231267D01*
X129744Y231278D01*
X129738Y231291D01*
X129729Y231305D01*
X129718Y231324D01*
X129707Y231345D01*
X129694Y231367D01*
X129669Y231418D01*
X129643Y231473D01*
X129618Y231529D01*
X129596Y231584D01*
X129895D01*
X129896Y231580D01*
D02*
G37*
%LPC*%
G36*
X129034Y237109D02*
Y236254D01*
X129731Y236518D01*
X129733D01*
X129734Y236520D01*
X129745Y236523D01*
X129762Y236529D01*
X129783Y236538D01*
X129811Y236547D01*
X129842Y236560D01*
X129878Y236571D01*
X129916Y236585D01*
X129956Y236600D01*
X129998Y236614D01*
X130086Y236643D01*
X130173Y236673D01*
X130215Y236685D01*
X130255Y236696D01*
X130251D01*
X130244Y236698D01*
X130231Y236702D01*
X130213Y236705D01*
X130191Y236711D01*
X130166Y236716D01*
X130137Y236723D01*
X130104Y236731D01*
X130068Y236742D01*
X130029Y236751D01*
X129991Y236762D01*
X129949Y236774D01*
X129862Y236802D01*
X129773Y236833D01*
X129034Y237109D01*
D02*
G37*
%LPD*%
D11*
X151031Y196012D02*
Y284988D01*
X104969Y196012D02*
X151031D01*
X104969D02*
Y284988D01*
X151031D01*
D12*
X177130Y278701D02*
X180870D01*
X177130Y271811D02*
X180870D01*
Y278701D01*
X177130Y271811D02*
Y278701D01*
X158945Y272130D02*
Y275870D01*
X152055Y272130D02*
Y275870D01*
Y272130D02*
X158945D01*
X152055Y275870D02*
X158945D01*
X189630Y237201D02*
X193370D01*
X189630Y230311D02*
X193370D01*
Y237201D01*
X189630Y230311D02*
Y237201D01*
X209630Y194311D02*
Y201201D01*
X213370Y194311D02*
Y201201D01*
X209630Y194311D02*
X213370D01*
X209630Y201201D02*
X213370D01*
X215870Y205890D02*
Y212779D01*
X212130Y205890D02*
Y212779D01*
X215870D01*
X212130Y205890D02*
X215870D01*
X207870Y216390D02*
Y223280D01*
X204130Y216390D02*
Y223280D01*
X207870D01*
X204130Y216390D02*
X207870D01*
M02*
