G04*
G04 #@! TF.GenerationSoftware,Altium Limited,Altium Designer,25.8.1 (18)*
G04*
G04 Layer_Color=65535*
%FSLAX25Y25*%
%MOIN*%
G70*
G04*
G04 #@! TF.SameCoordinates,43C0CF26-5D00-403A-8535-6070E817F6AF*
G04*
G04*
G04 #@! TF.FilePolarity,Positive*
G04*
G01*
G75*
%ADD10C,0.00984*%
%ADD11C,0.00787*%
%ADD12C,0.00394*%
%ADD13C,0.00600*%
%ADD14C,0.00300*%
%ADD15C,0.01000*%
G36*
X177909Y200382D02*
X176909D01*
Y201882D01*
X177909D01*
Y200382D01*
D02*
G37*
G36*
X191868Y218400D02*
X193368D01*
Y219400D01*
X191868D01*
Y218400D01*
D02*
G37*
D10*
X164472Y281587D02*
G03*
X164472Y281587I-492J0D01*
G01*
X142075Y286957D02*
G03*
X142075Y286957I-492J0D01*
G01*
D11*
X169850Y237957D02*
G03*
X169850Y238744I0J394D01*
G01*
D02*
G03*
X169850Y237957I0J-394D01*
G01*
X170968Y268398D02*
Y280602D01*
X167032Y268398D02*
Y280602D01*
Y268398D02*
X170968D01*
X167032Y280602D02*
X170968D01*
X177819Y275256D02*
X180181D01*
X155500Y272819D02*
Y275181D01*
X150638Y196405D02*
Y284594D01*
X105362Y196405D02*
X150638D01*
X105362D02*
Y284594D01*
X150638D01*
X190319Y233756D02*
X192681D01*
X210319Y197756D02*
X212681D01*
X212819Y209335D02*
X215181D01*
X204819Y219835D02*
X207181D01*
D12*
X171425Y235201D02*
X180874D01*
Y254098D01*
X171425D02*
X180874D01*
X171425Y235201D02*
Y254098D01*
D13*
X198598Y218700D02*
X202509D01*
X177609Y214789D02*
Y218700D01*
Y193800D02*
X181520D01*
X202509D02*
Y197711D01*
Y199435D02*
Y200270D01*
Y201994D02*
Y202829D01*
Y204553D02*
Y205388D01*
Y207112D02*
Y207947D01*
Y209671D02*
Y210506D01*
Y212230D02*
Y213065D01*
Y214789D02*
Y218700D01*
X196039D02*
X196874D01*
X193480D02*
X194315D01*
X190921D02*
X191756D01*
X188362D02*
X189197D01*
X185803D02*
X186638D01*
X183244D02*
X184079D01*
X177609D02*
X181520D01*
X177609Y212230D02*
Y213065D01*
Y209671D02*
Y210506D01*
Y207112D02*
Y207947D01*
Y204553D02*
Y205388D01*
Y201994D02*
Y202829D01*
Y199435D02*
Y200270D01*
Y193800D02*
Y197711D01*
X183244Y193800D02*
X184079D01*
X185803D02*
X186638D01*
X188362D02*
X189197D01*
X190921D02*
X191756D01*
X193480D02*
X194315D01*
X196039D02*
X196874D01*
X198598D02*
X202509D01*
D14*
X204959Y195628D02*
X201627Y198960D01*
X204959D02*
X201627Y195628D01*
X204959Y197294D02*
X201627D01*
X203293Y198960D02*
Y195628D01*
D15*
X132752Y291001D02*
Y294000D01*
X133752Y293000D01*
X134751Y294000D01*
Y291001D01*
X135751D02*
Y293000D01*
X136751Y294000D01*
X137750Y293000D01*
Y291001D01*
Y292500D01*
X135751D01*
X138750Y294000D02*
X139750D01*
X139250D01*
Y291001D01*
X138750D01*
X139750D01*
X141249D02*
Y294000D01*
X143249Y291001D01*
Y294000D01*
X144248Y291001D02*
X145248D01*
X144748D01*
Y294000D01*
X144248Y293500D01*
X167834Y286999D02*
Y283667D01*
X168501Y283001D01*
X169834D01*
X170500Y283667D01*
Y286999D01*
X171833Y283001D02*
X173166D01*
X172499D01*
Y286999D01*
X171833Y286333D01*
X166340Y262982D02*
X169006D01*
X167673D01*
Y258983D01*
X171005D02*
X172338D01*
X173004Y259650D01*
Y260983D01*
X172338Y261649D01*
X171005D01*
X170339Y260983D01*
Y259650D01*
X171005Y258983D01*
X177003Y262982D02*
X174337D01*
Y260983D01*
X175670D01*
X174337D01*
Y258983D01*
X178336Y258317D02*
X181002D01*
X185001Y262316D02*
X184334Y262982D01*
X183001D01*
X182335Y262316D01*
Y261649D01*
X183001Y260983D01*
X184334D01*
X185001Y260316D01*
Y259650D01*
X184334Y258983D01*
X183001D01*
X182335Y259650D01*
X188999Y262982D02*
X186334D01*
Y258983D01*
X188999D01*
X186334Y260983D02*
X187666D01*
X190332Y258983D02*
Y262982D01*
X192998Y258983D01*
Y262982D01*
X196997Y262316D02*
X196330Y262982D01*
X194997D01*
X194331Y262316D01*
Y261649D01*
X194997Y260983D01*
X196330D01*
X196997Y260316D01*
Y259650D01*
X196330Y258983D01*
X194997D01*
X194331Y259650D01*
X200329Y262982D02*
X198996D01*
X198330Y262316D01*
Y259650D01*
X198996Y258983D01*
X200329D01*
X200995Y259650D01*
Y262316D01*
X200329Y262982D01*
X202328Y258983D02*
Y262982D01*
X204328D01*
X204994Y262316D01*
Y260983D01*
X204328Y260316D01*
X202328D01*
X203661D02*
X204994Y258983D01*
X206327D02*
X207660D01*
X206994D01*
Y262982D01*
X206327Y262316D01*
X158999Y207668D02*
X155001D01*
Y209667D01*
X155667Y210334D01*
X157000D01*
X157667Y209667D01*
Y207668D01*
Y209001D02*
X158999Y210334D01*
X155001Y214332D02*
Y211666D01*
X157000D01*
X156333Y212999D01*
Y213666D01*
X157000Y214332D01*
X158333D01*
X158999Y213666D01*
Y212333D01*
X158333Y211666D01*
X166999Y216168D02*
X163001D01*
Y218167D01*
X163667Y218834D01*
X165000D01*
X165666Y218167D01*
Y216168D01*
Y217501D02*
X166999Y218834D01*
Y222166D02*
X163001D01*
X165000Y220166D01*
Y222832D01*
X159499Y192668D02*
X155501D01*
Y194667D01*
X156167Y195334D01*
X157500D01*
X158167Y194667D01*
Y192668D01*
Y194001D02*
X159499Y195334D01*
X156167Y196667D02*
X155501Y197333D01*
Y198666D01*
X156167Y199332D01*
X156834D01*
X157500Y198666D01*
Y197999D01*
Y198666D01*
X158167Y199332D01*
X158833D01*
X159499Y198666D01*
Y197333D01*
X158833Y196667D01*
X162880Y247499D02*
Y243501D01*
X160880D01*
X160214Y244167D01*
Y245500D01*
X160880Y246166D01*
X162880D01*
X161547D02*
X160214Y247499D01*
X156215D02*
X158881D01*
X156215Y244834D01*
Y244167D01*
X156881Y243501D01*
X158214D01*
X158881Y244167D01*
X197334Y233001D02*
Y236999D01*
X199334D01*
X200000Y236333D01*
Y235000D01*
X199334Y234334D01*
X197334D01*
X198667D02*
X200000Y233001D01*
X201333D02*
X202666D01*
X201999D01*
Y236999D01*
X201333Y236333D01*
X169674Y191333D02*
X168341D01*
X167675Y190666D01*
Y188000D01*
X168341Y187334D01*
X169674D01*
X170340Y188000D01*
Y190666D01*
X169674Y191333D01*
X171673Y187334D02*
Y191333D01*
X173673D01*
X174339Y190666D01*
Y189333D01*
X173673Y188667D01*
X171673D01*
X175672Y191333D02*
X178338D01*
X177005D01*
Y187334D01*
X179671Y191333D02*
X181003D01*
X180337D01*
Y187334D01*
X179671D01*
X181003D01*
X185669Y190666D02*
X185002Y191333D01*
X183669D01*
X183003Y190666D01*
Y188000D01*
X183669Y187334D01*
X185002D01*
X185669Y188000D01*
X187002Y187334D02*
Y190000D01*
X188335Y191333D01*
X189667Y190000D01*
Y187334D01*
Y189333D01*
X187002D01*
X191000Y191333D02*
Y187334D01*
X193666D01*
X194999Y186667D02*
X197665D01*
X201664Y191333D02*
X198998D01*
Y189333D01*
X200331D01*
X198998D01*
Y187334D01*
X202996Y191333D02*
Y187334D01*
X205662D01*
X208995Y191333D02*
X207662D01*
X206995Y190666D01*
Y188000D01*
X207662Y187334D01*
X208995D01*
X209661Y188000D01*
Y190666D01*
X208995Y191333D01*
X210994D02*
Y187334D01*
X212327Y188667D01*
X213660Y187334D01*
Y191333D01*
X214993Y187334D02*
X216325D01*
X215659D01*
Y191333D01*
X214993Y190666D01*
X180166Y286432D02*
X179499Y287099D01*
X178166D01*
X177500Y286432D01*
Y283766D01*
X178166Y283100D01*
X179499D01*
X180166Y283766D01*
X181499Y283100D02*
X182832D01*
X182165D01*
Y287099D01*
X181499Y286432D01*
X184831Y283100D02*
X186164D01*
X185497D01*
Y287099D01*
X184831Y286432D01*
X153667Y286833D02*
X153001Y287499D01*
X151668D01*
X151002Y286833D01*
Y284167D01*
X151668Y283501D01*
X153001D01*
X153667Y284167D01*
X155000Y283501D02*
X156333D01*
X155667D01*
Y287499D01*
X155000Y286833D01*
X158333D02*
X158999Y287499D01*
X160332D01*
X160998Y286833D01*
Y284167D01*
X160332Y283501D01*
X158999D01*
X158333Y284167D01*
Y286833D01*
X224833Y220166D02*
X225499Y220833D01*
Y222166D01*
X224833Y222832D01*
X222167D01*
X221501Y222166D01*
Y220833D01*
X222167Y220166D01*
Y218833D02*
X221501Y218167D01*
Y216834D01*
X222167Y216168D01*
X224833D01*
X225499Y216834D01*
Y218167D01*
X224833Y218833D01*
X224166D01*
X223500Y218167D01*
Y216168D01*
X218833Y220666D02*
X219499Y221333D01*
Y222666D01*
X218833Y223332D01*
X216167D01*
X215501Y222666D01*
Y221333D01*
X216167Y220666D01*
X218833Y219334D02*
X219499Y218667D01*
Y217334D01*
X218833Y216668D01*
X218166D01*
X217500Y217334D01*
X216834Y216668D01*
X216167D01*
X215501Y217334D01*
Y218667D01*
X216167Y219334D01*
X216834D01*
X217500Y218667D01*
X218166Y219334D01*
X218833D01*
X217500Y218667D02*
Y217334D01*
X195833Y243666D02*
X196499Y244333D01*
Y245666D01*
X195833Y246332D01*
X193167D01*
X192501Y245666D01*
Y244333D01*
X193167Y243666D01*
X196499Y242334D02*
Y239668D01*
X195833D01*
X193167Y242334D01*
X192501D01*
X201833Y243666D02*
X202499Y244333D01*
Y245666D01*
X201833Y246332D01*
X199167D01*
X198501Y245666D01*
Y244333D01*
X199167Y243666D01*
X202499Y239668D02*
X201833Y241001D01*
X200500Y242334D01*
X199167D01*
X198501Y241667D01*
Y240334D01*
X199167Y239668D01*
X199834D01*
X200500Y240334D01*
Y242334D01*
X221333Y209745D02*
X221999Y210412D01*
Y211744D01*
X221333Y212411D01*
X218667D01*
X218001Y211744D01*
Y210412D01*
X218667Y209745D01*
X221999Y205747D02*
Y208412D01*
X220000D01*
X220666Y207079D01*
Y206413D01*
X220000Y205747D01*
X218667D01*
X218001Y206413D01*
Y207746D01*
X218667Y208412D01*
X227333Y209745D02*
X227999Y210412D01*
Y211744D01*
X227333Y212411D01*
X224667D01*
X224001Y211744D01*
Y210412D01*
X224667Y209745D01*
X224001Y206413D02*
X227999D01*
X226000Y208412D01*
Y205747D01*
X157667Y232334D02*
X157001Y231667D01*
Y230334D01*
X157667Y229668D01*
X160333D01*
X160999Y230334D01*
Y231667D01*
X160333Y232334D01*
X157667Y233666D02*
X157001Y234333D01*
Y235666D01*
X157667Y236332D01*
X158334D01*
X159000Y235666D01*
Y234999D01*
Y235666D01*
X159667Y236332D01*
X160333D01*
X160999Y235666D01*
Y234333D01*
X160333Y233666D01*
X218333Y198167D02*
X218999Y198833D01*
Y200166D01*
X218333Y200832D01*
X215667D01*
X215001Y200166D01*
Y198833D01*
X215667Y198167D01*
X215001Y194168D02*
Y196834D01*
X217666Y194168D01*
X218333D01*
X218999Y194834D01*
Y196167D01*
X218333Y196834D01*
X223833Y197000D02*
X224499Y197667D01*
Y198999D01*
X223833Y199666D01*
X221167D01*
X220501Y198999D01*
Y197667D01*
X221167Y197000D01*
X220501Y195667D02*
Y194334D01*
Y195001D01*
X224499D01*
X223833Y195667D01*
M02*
