G04*
G04 #@! TF.GenerationSoftware,Altium Limited,Altium Designer,25.8.1 (18)*
G04*
G04 Layer_Color=32768*
%FSLAX25Y25*%
%MOIN*%
G70*
G04*
G04 #@! TF.SameCoordinates,43C0CF26-5D00-403A-8535-6070E817F6AF*
G04*
G04*
G04 #@! TF.FilePolarity,Positive*
G04*
G01*
G75*
%ADD12C,0.00394*%
%ADD13C,0.00600*%
%ADD41C,0.00197*%
G36*
X199436Y219200D02*
X203009D01*
Y215627D01*
D01*
Y196873D01*
D01*
Y193300D01*
X199436D01*
D01*
X180682D01*
D01*
X177109D01*
Y196873D01*
D01*
Y215627D01*
D01*
Y219200D01*
X180682D01*
D01*
X199436D01*
D01*
D02*
G37*
D12*
X169000Y272532D02*
Y276468D01*
X167032Y274500D02*
X170968D01*
X167488Y233232D02*
X182843D01*
Y256067D01*
X167488D02*
X182843D01*
X167488Y233232D02*
Y256067D01*
X161047Y250228D02*
Y253772D01*
X159276Y252000D02*
X162819D01*
X164500Y236689D02*
Y240232D01*
X162728Y238461D02*
X166272D01*
X186000Y232189D02*
Y235732D01*
X184228Y233961D02*
X187772D01*
X199500Y224181D02*
Y227724D01*
X197728Y225953D02*
X201272D01*
X204228Y197461D02*
X207772D01*
X206000Y195689D02*
Y199232D01*
X209728Y220039D02*
X213272D01*
X211500Y218268D02*
Y221811D01*
X206728Y209539D02*
X210272D01*
X208500Y207768D02*
Y211311D01*
X166228Y197000D02*
X169772D01*
X168000Y195228D02*
Y198772D01*
X170500Y205776D02*
Y209319D01*
X168728Y207547D02*
X172272D01*
X172000Y220681D02*
Y224224D01*
X170228Y222453D02*
X173772D01*
D13*
X203009Y215627D02*
Y219200D01*
Y196873D02*
Y215627D01*
Y193300D02*
Y196873D01*
X199436Y193300D02*
X203009D01*
X180682D02*
X199436D01*
X177109D02*
X180682D01*
X177109D02*
Y196873D01*
Y215627D01*
Y219200D01*
X180682D01*
X199436D01*
X203009D01*
D41*
X161421Y267413D02*
X176579D01*
X161421Y281587D02*
X176579D01*
Y267413D02*
Y281587D01*
X161421Y267413D02*
Y281587D01*
X154551Y248063D02*
X167543D01*
X154551Y255937D02*
X167543D01*
Y248063D02*
Y255937D01*
X154551Y248063D02*
Y255937D01*
X161547Y233146D02*
X167453D01*
X161547Y243776D02*
X167453D01*
X161547Y233146D02*
Y243776D01*
X167453Y233146D02*
Y243776D01*
X183047Y239276D02*
X188953D01*
X183047Y228646D02*
X188953D01*
Y239276D01*
X183047Y228646D02*
Y239276D01*
X195563Y232449D02*
X203437D01*
X195563Y219457D02*
X203437D01*
Y232449D01*
X195563Y219457D02*
Y232449D01*
X203047Y192146D02*
Y202776D01*
X208953Y192146D02*
Y202776D01*
X203047Y192146D02*
X208953D01*
X203047Y202776D02*
X208953D01*
X214453Y214724D02*
Y225354D01*
X208547Y214724D02*
Y225354D01*
X214453D01*
X208547Y214724D02*
X214453D01*
X211453Y204224D02*
Y214854D01*
X205547Y204224D02*
Y214854D01*
X211453D01*
X205547Y204224D02*
X211453D01*
X174496Y193063D02*
Y200937D01*
X161504Y193063D02*
Y200937D01*
Y193063D02*
X174496D01*
X161504Y200937D02*
X174496D01*
X166563Y214043D02*
X174437D01*
X166563Y201051D02*
X174437D01*
Y214043D01*
X166563Y201051D02*
Y214043D01*
X168063Y215957D02*
X175937D01*
X168063Y228949D02*
X175937D01*
X168063Y215957D02*
Y228949D01*
X175937Y215957D02*
Y228949D01*
M02*
