G04*
G04 #@! TF.GenerationSoftware,Altium Limited,Altium Designer,25.8.1 (18)*
G04*
G04 Layer_Color=8388736*
%FSLAX25Y25*%
%MOIN*%
G70*
G04*
G04 #@! TF.SameCoordinates,43C0CF26-5D00-403A-8535-6070E817F6AF*
G04*
G04*
G04 #@! TF.FilePolarity,Negative*
G04*
G01*
G75*
%ADD17R,0.01800X0.01400*%
%ADD24R,0.01400X0.01800*%
%ADD25R,0.03950X0.03162*%
%ADD26R,0.02769X0.02769*%
%ADD27R,0.04540X0.04540*%
%ADD28R,0.11800X0.09800*%
G04:AMPARAMS|DCode=29|XSize=37.92mil|YSize=34mil|CornerRadius=7.25mil|HoleSize=0mil|Usage=FLASHONLY|Rotation=0.000|XOffset=0mil|YOffset=0mil|HoleType=Round|Shape=RoundedRectangle|*
%AMROUNDEDRECTD29*
21,1,0.03792,0.01950,0,0,0.0*
21,1,0.02342,0.03400,0,0,0.0*
1,1,0.01450,0.01171,-0.00975*
1,1,0.01450,-0.01171,-0.00975*
1,1,0.01450,-0.01171,0.00975*
1,1,0.01450,0.01171,0.00975*
%
%ADD29ROUNDEDRECTD29*%
G04:AMPARAMS|DCode=30|XSize=37.92mil|YSize=34mil|CornerRadius=7.25mil|HoleSize=0mil|Usage=FLASHONLY|Rotation=270.000|XOffset=0mil|YOffset=0mil|HoleType=Round|Shape=RoundedRectangle|*
%AMROUNDEDRECTD30*
21,1,0.03792,0.01950,0,0,270.0*
21,1,0.02342,0.03400,0,0,270.0*
1,1,0.01450,-0.00975,-0.01171*
1,1,0.01450,-0.00975,0.01171*
1,1,0.01450,0.00975,0.01171*
1,1,0.01450,0.00975,-0.01171*
%
%ADD30ROUNDEDRECTD30*%
%ADD31R,0.03950X0.04737*%
%ADD32R,0.04737X0.03950*%
%ADD33C,0.05512*%
%ADD34R,0.05512X0.05512*%
%ADD35C,0.05800*%
%ADD36C,0.20800*%
D17*
X179809Y198573D02*
D03*
X200309D02*
D03*
Y203691D02*
D03*
Y201132D02*
D03*
Y206250D02*
D03*
Y208809D02*
D03*
Y211368D02*
D03*
Y213927D02*
D03*
X179809D02*
D03*
Y211368D02*
D03*
Y208809D02*
D03*
Y206250D02*
D03*
Y203691D02*
D03*
Y201132D02*
D03*
D24*
X197736Y216500D02*
D03*
X195177D02*
D03*
X192618D02*
D03*
X190059D02*
D03*
X187500D02*
D03*
X184941D02*
D03*
X182382D02*
D03*
Y196000D02*
D03*
X184941D02*
D03*
X187500D02*
D03*
X190059D02*
D03*
X192618D02*
D03*
X195177D02*
D03*
X197736D02*
D03*
D25*
X174020Y278240D02*
D03*
Y270760D02*
D03*
X163980D02*
D03*
Y274500D02*
D03*
Y278240D02*
D03*
D26*
X176150Y238350D02*
D03*
X173000Y247799D02*
D03*
Y241500D02*
D03*
Y244650D02*
D03*
X176150Y250949D02*
D03*
X173000Y238350D02*
D03*
X179299D02*
D03*
Y241500D02*
D03*
Y244650D02*
D03*
Y247799D02*
D03*
Y250949D02*
D03*
X173000D02*
D03*
D27*
X164500Y240921D02*
D03*
X186000Y231500D02*
D03*
X206000Y195000D02*
D03*
X208500Y212000D02*
D03*
X211500Y222500D02*
D03*
X164500Y236000D02*
D03*
X208500Y207079D02*
D03*
X186000Y236421D02*
D03*
X211500Y217579D02*
D03*
X206000Y199921D02*
D03*
D28*
X190059Y206250D02*
D03*
D29*
X191500Y231000D02*
D03*
X211500Y195000D02*
D03*
X214000Y212091D02*
D03*
X206000Y222591D02*
D03*
X179000Y272500D02*
D03*
X214000Y206579D02*
D03*
X191500Y236512D02*
D03*
X179000Y278012D02*
D03*
X206000Y217079D02*
D03*
X211500Y200512D02*
D03*
D30*
X152744Y274000D02*
D03*
X158256D02*
D03*
D31*
X158095Y252000D02*
D03*
X165047Y197000D02*
D03*
X164000Y252000D02*
D03*
X170953Y197000D02*
D03*
D32*
X170500Y204594D02*
D03*
X172000Y225406D02*
D03*
X199500Y228906D02*
D03*
Y223000D02*
D03*
X170500Y210500D02*
D03*
X172000Y219500D02*
D03*
D33*
X141583Y265106D02*
D03*
Y255264D02*
D03*
Y245421D02*
D03*
Y235579D02*
D03*
Y225736D02*
D03*
Y215894D02*
D03*
Y206051D02*
D03*
D34*
Y274949D02*
D03*
D35*
X164000Y229000D02*
D03*
X157677Y239677D02*
D03*
X176500Y258000D02*
D03*
X189000Y244000D02*
D03*
X188000Y251000D02*
D03*
X189500Y224500D02*
D03*
X207850Y230009D02*
D03*
X161500Y262500D02*
D03*
X162500Y208500D02*
D03*
X156500Y203000D02*
D03*
X162891Y188416D02*
D03*
X179500Y224000D02*
D03*
D36*
X120000Y183071D02*
D03*
Y297500D02*
D03*
X227500Y183071D02*
D03*
Y297500D02*
D03*
M02*
