G04*
G04 #@! TF.GenerationSoftware,Altium Limited,Altium Designer,25.8.1 (18)*
G04*
G04 Layer_Color=16711935*
%FSLAX25Y25*%
%MOIN*%
G70*
G04*
G04 #@! TF.SameCoordinates,43C0CF26-5D00-403A-8535-6070E817F6AF*
G04*
G04*
G04 #@! TF.FilePolarity,Positive*
G04*
G01*
G75*
%ADD11C,0.00787*%
%ADD12C,0.00394*%
%ADD14C,0.00300*%
%ADD42C,0.00100*%
D11*
X171425Y235201D02*
X180874D01*
X171425D02*
Y254098D01*
X180874D01*
Y235201D02*
Y254098D01*
D12*
X165555Y268496D02*
X172445D01*
X165555Y280504D02*
X172445D01*
Y268496D02*
Y280504D01*
X165555Y268496D02*
Y280504D01*
X157701Y250228D02*
X164394D01*
X157701Y253772D02*
X164394D01*
Y250228D02*
Y253772D01*
X157701Y250228D02*
Y253772D01*
X162728Y235114D02*
X166272D01*
X162728Y241807D02*
X166272D01*
X162728Y235114D02*
Y241807D01*
X166272Y235114D02*
Y241807D01*
X184228Y237307D02*
X187772D01*
X184228Y230614D02*
X187772D01*
Y237307D01*
X184228Y230614D02*
Y237307D01*
X197728Y229299D02*
X201272D01*
X197728Y222606D02*
X201272D01*
Y229299D01*
X197728Y222606D02*
Y229299D01*
X204228Y194114D02*
Y200807D01*
X207772Y194114D02*
Y200807D01*
X204228Y194114D02*
X207772D01*
X204228Y200807D02*
X207772D01*
X213272Y216693D02*
Y223386D01*
X209728Y216693D02*
Y223386D01*
X213272D01*
X209728Y216693D02*
X213272D01*
X210272Y206193D02*
Y212886D01*
X206728Y206193D02*
Y212886D01*
X210272D01*
X206728Y206193D02*
X210272D01*
X171346Y195228D02*
Y198772D01*
X164654Y195228D02*
Y198772D01*
Y195228D02*
X171346D01*
X164654Y198772D02*
X171346D01*
X168728Y210894D02*
X172272D01*
X168728Y204201D02*
X172272D01*
Y210894D01*
X168728Y204201D02*
Y210894D01*
X170228Y219106D02*
X173772D01*
X170228Y225799D02*
X173772D01*
X170228Y219106D02*
Y225799D01*
X173772Y219106D02*
Y225799D01*
D14*
X200659Y195628D02*
X197327Y198960D01*
X200659D02*
X197327Y195628D01*
X200659Y197294D02*
X197327D01*
X198993Y198960D02*
Y195628D01*
X198809Y208750D02*
Y203752D01*
X196310D01*
X195477Y204585D01*
Y206251D01*
X196310Y207084D01*
X198809D01*
X197143D02*
X195477Y208750D01*
X191311D02*
X192978D01*
X193811Y207917D01*
Y206251D01*
X192978Y205418D01*
X191311D01*
X190478Y206251D01*
Y207084D01*
X193811D01*
X187979Y208750D02*
Y204585D01*
Y206251D01*
X188812D01*
X187146D01*
X187979D01*
Y204585D01*
X187146Y203752D01*
X184647D02*
Y208750D01*
X182148D01*
X181315Y207917D01*
Y204585D01*
X182148Y203752D01*
X184647D01*
X177149Y208750D02*
X178815D01*
X179648Y207917D01*
Y206251D01*
X178815Y205418D01*
X177149D01*
X176316Y206251D01*
Y207084D01*
X179648D01*
X174650Y208750D02*
X172151D01*
X171318Y207917D01*
X172151Y207084D01*
X173817D01*
X174650Y206251D01*
X173817Y205418D01*
X171318D01*
X166320Y208750D02*
X169652D01*
X166320Y205418D01*
Y204585D01*
X167153Y203752D01*
X168819D01*
X169652Y204585D01*
D42*
X197009Y194300D02*
X202009Y199300D01*
X181682Y194300D02*
X183082D01*
X181682D02*
Y195100D01*
X183082D01*
Y194300D02*
Y195100D01*
X184241Y194300D02*
X185641D01*
X184241D02*
Y195100D01*
X185641D01*
Y194300D02*
Y195100D01*
X186800Y194300D02*
X188200D01*
X186800D02*
Y195100D01*
X188200D01*
Y194300D02*
Y195100D01*
X189359Y194300D02*
X190759D01*
X189359D02*
Y195100D01*
X190759D01*
Y194300D02*
Y195100D01*
X191918Y194300D02*
X193318D01*
X191918D02*
Y195100D01*
X193318D01*
Y194300D02*
Y195100D01*
X194477Y194300D02*
X195877D01*
X194477D02*
Y195100D01*
X195877D01*
Y194300D02*
Y195100D01*
X197036Y194300D02*
X198436D01*
X197036D02*
Y195100D01*
X198436D01*
Y194300D02*
Y195100D01*
X202009Y197873D02*
Y199273D01*
X201209Y197873D02*
X202009D01*
X201209D02*
Y199273D01*
X202009D01*
Y200432D02*
Y201832D01*
X201209Y200432D02*
X202009D01*
X201209D02*
Y201832D01*
X202009D01*
Y202991D02*
Y204391D01*
X201209Y202991D02*
X202009D01*
X201209D02*
Y204391D01*
X202009D01*
Y205550D02*
Y206950D01*
X201209Y205550D02*
X202009D01*
X201209D02*
Y206950D01*
X202009D01*
Y208109D02*
Y209509D01*
X201209Y208109D02*
X202009D01*
X201209D02*
Y209509D01*
X202009D01*
Y210668D02*
Y212068D01*
X201209Y210668D02*
X202009D01*
X201209D02*
Y212068D01*
X202009D01*
Y213227D02*
Y214627D01*
X201209Y213227D02*
X202009D01*
X201209D02*
Y214627D01*
X202009D01*
X197036Y218200D02*
X198436D01*
Y217400D02*
Y218200D01*
X197036Y217400D02*
X198436D01*
X197036D02*
Y218200D01*
X194477D02*
X195877D01*
Y217400D02*
Y218200D01*
X194477Y217400D02*
X195877D01*
X194477D02*
Y218200D01*
X191918D02*
X193318D01*
Y217400D02*
Y218200D01*
X191918Y217400D02*
X193318D01*
X191918D02*
Y218200D01*
X189359D02*
X190759D01*
Y217400D02*
Y218200D01*
X189359Y217400D02*
X190759D01*
X189359D02*
Y218200D01*
X186800D02*
X188200D01*
Y217400D02*
Y218200D01*
X186800Y217400D02*
X188200D01*
X186800D02*
Y218200D01*
X184241D02*
X185641D01*
Y217400D02*
Y218200D01*
X184241Y217400D02*
X185641D01*
X184241D02*
Y218200D01*
X181682D02*
X183082D01*
Y217400D02*
Y218200D01*
X181682Y217400D02*
X183082D01*
X181682D02*
Y218200D01*
X178109Y213227D02*
Y214627D01*
X178909D01*
Y213227D02*
Y214627D01*
X178109Y213227D02*
X178909D01*
X178109Y210668D02*
Y212068D01*
X178909D01*
Y210668D02*
Y212068D01*
X178109Y210668D02*
X178909D01*
X178109Y208109D02*
Y209509D01*
X178909D01*
Y208109D02*
Y209509D01*
X178109Y208109D02*
X178909D01*
X178109Y205550D02*
Y206950D01*
X178909D01*
Y205550D02*
Y206950D01*
X178109Y205550D02*
X178909D01*
X178109Y202991D02*
Y204391D01*
X178909D01*
Y202991D02*
Y204391D01*
X178109Y202991D02*
X178909D01*
X178109Y200432D02*
Y201832D01*
X178909D01*
Y200432D02*
Y201832D01*
X178109Y200432D02*
X178909D01*
X178109Y197873D02*
Y199273D01*
X178909D01*
Y197873D02*
Y199273D01*
X178109Y197873D02*
X178909D01*
X178109Y218200D02*
X202009D01*
X178109Y194300D02*
Y218200D01*
Y194300D02*
X202009D01*
Y218200D01*
M02*
