G04*
G04 #@! TF.GenerationSoftware,Altium Limited,Altium Designer,25.8.1 (18)*
G04*
G04 Layer_Physical_Order=1*
G04 Layer_Color=255*
%FSLAX25Y25*%
%MOIN*%
G70*
G04*
G04 #@! TF.SameCoordinates,43C0CF26-5D00-403A-8535-6070E817F6AF*
G04*
G04*
G04 #@! TF.FilePolarity,Positive*
G04*
G01*
G75*
%ADD16R,0.03150X0.02362*%
%ADD17R,0.01800X0.01400*%
%ADD18R,0.01968X0.01968*%
%ADD19R,0.03740X0.03740*%
G04:AMPARAMS|DCode=20|XSize=29.92mil|YSize=26mil|CornerRadius=3.25mil|HoleSize=0mil|Usage=FLASHONLY|Rotation=0.000|XOffset=0mil|YOffset=0mil|HoleType=Round|Shape=RoundedRectangle|*
%AMROUNDEDRECTD20*
21,1,0.02992,0.01950,0,0,0.0*
21,1,0.02342,0.02600,0,0,0.0*
1,1,0.00650,0.01171,-0.00975*
1,1,0.00650,-0.01171,-0.00975*
1,1,0.00650,-0.01171,0.00975*
1,1,0.00650,0.01171,0.00975*
%
%ADD20ROUNDEDRECTD20*%
G04:AMPARAMS|DCode=21|XSize=29.92mil|YSize=26mil|CornerRadius=3.25mil|HoleSize=0mil|Usage=FLASHONLY|Rotation=270.000|XOffset=0mil|YOffset=0mil|HoleType=Round|Shape=RoundedRectangle|*
%AMROUNDEDRECTD21*
21,1,0.02992,0.01950,0,0,270.0*
21,1,0.02342,0.02600,0,0,270.0*
1,1,0.00650,-0.00975,-0.01171*
1,1,0.00650,-0.00975,0.01171*
1,1,0.00650,0.00975,0.01171*
1,1,0.00650,0.00975,-0.01171*
%
%ADD21ROUNDEDRECTD21*%
%ADD22R,0.03150X0.03937*%
%ADD23R,0.03937X0.03150*%
%ADD24R,0.01400X0.01800*%
%ADD28R,0.11800X0.09800*%
%ADD33C,0.05512*%
%ADD34R,0.05512X0.05512*%
%ADD37C,0.02000*%
%ADD38C,0.01500*%
%ADD39C,0.05000*%
%ADD40C,0.20000*%
G36*
X234861Y309190D02*
X236462Y308527D01*
X237902Y307564D01*
X239127Y306339D01*
X240090Y304899D01*
X240753Y303298D01*
X241091Y301599D01*
Y300732D01*
Y179000D01*
Y178134D01*
X240753Y176434D01*
X240090Y174834D01*
X239127Y173393D01*
X237902Y172168D01*
X236462Y171205D01*
X234861Y170542D01*
X233162Y170204D01*
X113634D01*
X111934Y170542D01*
X110334Y171205D01*
X108893Y172168D01*
X107668Y173393D01*
X106705Y174834D01*
X106042Y176434D01*
X105704Y178134D01*
Y179000D01*
Y300732D01*
Y301599D01*
X106042Y303298D01*
X106705Y304899D01*
X107668Y306339D01*
X108893Y307564D01*
X110334Y308527D01*
X111934Y309190D01*
X113634Y309528D01*
X233162D01*
X234861Y309190D01*
D02*
G37*
%LPC*%
G36*
X153696Y281578D02*
X153696Y281578D01*
X146390D01*
X145692Y281440D01*
X145101Y281045D01*
X145101Y281045D01*
X142549Y278492D01*
X138039D01*
Y271406D01*
X145126D01*
Y275915D01*
X147145Y277934D01*
X152941D01*
X154065Y276810D01*
X153892Y276488D01*
X153744Y276517D01*
Y274000D01*
Y271483D01*
X154236Y271581D01*
X154674Y271874D01*
X154967Y272312D01*
X155070Y272829D01*
Y274393D01*
X155391Y274458D01*
X155420Y274451D01*
X155808Y273871D01*
X155967Y273711D01*
X156147Y273591D01*
Y272829D01*
X156233Y272395D01*
X156479Y272027D01*
X156847Y271781D01*
X157281Y271695D01*
X158148D01*
X159760Y270082D01*
X160269Y269743D01*
X160869Y269623D01*
X161618D01*
Y268791D01*
X166342D01*
Y272319D01*
X166555D01*
Y273500D01*
X163980D01*
Y275500D01*
X166555D01*
Y276681D01*
X166342D01*
Y277512D01*
X166428Y277640D01*
X166548Y278240D01*
X166428Y278840D01*
X166342Y278969D01*
Y280209D01*
X161618D01*
Y280063D01*
X158981D01*
X158981Y280063D01*
X158284Y279924D01*
X157902Y279668D01*
X156361D01*
X154985Y281045D01*
X154393Y281440D01*
X153696Y281578D01*
D02*
G37*
G36*
X151744Y276517D02*
X151252Y276419D01*
X150814Y276126D01*
X150521Y275688D01*
X150418Y275171D01*
Y275000D01*
X151744D01*
Y276517D01*
D02*
G37*
G36*
X180171Y274826D02*
X180000D01*
Y273500D01*
X181517D01*
X181419Y273992D01*
X181126Y274430D01*
X180688Y274723D01*
X180171Y274826D01*
D02*
G37*
G36*
X151744Y273000D02*
X150418D01*
Y272829D01*
X150521Y272312D01*
X150814Y271874D01*
X151252Y271581D01*
X151744Y271483D01*
Y273000D01*
D02*
G37*
G36*
X181517Y271500D02*
X180000D01*
Y270174D01*
X180171D01*
X180688Y270277D01*
X181126Y270570D01*
X181419Y271008D01*
X181517Y271500D01*
D02*
G37*
G36*
X178000Y274826D02*
X177829D01*
X177312Y274723D01*
X176874Y274430D01*
X176581Y273992D01*
X176478Y273475D01*
Y273039D01*
X176382Y272728D01*
X176128Y272728D01*
X171658D01*
Y268791D01*
X176382D01*
Y270676D01*
X176732Y270782D01*
X176874Y270570D01*
X177312Y270277D01*
X177829Y270174D01*
X178000D01*
Y272500D01*
Y274826D01*
D02*
G37*
G36*
X142583Y268727D02*
Y266106D01*
X145203D01*
X145083Y266556D01*
X144588Y267412D01*
X143889Y268112D01*
X143032Y268606D01*
X142583Y268727D01*
D02*
G37*
G36*
X140583D02*
X140133Y268606D01*
X139277Y268112D01*
X138577Y267412D01*
X138083Y266556D01*
X137962Y266106D01*
X140583D01*
Y268727D01*
D02*
G37*
G36*
X145203Y264106D02*
X142583D01*
Y261486D01*
X143032Y261606D01*
X143889Y262101D01*
X144588Y262800D01*
X145083Y263657D01*
X145203Y264106D01*
D02*
G37*
G36*
X140583D02*
X137962D01*
X138083Y263657D01*
X138577Y262800D01*
X139277Y262101D01*
X140133Y261606D01*
X140583Y261486D01*
Y264106D01*
D02*
G37*
G36*
X142049Y258807D02*
X141116D01*
X140215Y258566D01*
X139407Y258099D01*
X138747Y257439D01*
X138281Y256631D01*
X138039Y255730D01*
Y254797D01*
X138281Y253896D01*
X138747Y253088D01*
X139407Y252428D01*
X140215Y251962D01*
X141116Y251720D01*
X142049D01*
X142950Y251962D01*
X143758Y252428D01*
X144418Y253088D01*
X144885Y253896D01*
X145126Y254797D01*
Y255730D01*
X144885Y256631D01*
X144418Y257439D01*
X143758Y258099D01*
X142950Y258566D01*
X142049Y258807D01*
D02*
G37*
G36*
Y248965D02*
X141116D01*
X140215Y248723D01*
X139407Y248257D01*
X138747Y247597D01*
X138281Y246789D01*
X138039Y245888D01*
Y244955D01*
X138281Y244054D01*
X138747Y243246D01*
X139407Y242586D01*
X140215Y242119D01*
X141116Y241878D01*
X142049D01*
X142950Y242119D01*
X143758Y242586D01*
X144418Y243246D01*
X144885Y244054D01*
X145126Y244955D01*
Y245888D01*
X144885Y246789D01*
X144418Y247597D01*
X143758Y248257D01*
X142950Y248723D01*
X142049Y248965D01*
D02*
G37*
G36*
Y239122D02*
X141116D01*
X140215Y238881D01*
X139407Y238414D01*
X138747Y237754D01*
X138281Y236946D01*
X138039Y236045D01*
Y235112D01*
X138281Y234211D01*
X138747Y233403D01*
X139407Y232743D01*
X140215Y232277D01*
X141116Y232035D01*
X142049D01*
X142950Y232277D01*
X143758Y232743D01*
X144418Y233403D01*
X144885Y234211D01*
X145126Y235112D01*
Y236045D01*
X144885Y236946D01*
X144418Y237754D01*
X143758Y238414D01*
X142950Y238881D01*
X142049Y239122D01*
D02*
G37*
G36*
X192671Y233326D02*
X192500D01*
Y232000D01*
X194017D01*
X193919Y232492D01*
X193626Y232930D01*
X193188Y233223D01*
X192671Y233326D01*
D02*
G37*
G36*
X194017Y230000D02*
X192500D01*
Y228674D01*
X192671D01*
X193188Y228777D01*
X193626Y229070D01*
X193919Y229508D01*
X194017Y230000D01*
D02*
G37*
G36*
X185000Y230500D02*
X183130D01*
Y228630D01*
X185000D01*
Y230500D01*
D02*
G37*
G36*
X205000Y224917D02*
X204829D01*
X204312Y224814D01*
X203874Y224521D01*
X203581Y224082D01*
X203483Y223591D01*
X205000D01*
Y224917D01*
D02*
G37*
G36*
X214370Y225370D02*
X212500D01*
Y223500D01*
X214370D01*
Y225370D01*
D02*
G37*
G36*
X205000Y221591D02*
X203483D01*
X203581Y221099D01*
X203874Y220660D01*
X204312Y220367D01*
X204829Y220265D01*
X205000D01*
Y221591D01*
D02*
G37*
G36*
X176382Y280209D02*
X171658D01*
Y276272D01*
X176382D01*
Y276304D01*
X176981D01*
X177027Y276235D01*
X177395Y275989D01*
X177829Y275903D01*
X179345D01*
X179412Y275889D01*
X179623D01*
X180184Y275778D01*
X180184Y275778D01*
X181022D01*
X223178Y233622D01*
Y203255D01*
X222257Y202334D01*
X213405D01*
X213105Y202535D01*
X212671Y202621D01*
X210329D01*
X209895Y202535D01*
X209527Y202289D01*
X209360Y202039D01*
X208658D01*
Y202579D01*
X207035D01*
X206901Y202902D01*
X208420Y204421D01*
X211157D01*
Y205006D01*
X211890D01*
X212027Y204802D01*
X212395Y204556D01*
X212829Y204470D01*
X215171D01*
X215605Y204556D01*
X215905Y204756D01*
X216846D01*
X217544Y204895D01*
X218135Y205290D01*
X218530Y205881D01*
X218669Y206579D01*
Y206591D01*
X219289Y207211D01*
X219289Y207211D01*
X219684Y207803D01*
X219822Y208500D01*
Y228884D01*
X219822Y228884D01*
X219684Y229581D01*
X219289Y230172D01*
X219289Y230172D01*
X200832Y248629D01*
X200471Y248870D01*
X200231Y249231D01*
X184672Y264789D01*
X184081Y265184D01*
X183384Y265322D01*
X183384Y265322D01*
X163312D01*
X163218Y265304D01*
X162769Y265563D01*
X161933Y265787D01*
X161067D01*
X160231Y265563D01*
X159482Y265131D01*
X158869Y264518D01*
X158437Y263769D01*
X158213Y262933D01*
Y262067D01*
X158437Y261231D01*
X158869Y260482D01*
X159078Y260273D01*
Y259655D01*
X156806Y257383D01*
X156411Y256792D01*
X156272Y256095D01*
X156272Y256094D01*
Y254756D01*
X155732D01*
Y249260D01*
X152938D01*
X152938Y249260D01*
X152240Y249121D01*
X151649Y248726D01*
X151649Y248726D01*
X149211Y246289D01*
X148816Y245697D01*
X148678Y245000D01*
X148678Y245000D01*
Y238500D01*
X148678Y238500D01*
X148816Y237803D01*
X149211Y237211D01*
X158711Y227711D01*
X158711Y227711D01*
X159303Y227316D01*
X160000Y227178D01*
X160000Y227178D01*
X161256D01*
X161369Y226981D01*
X161981Y226369D01*
X162127Y226286D01*
X162443Y225970D01*
X162443Y225969D01*
X164295Y224117D01*
X164295Y224117D01*
X164887Y223722D01*
X165584Y223583D01*
X165584Y223583D01*
X169244D01*
Y223043D01*
X174756D01*
Y227768D01*
X169244D01*
Y227228D01*
X167123D01*
X166948Y227531D01*
X167063Y227731D01*
X167287Y228567D01*
Y229433D01*
X167063Y230269D01*
X166631Y231018D01*
X166072Y231577D01*
Y233343D01*
X167157D01*
Y234178D01*
X170650D01*
X170650Y234178D01*
X171347Y234316D01*
X171938Y234711D01*
X173806Y236579D01*
X174165D01*
Y236366D01*
X175150D01*
Y238350D01*
X177150D01*
Y236366D01*
X178134D01*
Y236579D01*
X178494D01*
X179940Y235133D01*
X179940Y235133D01*
X180531Y234738D01*
X181228Y234599D01*
X181228Y234599D01*
X182875D01*
X183130Y234370D01*
Y232500D01*
X186000D01*
Y231500D01*
X187000D01*
Y228630D01*
X188870D01*
Y229193D01*
X189220Y229300D01*
X189374Y229070D01*
X189812Y228777D01*
X190329Y228674D01*
X190500D01*
Y231000D01*
Y233326D01*
X190329D01*
X189812Y233223D01*
X189374Y232930D01*
X189220Y232700D01*
X188870Y232807D01*
Y234370D01*
X189053Y234644D01*
X189663D01*
X189895Y234489D01*
X190329Y234403D01*
X192671D01*
X193105Y234489D01*
X193473Y234735D01*
X193719Y235103D01*
X193805Y235537D01*
Y237487D01*
X193733Y237852D01*
X195924Y240043D01*
X195924Y240043D01*
X196319Y240634D01*
X196458Y241331D01*
X196458Y241331D01*
Y242793D01*
X197354Y243690D01*
X197678Y243556D01*
Y231268D01*
X196744D01*
Y226543D01*
X202256D01*
Y231268D01*
X201322D01*
Y242527D01*
X201646Y242661D01*
X216178Y228129D01*
Y214407D01*
X215828Y214220D01*
X215688Y214314D01*
X215171Y214417D01*
X215000D01*
Y212091D01*
X213000D01*
Y214417D01*
X212829D01*
X212312Y214314D01*
X211874Y214021D01*
X211720Y213791D01*
X211370Y213897D01*
Y214870D01*
X211699Y214921D01*
X214158D01*
Y219630D01*
X214370D01*
Y221500D01*
X211500D01*
Y222500D01*
X210500D01*
Y225370D01*
X208630D01*
Y224397D01*
X208280Y224291D01*
X208126Y224521D01*
X207688Y224814D01*
X207171Y224917D01*
X207000D01*
Y222591D01*
Y220265D01*
X207171D01*
X207688Y220367D01*
X208126Y220660D01*
X208280Y220890D01*
X208630Y220784D01*
Y219630D01*
X208842D01*
Y218896D01*
X207912D01*
X207605Y219102D01*
X207171Y219188D01*
X204829D01*
X204395Y219102D01*
X204027Y218856D01*
X203781Y218488D01*
X203695Y218054D01*
Y216990D01*
X203392Y216687D01*
X203052Y216179D01*
X202933Y215579D01*
Y209228D01*
X202320Y208615D01*
X201996Y208749D01*
Y212440D01*
Y215414D01*
X201876D01*
Y217672D01*
X201757Y218271D01*
X201417Y218780D01*
X201067Y219130D01*
Y220638D01*
X202256D01*
Y225362D01*
X196744D01*
Y220638D01*
X197933D01*
Y218481D01*
X197937Y218458D01*
X197715Y218187D01*
X181068D01*
Y221109D01*
X181518Y221369D01*
X182131Y221982D01*
X182563Y222731D01*
X182787Y223567D01*
Y224433D01*
X182563Y225269D01*
X182131Y226019D01*
X181518Y226631D01*
X180769Y227063D01*
X179933Y227287D01*
X179067D01*
X178231Y227063D01*
X177481Y226631D01*
X176869Y226019D01*
X176437Y225269D01*
X176213Y224433D01*
Y223567D01*
X176437Y222731D01*
X176869Y221982D01*
X177481Y221369D01*
X177933Y221109D01*
Y218649D01*
X176392Y217108D01*
X176076Y216636D01*
X175979Y216583D01*
X175699Y216518D01*
X174756Y217461D01*
Y221862D01*
X169244D01*
Y221068D01*
X148468D01*
X144944Y224591D01*
X145126Y225270D01*
Y226203D01*
X144885Y227104D01*
X144418Y227912D01*
X143758Y228572D01*
X142950Y229038D01*
X142049Y229279D01*
X141116D01*
X140215Y229038D01*
X139407Y228572D01*
X138747Y227912D01*
X138281Y227104D01*
X138039Y226203D01*
Y225270D01*
X138281Y224369D01*
X138747Y223561D01*
X139407Y222901D01*
X140215Y222434D01*
X141116Y222193D01*
X142049D01*
X142727Y222375D01*
X146711Y218392D01*
X147219Y218052D01*
X147819Y217933D01*
X169244D01*
Y217138D01*
X171607D01*
Y216825D01*
X171727Y216225D01*
X172066Y215717D01*
X173433Y214351D01*
Y213139D01*
X173256Y212862D01*
X170355D01*
X166215Y217002D01*
X165706Y217342D01*
X165106Y217461D01*
X144769D01*
X144418Y218069D01*
X143758Y218729D01*
X142950Y219196D01*
X142049Y219437D01*
X141116D01*
X140215Y219196D01*
X139407Y218729D01*
X138747Y218069D01*
X138281Y217261D01*
X138039Y216360D01*
Y215427D01*
X138281Y214526D01*
X138747Y213718D01*
X139407Y213058D01*
X140215Y212592D01*
X141116Y212350D01*
X142049D01*
X142950Y212592D01*
X143758Y213058D01*
X144418Y213718D01*
X144769Y214326D01*
X164457D01*
X167744Y211039D01*
Y208138D01*
X171039D01*
X171897Y207280D01*
X171763Y206957D01*
X167744D01*
Y206162D01*
X166002D01*
X165799Y206365D01*
X165586Y206683D01*
X165371Y206898D01*
X165563Y207231D01*
X165787Y208067D01*
Y208933D01*
X165563Y209769D01*
X165131Y210519D01*
X164518Y211131D01*
X163769Y211563D01*
X162933Y211787D01*
X162067D01*
X161231Y211563D01*
X160482Y211131D01*
X159869Y210519D01*
X159437Y209769D01*
X159213Y208933D01*
Y208067D01*
X159437Y207231D01*
X159869Y206482D01*
X160482Y205869D01*
X160933Y205609D01*
Y199941D01*
X161052Y199341D01*
X161392Y198832D01*
X162685Y197539D01*
Y194244D01*
X167409D01*
Y199756D01*
X164902D01*
X164067Y200590D01*
Y203183D01*
X164418Y203370D01*
X164753Y203146D01*
X165353Y203027D01*
X167744D01*
Y202232D01*
X172975D01*
X173080Y202232D01*
X173224Y201882D01*
X171098Y199756D01*
X168591D01*
Y194244D01*
X168617D01*
X168751Y193921D01*
X165393Y190563D01*
X164910Y191047D01*
X164160Y191480D01*
X163324Y191704D01*
X162459D01*
X161622Y191480D01*
X160873Y191047D01*
X160261Y190435D01*
X159828Y189685D01*
X159604Y188849D01*
Y187983D01*
X159828Y187147D01*
X160261Y186398D01*
X160873Y185786D01*
X161622Y185353D01*
X162459Y185129D01*
X163324D01*
X164160Y185353D01*
X164910Y185786D01*
X165522Y186398D01*
X165955Y187147D01*
X165974Y187218D01*
X166398Y187302D01*
X166906Y187642D01*
X172061Y192797D01*
X172401Y193306D01*
X172520Y193905D01*
Y194244D01*
X173315D01*
Y197539D01*
X177772Y201996D01*
X178122Y201851D01*
Y200273D01*
X177909D01*
Y199573D01*
X179809D01*
Y198573D01*
X180809D01*
Y196873D01*
X180895D01*
Y194313D01*
X199223D01*
Y196873D01*
X199309D01*
Y198573D01*
X201309D01*
Y196873D01*
X202209D01*
Y199310D01*
X203343D01*
Y197870D01*
X203130D01*
Y196000D01*
X206000D01*
Y195000D01*
X207000D01*
Y192130D01*
X208870D01*
Y193193D01*
X209220Y193300D01*
X209374Y193070D01*
X209812Y192777D01*
X210329Y192674D01*
X210500D01*
Y195000D01*
Y197326D01*
X210329D01*
X209812Y197223D01*
X209374Y196930D01*
X209220Y196700D01*
X208870Y196807D01*
Y197870D01*
X208658D01*
Y198394D01*
X211205D01*
X211247Y198403D01*
X212671D01*
X213105Y198489D01*
X213405Y198689D01*
X223012D01*
X223012Y198689D01*
X223709Y198828D01*
X224301Y199223D01*
X226289Y201211D01*
X226289Y201211D01*
X226684Y201803D01*
X226822Y202500D01*
X226822Y202500D01*
Y234377D01*
X226822Y234377D01*
X226684Y235074D01*
X226289Y235666D01*
X226289Y235666D01*
X183065Y278889D01*
X182474Y279284D01*
X181777Y279423D01*
X181777Y279423D01*
X181218D01*
X180973Y279789D01*
X180605Y280035D01*
X180171Y280121D01*
X177829D01*
X177395Y280035D01*
X177266Y279948D01*
X176382D01*
Y280209D01*
D02*
G37*
G36*
X142049Y209594D02*
X141116D01*
X140215Y209353D01*
X139407Y208887D01*
X138747Y208227D01*
X138281Y207419D01*
X138039Y206518D01*
Y205585D01*
X138281Y204683D01*
X138747Y203875D01*
X139407Y203216D01*
X140215Y202749D01*
X141116Y202508D01*
X142049D01*
X142950Y202749D01*
X143758Y203216D01*
X144418Y203875D01*
X144769Y204484D01*
X148101D01*
X150693Y201892D01*
X151201Y201552D01*
X151801Y201432D01*
X153609D01*
X153869Y200981D01*
X154481Y200369D01*
X155231Y199937D01*
X156067Y199713D01*
X156933D01*
X157769Y199937D01*
X158519Y200369D01*
X159131Y200981D01*
X159563Y201731D01*
X159787Y202567D01*
Y203433D01*
X159563Y204269D01*
X159131Y205018D01*
X158519Y205631D01*
X157769Y206063D01*
X156933Y206287D01*
X156067D01*
X155231Y206063D01*
X154481Y205631D01*
X153869Y205018D01*
X153609Y204568D01*
X152451D01*
X149859Y207160D01*
X149350Y207499D01*
X148750Y207619D01*
X144769D01*
X144418Y208227D01*
X143758Y208887D01*
X142950Y209353D01*
X142049Y209594D01*
D02*
G37*
G36*
X178809Y197573D02*
X177909D01*
Y196873D01*
X178809D01*
Y197573D01*
D02*
G37*
G36*
X212671Y197326D02*
X212500D01*
Y196000D01*
X214017D01*
X213919Y196492D01*
X213626Y196930D01*
X213188Y197223D01*
X212671Y197326D01*
D02*
G37*
G36*
X214017Y194000D02*
X212500D01*
Y192674D01*
X212671D01*
X213188Y192777D01*
X213626Y193070D01*
X213919Y193508D01*
X214017Y194000D01*
D02*
G37*
G36*
X205000D02*
X203130D01*
Y192130D01*
X205000D01*
Y194000D01*
D02*
G37*
%LPD*%
G36*
X196408Y247898D02*
X193346Y244837D01*
X192951Y244246D01*
X192813Y243548D01*
X192813Y243548D01*
Y242086D01*
X190385Y239659D01*
X189990Y239067D01*
X189882Y238526D01*
X189527Y238289D01*
X188657D01*
Y239079D01*
X183343D01*
Y238244D01*
X181983D01*
X181071Y239156D01*
Y239932D01*
X186409D01*
X187009Y240052D01*
X187517Y240392D01*
X187992Y240867D01*
X188567Y240713D01*
X189433D01*
X190269Y240937D01*
X191018Y241369D01*
X191631Y241982D01*
X192063Y242731D01*
X192287Y243567D01*
Y244433D01*
X192063Y245269D01*
X191631Y246019D01*
X191018Y246631D01*
X190269Y247063D01*
X189433Y247287D01*
X188567D01*
X187731Y247063D01*
X186981Y246631D01*
X186369Y246019D01*
X185937Y245269D01*
X185713Y244433D01*
Y243567D01*
X185753Y243418D01*
X185484Y243068D01*
X182679D01*
X182573Y243418D01*
X182758Y243541D01*
X187064Y247847D01*
X187567Y247713D01*
X188433D01*
X189269Y247937D01*
X190018Y248369D01*
X190631Y248981D01*
X191063Y249731D01*
X191287Y250567D01*
Y251433D01*
X191063Y252269D01*
X190631Y253018D01*
X190018Y253631D01*
X189269Y254063D01*
X188433Y254287D01*
X187567D01*
X186731Y254063D01*
X185982Y253631D01*
X185369Y253018D01*
X184937Y252269D01*
X184713Y251433D01*
Y250567D01*
X184847Y250064D01*
X181394Y246611D01*
X181071Y246745D01*
Y249177D01*
Y252720D01*
X178134D01*
Y252933D01*
X177150D01*
Y250949D01*
X175150D01*
Y252933D01*
X174165D01*
Y252720D01*
X173445D01*
X173057Y253108D01*
X172549Y253448D01*
X171949Y253568D01*
X166362D01*
Y254756D01*
X161638D01*
Y249244D01*
X166362D01*
Y250432D01*
X171228D01*
Y249783D01*
X171016D01*
Y248799D01*
X173000D01*
Y246799D01*
X171016D01*
Y245815D01*
Y245650D01*
X173000D01*
Y243650D01*
X171016D01*
Y242665D01*
Y242500D01*
X173000D01*
Y240500D01*
X171016D01*
Y239516D01*
X171228D01*
Y239156D01*
X169895Y237822D01*
X167625D01*
X167370Y238051D01*
Y239921D01*
X164500D01*
X161630D01*
Y238051D01*
X161843D01*
Y233343D01*
X162428D01*
Y231888D01*
X161981Y231631D01*
X161369Y231018D01*
X161256Y230822D01*
X160755D01*
X152322Y239255D01*
Y244245D01*
X153692Y245615D01*
X157027D01*
X157027Y245615D01*
X157724Y245754D01*
X158316Y246149D01*
X159383Y247217D01*
X159383Y247217D01*
X159778Y247808D01*
X159917Y248505D01*
X159917Y248505D01*
Y249244D01*
X160457D01*
Y254756D01*
X159917D01*
Y255340D01*
X162189Y257611D01*
X162584Y258203D01*
X162722Y258900D01*
X162722Y258900D01*
Y259424D01*
X162769Y259437D01*
X163519Y259869D01*
X164131Y260482D01*
X164563Y261231D01*
X164683Y261678D01*
X182629D01*
X196408Y247898D01*
D02*
G37*
G36*
X198622Y209881D02*
Y207322D01*
Y204370D01*
X198487Y203691D01*
X198622Y203012D01*
Y201811D01*
X198487Y201132D01*
X198588Y200623D01*
X198409Y200273D01*
X198409D01*
Y197687D01*
X181709D01*
Y200273D01*
X181496D01*
Y204763D01*
Y207322D01*
Y209881D01*
Y214813D01*
X198622D01*
Y209881D01*
D02*
G37*
%LPC*%
G36*
X167370Y243791D02*
X165500D01*
Y241921D01*
X167370D01*
Y243791D01*
D02*
G37*
G36*
X163500D02*
X161630D01*
Y241921D01*
X163500D01*
Y243791D01*
D02*
G37*
G36*
X196959Y212150D02*
X191059D01*
Y207250D01*
X196959D01*
Y212150D01*
D02*
G37*
G36*
X189059D02*
X183159D01*
Y207250D01*
X189059D01*
Y212150D01*
D02*
G37*
G36*
X196959Y205250D02*
X191059D01*
Y200350D01*
X196959D01*
Y205250D01*
D02*
G37*
G36*
X189059D02*
X183159D01*
Y200350D01*
X189059D01*
Y205250D01*
D02*
G37*
%LPD*%
D16*
X174020Y278240D02*
D03*
Y270760D02*
D03*
X163980D02*
D03*
Y274500D02*
D03*
Y278240D02*
D03*
D17*
X179809Y198573D02*
D03*
X200309D02*
D03*
Y203691D02*
D03*
Y201132D02*
D03*
Y206250D02*
D03*
Y208809D02*
D03*
Y211368D02*
D03*
Y213927D02*
D03*
X179809D02*
D03*
Y211368D02*
D03*
Y208809D02*
D03*
Y206250D02*
D03*
Y203691D02*
D03*
Y201132D02*
D03*
D18*
X176150Y238350D02*
D03*
X173000Y247799D02*
D03*
Y241500D02*
D03*
Y244650D02*
D03*
X176150Y250949D02*
D03*
X173000Y238350D02*
D03*
X179299D02*
D03*
Y241500D02*
D03*
Y244650D02*
D03*
Y247799D02*
D03*
Y250949D02*
D03*
X173000D02*
D03*
D19*
X164500Y240921D02*
D03*
X186000Y231500D02*
D03*
X206000Y195000D02*
D03*
X208500Y212000D02*
D03*
X211500Y222500D02*
D03*
X164500Y236000D02*
D03*
X208500Y207079D02*
D03*
X186000Y236421D02*
D03*
X211500Y217579D02*
D03*
X206000Y199921D02*
D03*
D20*
X191500Y231000D02*
D03*
X211500Y195000D02*
D03*
X214000Y212091D02*
D03*
X206000Y222591D02*
D03*
X179000Y272500D02*
D03*
X214000Y206579D02*
D03*
X191500Y236512D02*
D03*
X179000Y278012D02*
D03*
X206000Y217079D02*
D03*
X211500Y200512D02*
D03*
D21*
X152744Y274000D02*
D03*
X158256D02*
D03*
D22*
X158095Y252000D02*
D03*
X165047Y197000D02*
D03*
X164000Y252000D02*
D03*
X170953Y197000D02*
D03*
D23*
X170500Y204594D02*
D03*
X172000Y225406D02*
D03*
X199500Y228906D02*
D03*
Y223000D02*
D03*
X170500Y210500D02*
D03*
X172000Y219500D02*
D03*
D24*
X197736Y216500D02*
D03*
X195177D02*
D03*
X192618D02*
D03*
X190059D02*
D03*
X187500D02*
D03*
X184941D02*
D03*
X182382D02*
D03*
Y196000D02*
D03*
X184941D02*
D03*
X187500D02*
D03*
X190059D02*
D03*
X192618D02*
D03*
X195177D02*
D03*
X197736D02*
D03*
D28*
X190059Y206250D02*
D03*
D33*
X141583Y265106D02*
D03*
Y255264D02*
D03*
Y245421D02*
D03*
Y235579D02*
D03*
Y225736D02*
D03*
Y215894D02*
D03*
Y206051D02*
D03*
D34*
Y274949D02*
D03*
D37*
X194635Y241331D02*
Y243548D01*
X198942Y247855D01*
X191674Y238370D02*
X194635Y241331D01*
X150500Y238500D02*
X160000Y229000D01*
X162857Y228132D02*
X163732Y227258D01*
X160000Y229000D02*
X164000D01*
X164500Y228500D01*
X164250Y235750D02*
X164500Y236000D01*
X164000Y229000D02*
X164250Y229250D01*
X164500Y227000D02*
Y228500D01*
X164250Y229250D02*
Y235750D01*
X163732Y227258D02*
X165584Y225406D01*
X172000D01*
X157097Y275159D02*
X157256Y275000D01*
X157097Y275159D02*
Y277846D01*
X158587D01*
X158981Y278240D01*
X153696Y279756D02*
X155606Y277846D01*
X157097D01*
X150500Y238500D02*
Y245000D01*
X152938Y247438D01*
X157027D01*
X158095Y248505D01*
Y252000D01*
X183384Y263500D02*
X198942Y247942D01*
X162312Y262500D02*
X163312Y263500D01*
X183384D01*
X161500Y262500D02*
X162312D01*
X181777Y277600D02*
X225000Y234377D01*
Y202500D02*
Y234377D01*
X158095Y256095D02*
X160900Y258900D01*
X158095Y252000D02*
Y256095D01*
X160900Y258900D02*
Y261900D01*
X141583Y274949D02*
X146390Y279756D01*
X153696D01*
X200309Y203691D02*
X205112D01*
X208500Y207079D01*
X208750Y206829D02*
X213750D01*
X214000Y206579D02*
X216846D01*
Y207346D01*
X218000Y208500D01*
X181228Y236421D02*
X186000D01*
X179299Y238350D02*
X181228Y236421D01*
X186045Y236467D02*
X191455D01*
X158981Y278240D02*
X163980D01*
X164500Y236000D02*
X170650D01*
X173000Y238350D01*
X218000Y208500D02*
Y228884D01*
X199543Y247340D02*
X218000Y228884D01*
X199500Y228906D02*
Y247297D01*
X179412Y277712D02*
X180073D01*
X180184Y277600D01*
X175134Y278126D02*
X179000D01*
X180184Y277600D02*
X181777D01*
X223012Y200512D02*
X225000Y202500D01*
X211500Y200512D02*
X223012D01*
X206295Y200217D02*
X211205D01*
X200309Y201132D02*
X204789D01*
D38*
X157256Y274804D02*
Y275000D01*
Y274804D02*
X160869Y271191D01*
X163549D01*
X147819Y219500D02*
X172000D01*
X141583Y225736D02*
X142319Y225000D01*
X141583Y225736D02*
X147819Y219500D01*
X172000D02*
X172350D01*
X188909Y244000D02*
X189000D01*
X186409Y241500D02*
X188909Y244000D01*
X179299Y241500D02*
X186409D01*
X181650Y244650D02*
X188000Y251000D01*
X179299Y244650D02*
X181650D01*
X191674Y236685D02*
Y238370D01*
X191455Y236467D02*
X191674Y236685D01*
X163226Y188751D02*
X165798D01*
X170953Y193905D01*
X162891Y188416D02*
X163226Y188751D01*
X186000Y231500D02*
X186250Y231250D01*
X191250D01*
X191500Y231000D01*
X141583Y265106D02*
X141779Y265303D01*
X208500Y212000D02*
X208545Y212045D01*
X214151D01*
X214746Y212641D01*
Y212929D02*
X215000Y213182D01*
X214746Y212641D02*
Y212929D01*
X215000Y213182D02*
Y227053D01*
X206000Y222591D02*
X206045Y222545D01*
X211455D02*
X211500Y222500D01*
X206045Y222545D02*
X211455D01*
X208491Y230009D02*
X208547Y229953D01*
X207850Y230009D02*
X208491D01*
X211500Y222500D02*
X211718Y222718D01*
Y226782D01*
X208547Y229953D02*
X211718Y226782D01*
X208547Y229953D02*
X212100D01*
X215000Y227053D01*
X153744Y274000D02*
X153872Y273872D01*
X164852Y274372D02*
X164980Y274500D01*
X179809Y198573D02*
X182927D01*
X183601Y199247D01*
Y200792D01*
X189059Y206250D01*
X190059D01*
X198309Y198573D02*
X200309D01*
X191059Y206250D02*
X195209Y202100D01*
X190059Y206250D02*
X191059D01*
X160900Y261900D02*
X161500Y262500D01*
X165047Y197000D02*
Y197394D01*
X208500Y207079D02*
X208750Y206829D01*
X209000Y207079D02*
X209398Y206681D01*
X213750Y206829D02*
X214000Y206579D01*
X186000Y236421D02*
X186045Y236467D01*
X163549Y271191D02*
X163980Y270760D01*
X164587Y278240D02*
X164980D01*
X198942Y247855D02*
X199500Y247297D01*
X198942Y247855D02*
Y247942D01*
X165353Y204594D02*
X170500D01*
X164478Y205469D02*
X165353Y204594D01*
X164478Y205469D02*
Y205575D01*
X162500Y207447D02*
Y208500D01*
X162606Y207447D02*
X164478Y205575D01*
X162500Y207447D02*
X162606D01*
X162500Y199941D02*
Y207447D01*
Y199941D02*
X165047Y197394D01*
X148750Y206051D02*
X151801Y203000D01*
X156500D01*
X141583Y206051D02*
X148750D01*
X175020Y278240D02*
X175134Y278126D01*
X179000Y278012D02*
X179412Y277600D01*
X170500Y210500D02*
X170894D01*
X175144Y206250D01*
X179809D01*
X170953Y197000D02*
Y197394D01*
X177250Y203691D01*
X179809D01*
X179759Y211418D02*
X179809Y211368D01*
X178582Y211418D02*
X179759D01*
X177500Y212500D02*
X178582Y211418D01*
X177500Y212500D02*
Y216000D01*
X179500Y218000D01*
Y224000D01*
X172350Y219500D02*
X173175Y218675D01*
Y216825D02*
Y218675D01*
Y216825D02*
X175000Y215000D01*
Y211500D02*
Y215000D01*
Y211500D02*
X177691Y208809D01*
X179809D01*
X200309Y213927D02*
Y217672D01*
X199500Y218481D02*
X200309Y217672D01*
X199500Y218481D02*
Y223000D01*
X206000Y199921D02*
X206295Y200217D01*
X211205D02*
X211500Y200512D01*
X204789Y201132D02*
X206000Y199921D01*
X202221Y206300D02*
X204500Y208579D01*
X200359Y206300D02*
X202221D01*
X200309Y206250D02*
X200359Y206300D01*
X205254Y216529D02*
X205804Y217079D01*
X204500Y215579D02*
X205254Y216333D01*
X204500Y208579D02*
Y215579D01*
X205804Y217079D02*
X206000D01*
X205254Y216333D02*
Y216529D01*
X206000Y217079D02*
X206250Y217329D01*
X141583Y215894D02*
X165106D01*
X140155D02*
X141583D01*
X165106D02*
X170500Y210500D01*
X170953Y193905D02*
Y197000D01*
X171949Y252000D02*
X173000Y250949D01*
X164000Y252000D02*
X171949D01*
X206250Y217329D02*
X211250D01*
X211500Y217579D01*
D39*
X164000Y229000D02*
D03*
X157677Y239677D02*
D03*
X176500Y258000D02*
D03*
X189000Y244000D02*
D03*
X188000Y251000D02*
D03*
X189500Y224500D02*
D03*
X207850Y230009D02*
D03*
X161500Y262500D02*
D03*
X162500Y208500D02*
D03*
X156500Y203000D02*
D03*
X162891Y188416D02*
D03*
X179500Y224000D02*
D03*
D40*
X120000Y183071D02*
D03*
Y297500D02*
D03*
X227500Y183071D02*
D03*
Y297500D02*
D03*
M02*
