G04*
G04 #@! TF.GenerationSoftware,Altium Limited,Altium Designer,25.8.1 (18)*
G04*
G04 Layer_Physical_Order=2*
G04 Layer_Color=16711680*
%FSLAX25Y25*%
%MOIN*%
G70*
G04*
G04 #@! TF.SameCoordinates,43C0CF26-5D00-403A-8535-6070E817F6AF*
G04*
G04*
G04 #@! TF.FilePolarity,Positive*
G04*
G01*
G75*
%ADD33C,0.05512*%
%ADD34R,0.05512X0.05512*%
%ADD37C,0.02000*%
%ADD38C,0.01500*%
%ADD39C,0.05000*%
%ADD40C,0.20000*%
G36*
X234861Y309190D02*
X236462Y308527D01*
X237902Y307564D01*
X239127Y306339D01*
X240090Y304899D01*
X240753Y303298D01*
X241091Y301599D01*
Y300732D01*
Y179000D01*
Y178134D01*
X240753Y176434D01*
X240090Y174834D01*
X239127Y173393D01*
X237902Y172168D01*
X236462Y171205D01*
X234861Y170542D01*
X233162Y170204D01*
X113634D01*
X111934Y170542D01*
X110334Y171205D01*
X108893Y172168D01*
X107668Y173393D01*
X106705Y174834D01*
X106042Y176434D01*
X105704Y178134D01*
Y179000D01*
Y300732D01*
Y301599D01*
X106042Y303298D01*
X106705Y304899D01*
X107668Y306339D01*
X108893Y307564D01*
X110334Y308527D01*
X111934Y309190D01*
X113634Y309528D01*
X233162D01*
X234861Y309190D01*
D02*
G37*
%LPC*%
G36*
X142583Y268727D02*
Y266106D01*
X145203D01*
X145083Y266556D01*
X144588Y267412D01*
X143889Y268112D01*
X143032Y268606D01*
X142583Y268727D01*
D02*
G37*
G36*
X140583D02*
X140133Y268606D01*
X139277Y268112D01*
X138577Y267412D01*
X138083Y266556D01*
X137962Y266106D01*
X140583D01*
Y268727D01*
D02*
G37*
G36*
X145203Y264106D02*
X142583D01*
Y261486D01*
X143032Y261606D01*
X143889Y262101D01*
X144588Y262800D01*
X145083Y263657D01*
X145203Y264106D01*
D02*
G37*
G36*
X140583D02*
X137962D01*
X138083Y263657D01*
X138577Y262800D01*
X139277Y262101D01*
X140133Y261606D01*
X140583Y261486D01*
Y264106D01*
D02*
G37*
G36*
X145126Y278492D02*
X138039D01*
Y271406D01*
X142549D01*
X152743Y261211D01*
X153334Y260816D01*
X154032Y260678D01*
X154032Y260678D01*
X158756D01*
X158869Y260482D01*
X159482Y259869D01*
X160231Y259437D01*
X161067Y259213D01*
X161933D01*
X162769Y259437D01*
X163519Y259869D01*
X164131Y260482D01*
X164563Y261231D01*
X164787Y262067D01*
Y262933D01*
X164563Y263769D01*
X164131Y264518D01*
X163519Y265131D01*
X162769Y265563D01*
X161933Y265787D01*
X161067D01*
X160231Y265563D01*
X159482Y265131D01*
X158869Y264518D01*
X158756Y264322D01*
X154786D01*
X145126Y273983D01*
Y278492D01*
D02*
G37*
G36*
X142049Y258807D02*
X141116D01*
X140215Y258566D01*
X139407Y258099D01*
X138747Y257439D01*
X138281Y256631D01*
X138039Y255730D01*
Y254797D01*
X138281Y253896D01*
X138747Y253088D01*
X139407Y252428D01*
X140215Y251962D01*
X141116Y251720D01*
X142049D01*
X142950Y251962D01*
X143758Y252428D01*
X144418Y253088D01*
X144769Y253696D01*
X163043D01*
X164972Y251767D01*
X165481Y251427D01*
X166081Y251308D01*
X182976D01*
X184021Y250262D01*
X184530Y249922D01*
X184629Y249903D01*
X184905Y249848D01*
X184937Y249731D01*
X185369Y248981D01*
X185982Y248369D01*
X186731Y247937D01*
X187567Y247713D01*
X188433D01*
X189269Y247937D01*
X190018Y248369D01*
X190631Y248981D01*
X191063Y249731D01*
X191287Y250567D01*
Y251433D01*
X191063Y252269D01*
X190631Y253018D01*
X190018Y253631D01*
X189269Y254063D01*
X188433Y254287D01*
X187567D01*
X186731Y254063D01*
X185982Y253631D01*
X185534Y253183D01*
X184733Y253983D01*
X184225Y254323D01*
X184125Y254343D01*
X183625Y254443D01*
X166730D01*
X164800Y256372D01*
X164292Y256712D01*
X164192Y256732D01*
X163692Y256831D01*
X144769D01*
X144418Y257439D01*
X143758Y258099D01*
X142950Y258566D01*
X142049Y258807D01*
D02*
G37*
G36*
Y248965D02*
X141116D01*
X140215Y248723D01*
X139407Y248257D01*
X138747Y247597D01*
X138281Y246789D01*
X138039Y245888D01*
Y244955D01*
X138281Y244054D01*
X138747Y243246D01*
X139407Y242586D01*
X140215Y242119D01*
X141116Y241878D01*
X142049D01*
X142950Y242119D01*
X143758Y242586D01*
X144418Y243246D01*
X144769Y243854D01*
X155272D01*
X155622Y243503D01*
X156131Y243163D01*
X156731Y243044D01*
X170187D01*
X171339Y241892D01*
X171848Y241552D01*
X171947Y241532D01*
X172448Y241432D01*
X179750D01*
X180251Y241532D01*
X180350Y241552D01*
X180859Y241892D01*
X181400Y242432D01*
X186109D01*
X186369Y241982D01*
X186981Y241369D01*
X187731Y240937D01*
X188567Y240713D01*
X189433D01*
X190269Y240937D01*
X191018Y241369D01*
X191631Y241982D01*
X192063Y242731D01*
X192287Y243567D01*
Y244433D01*
X192063Y245269D01*
X191631Y246019D01*
X191018Y246631D01*
X190269Y247063D01*
X189433Y247287D01*
X188567D01*
X187731Y247063D01*
X186981Y246631D01*
X186369Y246019D01*
X186109Y245567D01*
X180750D01*
X180150Y245448D01*
X179982Y245335D01*
X179642Y245108D01*
X179101Y244567D01*
X173097D01*
X171944Y245720D01*
X171436Y246060D01*
X171336Y246080D01*
X170836Y246179D01*
X157380D01*
X157030Y246530D01*
X156521Y246869D01*
X156422Y246889D01*
X155921Y246989D01*
X144769D01*
X144418Y247597D01*
X143758Y248257D01*
X142950Y248723D01*
X142049Y248965D01*
D02*
G37*
G36*
Y229279D02*
X141116D01*
X140215Y229038D01*
X139407Y228572D01*
X138747Y227912D01*
X138281Y227104D01*
X138039Y226203D01*
Y225270D01*
X138281Y224369D01*
X138747Y223561D01*
X139407Y222901D01*
X140215Y222434D01*
X141116Y222193D01*
X142049D01*
X142950Y222434D01*
X143758Y222901D01*
X144418Y223561D01*
X144885Y224369D01*
X145126Y225270D01*
Y226203D01*
X144885Y227104D01*
X144418Y227912D01*
X143758Y228572D01*
X142950Y229038D01*
X142049Y229279D01*
D02*
G37*
G36*
Y219437D02*
X141116D01*
X140215Y219196D01*
X139407Y218729D01*
X138747Y218069D01*
X138281Y217261D01*
X138039Y216360D01*
Y215427D01*
X138281Y214526D01*
X138747Y213718D01*
X139407Y213058D01*
X140215Y212592D01*
X141116Y212350D01*
X142049D01*
X142950Y212592D01*
X143758Y213058D01*
X144418Y213718D01*
X144885Y214526D01*
X145126Y215427D01*
Y216360D01*
X144885Y217261D01*
X144418Y218069D01*
X143758Y218729D01*
X142950Y219196D01*
X142049Y219437D01*
D02*
G37*
G36*
X164433Y232287D02*
X163567D01*
X162731Y232063D01*
X161981Y231631D01*
X161369Y231018D01*
X160937Y230269D01*
X160713Y229433D01*
Y228567D01*
X160937Y227731D01*
X160988Y227642D01*
X160816Y227386D01*
X160678Y226688D01*
X160678Y226688D01*
Y211244D01*
X160482Y211131D01*
X159869Y210519D01*
X159437Y209769D01*
X159213Y208933D01*
Y208067D01*
X159437Y207231D01*
X159869Y206482D01*
X160482Y205869D01*
X161231Y205437D01*
X162067Y205213D01*
X162933D01*
X163769Y205437D01*
X164518Y205869D01*
X165131Y206482D01*
X165563Y207231D01*
X165787Y208067D01*
Y208933D01*
X165563Y209769D01*
X165131Y210519D01*
X164518Y211131D01*
X164322Y211244D01*
Y225713D01*
X164433D01*
X165269Y225937D01*
X166018Y226369D01*
X166631Y226981D01*
X167063Y227731D01*
X167287Y228567D01*
Y229433D01*
X167063Y230269D01*
X166631Y231018D01*
X166018Y231631D01*
X165269Y232063D01*
X164433Y232287D01*
D02*
G37*
G36*
X142049Y209594D02*
X141116D01*
X140215Y209353D01*
X139407Y208887D01*
X138747Y208227D01*
X138281Y207419D01*
X138039Y206518D01*
Y205585D01*
X138281Y204683D01*
X138747Y203875D01*
X139407Y203216D01*
X140215Y202749D01*
X141116Y202508D01*
X142049D01*
X142950Y202749D01*
X143758Y203216D01*
X144418Y203875D01*
X144885Y204683D01*
X145126Y205585D01*
Y206518D01*
X144885Y207419D01*
X144418Y208227D01*
X143758Y208887D01*
X142950Y209353D01*
X142049Y209594D01*
D02*
G37*
G36*
X179933Y227287D02*
X179067D01*
X178231Y227063D01*
X177481Y226631D01*
X176869Y226019D01*
X176437Y225269D01*
X176213Y224433D01*
Y223567D01*
X176437Y222731D01*
X176869Y221982D01*
X177481Y221369D01*
X177933Y221109D01*
Y213139D01*
X165611Y200817D01*
X163878D01*
X161208Y203487D01*
X160700Y203827D01*
X160600Y203847D01*
X160100Y203946D01*
X159650D01*
X159563Y204269D01*
X159131Y205018D01*
X158519Y205631D01*
X157769Y206063D01*
X156933Y206287D01*
X156067D01*
X155231Y206063D01*
X154481Y205631D01*
X153869Y205018D01*
X153437Y204269D01*
X153213Y203433D01*
Y202567D01*
X153437Y201731D01*
X153869Y200981D01*
X154481Y200369D01*
X155231Y199937D01*
X156067Y199713D01*
X156933D01*
X157769Y199937D01*
X158519Y200369D01*
X158960Y200811D01*
X159451D01*
X162120Y198142D01*
X162629Y197802D01*
X162728Y197782D01*
X163229Y197682D01*
X166260D01*
X166761Y197782D01*
X166860Y197802D01*
X167369Y198142D01*
X180608Y211381D01*
X180948Y211890D01*
X180968Y211989D01*
X181068Y212490D01*
Y221109D01*
X181518Y221369D01*
X182131Y221982D01*
X182563Y222731D01*
X182787Y223567D01*
Y224433D01*
X182563Y225269D01*
X182131Y226019D01*
X181518Y226631D01*
X180769Y227063D01*
X179933Y227287D01*
D02*
G37*
G36*
X142049Y239122D02*
X141116D01*
X140215Y238881D01*
X139407Y238414D01*
X138747Y237754D01*
X138281Y236946D01*
X138039Y236045D01*
Y235112D01*
X138281Y234211D01*
X138747Y233403D01*
X139407Y232743D01*
X140215Y232277D01*
X141116Y232035D01*
X142049D01*
X142727Y232217D01*
X148433Y226512D01*
Y198500D01*
X148532Y198000D01*
X148552Y197900D01*
X148892Y197392D01*
X158630Y187653D01*
X159138Y187314D01*
X159738Y187194D01*
X159815D01*
X159828Y187147D01*
X160261Y186398D01*
X160873Y185786D01*
X161622Y185353D01*
X162459Y185129D01*
X163324D01*
X164160Y185353D01*
X164910Y185786D01*
X165522Y186398D01*
X165955Y187147D01*
X166179Y187983D01*
Y188849D01*
X165955Y189685D01*
X165522Y190435D01*
X164910Y191047D01*
X164160Y191480D01*
X163324Y191704D01*
X162459D01*
X161622Y191480D01*
X160873Y191047D01*
X160271Y190445D01*
X151567Y199149D01*
Y227161D01*
X151448Y227761D01*
X151108Y228270D01*
X144944Y234434D01*
X145126Y235112D01*
Y236045D01*
X144885Y236946D01*
X144418Y237754D01*
X143758Y238414D01*
X142950Y238881D01*
X142049Y239122D01*
D02*
G37*
%LPD*%
D33*
X141583Y265106D02*
D03*
Y255264D02*
D03*
Y245421D02*
D03*
Y235579D02*
D03*
Y225736D02*
D03*
Y215894D02*
D03*
Y206051D02*
D03*
D34*
Y274949D02*
D03*
D37*
X164000Y228188D02*
Y229000D01*
X162500Y208500D02*
Y226688D01*
X164000Y228188D01*
X141583Y274949D02*
X154032Y262500D01*
X161500D01*
D38*
X179750Y243000D02*
X180750Y244000D01*
X189000D01*
X172448Y243000D02*
X179750D01*
X185129Y251371D02*
X187629D01*
X188000Y251000D01*
X183625Y252875D02*
X185129Y251371D01*
X166081Y252875D02*
X183625D01*
X170836Y244612D02*
X172448Y243000D01*
X156731Y244612D02*
X170836D01*
X159738Y188762D02*
X162546D01*
X150000Y198500D02*
X159738Y188762D01*
X162546D02*
X162891Y188416D01*
X160100Y202379D02*
X163229Y199250D01*
X157121Y202379D02*
X160100D01*
X156500Y203000D02*
X157121Y202379D01*
X163229Y199250D02*
X166260D01*
X141583Y235579D02*
X150000Y227161D01*
Y198500D02*
Y227161D01*
X179500Y212490D02*
Y224000D01*
X166260Y199250D02*
X179500Y212490D01*
X155921Y245421D02*
X156731Y244612D01*
X141583Y255264D02*
X163692D01*
X166081Y252875D01*
X141583Y245421D02*
X155921D01*
D39*
X164000Y229000D02*
D03*
X157677Y239677D02*
D03*
X176500Y258000D02*
D03*
X189000Y244000D02*
D03*
X188000Y251000D02*
D03*
X189500Y224500D02*
D03*
X207850Y230009D02*
D03*
X161500Y262500D02*
D03*
X162500Y208500D02*
D03*
X156500Y203000D02*
D03*
X162891Y188416D02*
D03*
X179500Y224000D02*
D03*
D40*
X120000Y183071D02*
D03*
Y297500D02*
D03*
X227500Y183071D02*
D03*
Y297500D02*
D03*
M02*
